<?xml version="1.0" encoding="UTF-8" standalone="no"?>
<svg width="29px" height="29px" viewBox="0 0 29 29" version="1.1" xmlns="http://www.w3.org/2000/svg" xmlns:xlink="http://www.w3.org/1999/xlink">
    <!-- Generator: Sketch 39.1 (31720) - http://www.bohemiancoding.com/sketch -->
    <title>Rectangle 30</title>
    <desc>Created with Sketch.</desc>
    <defs></defs>
    <g id="mockup" stroke="none" stroke-width="1" fill="none" fill-rule="evenodd">
        <rect id="Rectangle-30" fill="#D89797" opacity="0" x="0" y="0" width="29" height="29"></rect>
        <g id="Group-21" transform="translate(2.000000, 4.000000)" fill="#FFFFFF">
            <path d="M19.9393398,11.6168312 L19.9292365,9.50571136 L11.3730653,18.2272612 C10.7929125,18.8186276 10.8020029,19.7683315 11.3933692,20.3484844 C11.9847356,20.9286372 12.9344396,20.9195468 13.5145924,20.3281805 L22.0707635,11.6066306 C22.6469937,11.0192627 22.6424859,10.0773365 22.0606602,9.49551082 L13.5044892,0.939339828 C12.9187027,0.353553391 11.9689553,0.353553391 11.3831688,0.939339828 C10.7973824,1.52512627 10.7973824,2.47487373 11.3831688,3.06066017 L19.9393398,11.6168312 Z" id="Path-174"></path>
            <path d="M1.93005371,9 C1.10162659,9 0.430053711,9.67157288 0.430053711,10.5 C0.430053711,11.3284271 1.10162659,12 1.93005371,12 L20,12 C20.8284271,12 21.5,11.3284271 21.5,10.5 C21.5,9.67157288 20.8284271,9 20,9 L1.93005371,9 Z" id="Path-175"></path>
        </g>
    </g>
</svg>