<?xml version="1.0" encoding="UTF-8" standalone="no"?>
<svg width="70px" height="70px" viewBox="0 0 70 70" version="1.1" xmlns="http://www.w3.org/2000/svg" xmlns:xlink="http://www.w3.org/1999/xlink">
    <!-- Generator: Sketch 39.1 (31720) - http://www.bohemiancoding.com/sketch -->
    <title>顧問部/彩色</title>
    <desc>Created with Sketch.</desc>
    <defs></defs>
    <g id="Symbols" stroke="none" stroke-width="1" fill="none" fill-rule="evenodd">
        <g id="顧問部/彩色">
            <rect id="Rectangle-39-Copy-24" fill-opacity="0" fill="#FFFFFF" x="0" y="0" width="70" height="70"></rect>
            <path d="M45.232,41.086 C43.817,42.578 43.248,44.517 43.022,45.887 L42.883,46.718 L27.119,46.709 L26.98,45.881 C26.753,44.524 26.187,42.596 24.784,41.112 L24.719,41.037 C21.067,37.972 19,33.559 19,28.878 C19,20.123 26.176,13 34.996,13 C43.822,13 51.002,20.123 51.002,28.878 C51.002,33.578 48.9,38.024 45.232,41.086 Z M34.996,14.984 C27.278,14.984 20.999,21.217 20.999,28.878 C20.999,33.002 22.833,36.89 26.032,39.544 C26.126,39.611 26.212,39.708 26.279,39.795 C27.721,41.339 28.434,43.21 28.786,44.727 L41.214,44.733 C41.573,43.174 42.312,41.247 43.825,39.676 L43.906,39.6 C47.145,36.916 49.003,33.008 49.003,28.878 C49.003,21.217 42.72,14.984 34.996,14.984 Z" id="Combined-Shape" fill="#008EFF"></path>
            <path d="M30.371,56.033 L39.631,56.033 C40.183,56.033 40.63,56.477 40.63,57.025 C40.63,57.573 40.183,58.017 39.631,58.017 L30.371,58.017 C29.82,58.017 29.372,57.573 29.372,57.025 C29.372,56.477 29.82,56.033 30.371,56.033 L30.371,56.033 Z" id="Path" fill="#FF5F74"></path>
            <path d="M28.005,50.248 L41.997,50.248 C42.549,50.248 42.996,50.692 42.996,51.24 C42.996,51.787 42.549,52.231 41.997,52.231 L28.005,52.231 C27.454,52.231 27.006,51.787 27.006,51.24 C27.006,50.692 27.454,50.248 28.005,50.248 L28.005,50.248 Z" id="Path" fill="#FF5F74"></path>
        </g>
    </g>
</svg>