<?xml version="1.0" encoding="UTF-8" standalone="no"?>
<svg width="70px" height="70px" viewBox="0 0 70 70" version="1.1" xmlns="http://www.w3.org/2000/svg" xmlns:xlink="http://www.w3.org/1999/xlink">
    <!-- Generator: Sketch 39.1 (31720) - http://www.bohemiancoding.com/sketch -->
    <title>顧問部/黑</title>
    <desc>Created with Sketch.</desc>
    <defs></defs>
    <g id="Symbols" stroke="none" stroke-width="1" fill="none" fill-rule="evenodd">
        <g id="顧問部/黑">
            <g id="Group-46">
                <rect id="Rectangle-39-Copy-15" fill-opacity="0" fill="#FFFFFF" x="0" y="0" width="70" height="70"></rect>
                <path d="M45.232,40.086 C43.817,41.578 43.248,43.517 43.022,44.887 L42.883,45.718 L27.119,45.709 L26.98,44.881 C26.753,43.524 26.187,41.596 24.784,40.112 L24.719,40.037 C21.067,36.972 19,32.559 19,27.878 C19,19.123 26.176,12 34.996,12 C43.822,12 51.002,19.123 51.002,27.878 C51.002,32.578 48.9,37.024 45.232,40.086 L45.232,40.086 Z M34.996,13.984 C27.278,13.984 20.999,20.217 20.999,27.878 C20.999,32.002 22.833,35.89 26.032,38.544 C26.126,38.611 26.212,38.708 26.279,38.795 C27.721,40.339 28.434,42.21 28.786,43.727 L41.214,43.733 C41.573,42.174 42.312,40.247 43.825,38.676 L43.906,38.6 C47.145,35.916 49.003,32.008 49.003,27.878 C49.003,20.217 42.72,13.984 34.996,13.984 L34.996,13.984 Z M28.005,49.248 L41.997,49.248 C42.549,49.248 42.996,49.692 42.996,50.24 C42.996,50.787 42.549,51.231 41.997,51.231 L28.005,51.231 C27.454,51.231 27.006,50.787 27.006,50.24 C27.006,49.692 27.454,49.248 28.005,49.248 L28.005,49.248 Z M30.371,55.033 L39.631,55.033 C40.183,55.033 40.63,55.477 40.63,56.025 C40.63,56.573 40.183,57.017 39.631,57.017 L30.371,57.017 C29.82,57.017 29.372,56.573 29.372,56.025 C29.372,55.477 29.82,55.033 30.371,55.033 L30.371,55.033 Z" id="Shape" fill="#353535"></path>
            </g>
        </g>
    </g>
</svg>