<?xml version="1.0" encoding="UTF-8" standalone="no"?>
<svg width="70px" height="70px" viewBox="0 0 70 70" version="1.1" xmlns="http://www.w3.org/2000/svg" xmlns:xlink="http://www.w3.org/1999/xlink">
    <!-- Generator: Sketch 39.1 (31720) - http://www.bohemiancoding.com/sketch -->
    <title>設計部/彩色</title>
    <desc>Created with Sketch.</desc>
    <defs></defs>
    <g id="Symbols" stroke="none" stroke-width="1" fill="none" fill-rule="evenodd">
        <g id="設計部/彩色">
            <g id="Group-58">
                <rect id="Rectangle-39-Copy-26" fill-opacity="0" fill="#FFFFFF" x="0" y="0" width="70" height="70"></rect>
                <g id="Group-14" transform="translate(18.000000, 16.000000)">
                    <path d="M2,15.0018986 C2,15.0047824 6.00189865,15 6.00189865,15 C6.00478245,15 6,10.9981014 6,10.9981014 C6,10.9952176 1.99810135,11 1.99810135,11 C1.99521755,11 2,15.0018986 2,15.0018986 Z M1.99810135,9 L6.00189865,9 C7.10541955,9 8,9.88670635 8,10.9981014 L8,15.0018986 C8,16.1054196 7.11329365,17 6.00189865,17 L1.99810135,17 C0.894580447,17 0,16.1132936 0,15.0018986 L0,10.9981014 C0,9.89458045 0.886706352,9 1.99810135,9 Z" id="Rectangle-19" fill="#008EFF"></path>
                    <path d="M24,37.0018986 C24,37.0047824 28.0018986,37 28.0018986,37 C28.0047824,37 28,32.9981014 28,32.9981014 C28,32.9952176 23.9981014,33 23.9981014,33 C23.9952176,33 24,37.0018986 24,37.0018986 Z M23.9981014,31 L28.0018986,31 C29.1054196,31 30,31.8867064 30,32.9981014 L30,37.0018986 C30,38.1054196 29.1132936,39 28.0018986,39 L23.9981014,39 C22.8945804,39 22,38.1132936 22,37.0018986 L22,32.9981014 C22,31.8945804 22.8867064,31 23.9981014,31 Z" id="Rectangle-19-Copy-2" fill="#008EFF"></path>
                    <path d="M7.14175829,14.0037524 C7.93094051,13.9819955 9.03012778,14.0335932 10.3255762,14.2210923 C12.3026602,14.5072493 14.2555628,15.0516256 16.0719136,15.9120024 C21.6655777,18.5616328 25,23.6510144 25,32.0082651 C25,32.5605498 25.4477153,33.0082651 26,33.0082651 C26.5522847,33.0082651 27,32.5605498 27,32.0082651 C27,22.8655153 23.2094223,17.0798965 16.9280864,14.1045267 C14.9169579,13.1518869 12.7747252,12.5547343 10.6120647,12.2417176 C9.19526663,12.0366547 7.98369132,11.9797813 7.08664139,12.004512 C7.021995,12.0062943 6.97916929,12.0080241 6.94744117,12.0096466 C6.39591977,12.0386741 5.97235473,12.5093019 6.00138217,13.0608233 C6.03040961,13.6123447 6.50103744,14.0359097 7.05255883,14.0068823 C7.06008691,14.0064387 7.09398922,14.0050694 7.14175829,14.0037524 Z" id="Path-83" fill="#008EFF"></path>
                    <polygon id="Path-84" fill="#008EFF" points="25 32.0665928 27 32.0665928 27 2 25 2"></polygon>
                    <circle id="Oval-14-Copy" fill="#FF5F74" cx="26" cy="3" r="3"></circle>
                </g>
            </g>
        </g>
    </g>
</svg>