<?xml version="1.0" encoding="UTF-8" standalone="no"?>
<svg width="70px" height="70px" viewBox="0 0 70 70" version="1.1" xmlns="http://www.w3.org/2000/svg" xmlns:xlink="http://www.w3.org/1999/xlink">
    <!-- Generator: Sketch 39.1 (31720) - http://www.bohemiancoding.com/sketch -->
    <title>工程部/黑</title>
    <desc>Created with Sketch.</desc>
    <defs></defs>
    <g id="Symbols" stroke="none" stroke-width="1" fill="none" fill-rule="evenodd">
        <g id="工程部/黑">
            <rect id="Rectangle-39-Copy-16" fill-opacity="0" fill="#FFFFFF" x="0" y="0" width="70" height="70"></rect>
            <g id="Group" transform="translate(13.000000, 22.000000)" fill="#353535">
                <path d="M0.292893219,14.2928932 C-0.0976310729,14.6834175 -0.0976310729,15.3165825 0.292893219,15.7071068 L9.29289322,24.7071068 C9.68341751,25.0976311 10.3165825,25.0976311 10.7071068,24.7071068 C11.0976311,24.3165825 11.0976311,23.6834175 10.7071068,23.2928932 L1.70710678,14.2928932 L1.70710678,15.7071068 L11.2071068,6.20710678 C11.5976311,5.81658249 11.5976311,5.18341751 11.2071068,4.79289322 C10.8165825,4.40236893 10.1834175,4.40236893 9.79289322,4.79289322 L0.292893219,14.2928932 Z" id="Path-122"></path>
                <path d="M42.7928932,15.2071068 L42.7928932,13.7928932 L33.7928932,22.7928932 C33.4023689,23.1834175 33.4023689,23.8165825 33.7928932,24.2071068 C34.1834175,24.5976311 34.8165825,24.5976311 35.2071068,24.2071068 L44.2071068,15.2071068 C44.5976311,14.8165825 44.5976311,14.1834175 44.2071068,13.7928932 L34.7071068,4.29289322 C34.3165825,3.90236893 33.6834175,3.90236893 33.2928932,4.29289322 C32.9023689,4.68341751 32.9023689,5.31658249 33.2928932,5.70710678 L42.7928932,15.2071068 Z" id="Path-122-Copy"></path>
                <path d="M29.4090648,1.41665471 C29.6391769,0.914592072 29.4187173,0.32104722 28.9166547,0.0909351771 C28.4145921,-0.139176865 27.8210472,0.0812826512 27.5909352,0.58334529 L16.5909352,24.5833453 C16.3608231,25.0854079 16.5812827,25.6789528 17.0833453,25.9090648 C17.5854079,26.1391769 18.1789528,25.9187173 18.4090648,25.4166547 L29.4090648,1.41665471 Z" id="Path-123"></path>
            </g>
        </g>
    </g>
</svg>