<?xml version="1.0" encoding="utf-8"?>
<!-- Generator: Adobe Illustrator 18.0.0, SVG Export Plug-In . SVG Version: 6.00 Build 0)  -->
<!DOCTYPE svg PUBLIC "-//W3C//DTD SVG 1.1//EN" "http://www.w3.org/Graphics/SVG/1.1/DTD/svg11.dtd">
<svg version="1.1" xmlns="http://www.w3.org/2000/svg" xmlns:xlink="http://www.w3.org/1999/xlink" x="0px" y="0px"
	 viewBox="0 0 841.9 758.6" enable-background="new 0 0 841.9 758.6" xml:space="preserve">
<g id="圖層_1">
</g>
<g id="圖層_12">
</g>
<g id="圖層_2" display="none">
</g>
<g id="圖層_4" display="none">
</g>
<g id="圖層_7">
	<path fill="#898989" d="M161,500.6l-69.3-40.3c-23.5-13.7-23.5-47.7,0.1-61.3l0,0L161,500.6L161,500.6"/>
	<path fill="#C9CACA" d="M161.3,488.6L92,448.3c-23.5-13.7-23.5-47.7,0.1-61.3l0,0L161.3,488.6L161.3,488.6"/>
</g>
<g id="圖層_10">
</g>
<g id="圖層_6">
	<polygon fill="#C5E6F3" points="88.6,485.3 31.4,518.8 147.1,586.8 272.2,516.5 186.1,467 	"/>
	<g>
		<defs>
			<path id="SVGID_1_" d="M161.3,488.6L92,448.3c-23.5-13.7-23.5-47.7,0.1-61.3l0,0L161.3,488.6L161.3,488.6"/>
		</defs>
		<clipPath id="SVGID_2_">
			<use xlink:href="#SVGID_1_"  overflow="visible"/>
		</clipPath>
		<g clip-path="url(#SVGID_2_)">
			
				<line fill="#ADADAD" stroke="#ADADAD" stroke-width="2" stroke-linecap="round" stroke-miterlimit="10" x1="83.3" y1="394.9" x2="91.1" y2="397.6"/>
			
				<line fill="#ADADAD" stroke="#ADADAD" stroke-width="2" stroke-linecap="round" stroke-miterlimit="10" x1="72.7" y1="410.9" x2="110" y2="414.9"/>
			
				<line fill="#ADADAD" stroke="#ADADAD" stroke-width="2" stroke-linecap="round" stroke-miterlimit="10" x1="73.2" y1="433.2" x2="109.5" y2="423.7"/>
		</g>
	</g>
	<polygon fill="#8CD1EA" points="88.4,373.9 88.8,520.7 148,554.1 147.6,408.4 	"/>
	<polygon fill="#C5E6F3" points="188.4,347.2 188.4,368.4 338.5,456.2 338.5,434.3 	"/>
	<path fill="#8CD1EA" d="M303.4,280.8l-6.1,3.5l-108.9,62.9L339,434.3l125.7-74.2l-47.8-27.6c0,0-101.6-58.5-102.5-58.6
		S303.4,280.8,303.4,280.8z"/>
	<polygon fill="#C5E6F3" points="227.8,331 227.8,348.4 351.1,420.6 351.1,402.6 	"/>
	<path fill="#8CD1EA" d="M322.3,276.5l-5,2.9L227.8,331l123.8,71.6l103.3-60.9L415.6,319c0,0-83.5-48.1-84.3-48.1
		C330.5,270.8,322.3,276.5,322.3,276.5z"/>
	<polygon fill="#38BBE0" points="351.5,402.6 351.1,420.6 455.1,357.4 455.1,341.7 	"/>
	<polygon fill="#C5E6F3" points="227.8,297 227.8,314.4 351.1,386.5 351.1,368.6 	"/>
	<path fill="#F8B62D" d="M322.3,242.4l-5,2.9L227.8,297l123.8,71.6l103.3-60.9L415.6,285c0,0-83.5-48.1-84.3-48.1
		C330.5,236.8,322.3,242.4,322.3,242.4z"/>
	<polygon fill="#8CD1EA" points="273.3,195 273.3,302.7 337.4,343.6 337.4,232.5 	"/>
	<polyline fill="#F8B62D" points="273.3,195 338.5,157.1 402.4,195.2 337.4,232.5 273.3,195 273.3,195 	"/>
	<polyline fill="#259EBB" points="263.3,182.2 337,224.8 410.7,182.2 337,139.5 263.3,182.2 	"/>
	<polygon fill="#38BBE0" points="263.4,196.2 263.4,181.9 337.1,224.4 337.1,238 	"/>
	<polyline fill="#F39800" points="337.4,232.5 337.4,343.6 403.2,304.4 403.2,195.2 337.4,232.5 	"/>
	<polygon fill="#44778C" points="356.2,278.6 356.2,312.9 391.4,292.1 391.4,258.1 	"/>
	<polygon fill="#44778C" points="410.8,196.2 410.8,181.9 337.1,224.4 337.1,238 	"/>
	<path fill="#44778C" d="M282.4,287.2L282.4,287.2c0-12,13-19.6,23.5-13.6h0c11.6,6.6,18.7,19,18.7,32.3v28.7L282,311.1L282.4,287.2
		z"/>
	<g>
		<polygon fill="#C9CACA" points="167.6,402.9 316.7,317.4 282.6,296.7 167,363.1 159.2,374.8 		"/>
		<g>
			<defs>
				<polygon id="SVGID_3_" points="182.6,393.8 302.8,326.3 267.5,305.5 155.3,368.7 				"/>
			</defs>
			<clipPath id="SVGID_4_">
				<use xlink:href="#SVGID_3_"  overflow="visible"/>
			</clipPath>
			<g clip-path="url(#SVGID_4_)">
				
					<line fill="#ADADAD" stroke="#ADADAD" stroke-width="2" stroke-linecap="round" stroke-miterlimit="10" x1="277.5" y1="339.6" x2="241.8" y2="318.6"/>
				
					<line fill="#ADADAD" stroke="#ADADAD" stroke-width="2" stroke-linecap="round" stroke-miterlimit="10" x1="259.9" y1="349.7" x2="224.2" y2="328.7"/>
				
					<line fill="#ADADAD" stroke="#ADADAD" stroke-width="2" stroke-linecap="round" stroke-miterlimit="10" x1="242.4" y1="359.7" x2="206.7" y2="338.8"/>
				
					<line fill="#ADADAD" stroke="#ADADAD" stroke-width="2" stroke-linecap="round" stroke-miterlimit="10" x1="224.8" y1="369.8" x2="189.1" y2="348.8"/>
				
					<line fill="#ADADAD" stroke="#ADADAD" stroke-width="2" stroke-linecap="round" stroke-miterlimit="10" x1="207.3" y1="379.8" x2="171.6" y2="358.9"/>
				
					<line fill="#BDBBBB" stroke="#ADADAD" stroke-width="2" stroke-linecap="round" stroke-miterlimit="10" x1="295" y1="329.6" x2="259.3" y2="308.6"/>
			</g>
		</g>
		<polygon fill="#898989" points="178,411.6 324.5,326.4 324.5,312.9 178,396.9 		"/>
		<g>
			<path fill="#B5B5B6" d="M308,328.2c0-1.9-1.4-2.7-3.1-1.8c-1.7,1-3.1,3.3-3.1,5.3s1.4,2.7,3.1,1.8
				C306.7,332.5,308,330.1,308,328.2z"/>
			<path fill="#B5B5B6" d="M296,335.2c0-1.9-1.4-2.7-3.1-1.8c-1.7,1-3.1,3.3-3.1,5.3s1.4,2.7,3.1,1.8
				C294.6,339.5,296,337.2,296,335.2z"/>
			<path fill="#B5B5B6" d="M283.9,342.3c0-1.9-1.4-2.7-3.1-1.8s-3.1,3.3-3.1,5.3s1.4,2.7,3.1,1.8
				C282.5,346.5,283.9,344.2,283.9,342.3z"/>
			<path fill="#B5B5B6" d="M271.9,349.3c0-1.9-1.4-2.7-3.1-1.8s-3.1,3.3-3.1,5.3c0,1.9,1.4,2.7,3.1,1.8
				C270.5,353.6,271.9,351.2,271.9,349.3z"/>
			<path fill="#B5B5B6" d="M259.8,356.3c0-1.9-1.4-2.7-3.1-1.8s-3.1,3.3-3.1,5.3s1.4,2.7,3.1,1.8
				C258.4,360.6,259.8,358.2,259.8,356.3z"/>
			<path fill="#B5B5B6" d="M247.7,363.3c0-1.9-1.4-2.7-3.1-1.8s-3.1,3.3-3.1,5.3s1.4,2.7,3.1,1.8S247.7,365.3,247.7,363.3z"/>
			<path fill="#B5B5B6" d="M235.7,370.4c0-1.9-1.4-2.7-3.1-1.8c-1.7,1-3.1,3.3-3.1,5.3s1.4,2.7,3.1,1.8
				C234.3,374.6,235.7,372.3,235.7,370.4z"/>
			<path fill="#B5B5B6" d="M223.6,377.4c0-1.9-1.4-2.7-3.1-1.8c-1.7,1-3.1,3.3-3.1,5.3s1.4,2.7,3.1,1.8
				C222.2,381.7,223.6,379.3,223.6,377.4z"/>
			<path fill="#B5B5B6" d="M211.6,384.4c0-1.9-1.4-2.7-3.1-1.8c-1.7,1-3.1,3.3-3.1,5.3c0,1.9,1.4,2.7,3.1,1.8
				C210.2,388.7,211.6,386.3,211.6,384.4z"/>
			<path fill="#B5B5B6" d="M199.5,391.4c0-1.9-1.4-2.7-3.1-1.8s-3.1,3.3-3.1,5.3s1.4,2.7,3.1,1.8
				C198.1,395.7,199.5,393.3,199.5,391.4z"/>
			<path fill="#B5B5B6" d="M187.4,398.5c0-1.9-1.4-2.7-3.1-1.8s-3.1,3.3-3.1,5.3s1.4,2.7,3.1,1.8S187.4,400.4,187.4,398.5z"/>
		</g>
	</g>
	<polygon fill="#38BBE0" points="147.6,408.4 206.2,373.6 206.5,520.1 148,554.1 	"/>
	<path fill="#44778C" d="M160.7,536.2v-77.4c0-10.9,5.9-21,15.5-26.3l0.1,0c9.1-5,20.3,1.6,20.3,12v11l-0.3,60.4L160.7,536.2z"/>
	<polygon fill="#8CD1EA" points="31.4,518.8 31.4,532.1 31.4,539.2 147.6,607.7 147.6,586.1 	"/>
	<polygon fill="#38BBE0" points="263.7,518.8 263.7,539.2 147.5,607.7 147.5,586.1 	"/>
	<polygon fill="#F094AA" points="147.6,408.4 148,370.7 59.6,318.9 88.4,373.9 	"/>
	<g>
		<path fill="#44778C" d="M237.1,356.7c0.1-0.3,0.1-0.6,0-0.8v-3l-2.1,1.1l-14.2-8.3c-1.8-1.1-4.9-1.2-6.8-0.2l-15.2,7.9
			c-0.1,0-0.1,0.1-0.2,0.1l-1.3-0.6l0.1,1.9c-0.1,0.4-0.1,0.8,0.1,1.2l0,0l0,0c0.2,0.4,0.6,0.8,1.2,1.2l15.3,8.9
			c0.7,0.4,1.5,0.6,2.3,0.8l0.2,0.1l0.1-0.1c1.5,0.2,3-0.1,4.2-0.7l14.9-8C236.5,357.8,236.9,357.3,237.1,356.7L237.1,356.7
			L237.1,356.7z"/>
		<path fill="#259EBB" d="M220.8,342.6c-1.8-1.1-4.9-1.2-6.8-0.2l-15.2,7.9c-1.9,1-1.9,2.7-0.1,3.8l15.3,8.9
			c1.8,1.1,4.9,1.1,6.8,0.1l14.9-8c1.9-1,1.9-2.7,0.1-3.8L220.8,342.6z"/>
		<circle fill="#F7F8F8" cx="217.3" cy="345.6" r="10.2"/>
		<g>
			<path opacity="0.51" fill="#8CD1EA" d="M237.1,353L237.1,353l0-20.6l-18.5,9.6l-21.1-10.4v20.2c-0.4,0.9,0,1.8,1.2,2.5l15.3,8.9
				c1.1,0.7,2.7,0.9,4.2,0.8l0,0l0,0c1-0.1,1.9-0.3,2.6-0.7l14.9-8C236.9,354.7,237.3,353.8,237.1,353z"/>
			<path fill="#38BBE0" d="M237.1,332.3c0.1-0.3,0.1-0.6,0-0.8v-3l-2.1,1.1l-14.2-8.3c-1.8-1.1-4.9-1.2-6.8-0.2l-15.2,7.9
				c-0.1,0-0.1,0.1-0.2,0.1l-1.3-0.6l0.1,1.9c-0.1,0.4-0.1,0.8,0.1,1.2l0,0l0,0c0.2,0.4,0.6,0.8,1.2,1.2l15.3,8.9
				c0.7,0.4,1.5,0.6,2.3,0.8l0.2,0.1l0.1-0.1c1.5,0.2,3-0.1,4.2-0.7l14.9-8C236.5,333.4,236.9,332.9,237.1,332.3L237.1,332.3
				L237.1,332.3z"/>
			<path fill="#259EBB" d="M220.8,318.3c-1.8-1.1-4.9-1.2-6.8-0.2l-15.2,7.9c-1.9,1-1.9,2.7-0.1,3.8l15.3,8.9
				c1.8,1.1,4.9,1.1,6.8,0.1l14.9-8c1.9-1,1.9-2.7,0.1-3.8L220.8,318.3z"/>
		</g>
	</g>
	<polygon fill="#E9506A" points="148,370.7 147.6,408.4 206.2,373.9 237.4,318.9 	"/>
	<polygon fill="#E9506A" points="59.6,318.9 148,267.9 237.4,318.9 148,370.7 	"/>
	<polygon fill="#F094AA" points="71.4,318.9 147.6,362.4 224.5,318.9 147.6,274.9 	"/>
	<polygon fill="#BB324B" points="147.6,274.9 147.6,318.7 186.1,341.1 224.5,318.9 	"/>
	<polygon fill="#E9506A" points="148.2,274.9 148.2,318.7 109.8,341.1 71.4,318.9 	"/>
	<polygon fill="#8CD1EA" points="102.8,501.6 128.7,516 122,519.8 96.6,505.2 	"/>
	<polygon fill="#38BBE0" points="97,504.8 97,511.3 123.2,526.4 123.2,519.2 	"/>
	<polygon fill="#8CD1EA" points="97.4,511.9 123.2,526.4 116.6,530.2 91.2,515.5 	"/>
	<polygon fill="#38BBE0" points="91.6,515.1 91.6,521.6 117.8,536.8 117.8,529.6 	"/>
	<polygon fill="#8CD1EA" points="92,522 117.8,536.5 111.2,540.3 85.8,525.6 	"/>
	<polygon fill="#38BBE0" points="86.2,525.2 86.2,531.7 112.4,546.9 112.4,539.7 	"/>
	<polygon fill="#8CD1EA" points="86,532.2 111.8,546.6 105.1,550.4 79.8,535.8 	"/>
	<polygon fill="#38BBE0" points="80.2,535.4 80.2,541.9 106.4,557 106.4,549.8 	"/>
	<polygon fill="#259EBB" points="106.4,557 106.4,549.8 112.4,546.3 112.4,539.7 117.8,536.8 117.8,529.6 123.2,526.4 123.2,519.2 
		128.7,516 128.7,543.5 	"/>
	<path fill="#259EBB" d="M128.7,516v-41c0-8.1-4.3-15.5-11.3-19.6l0,0c-6.1-3.5-13.7,0.8-13.8,7.8l-0.7,38.3L128.7,516z"/>
	<polygon fill="#259EBB" points="160.7,529.3 188.9,513.3 197.5,514.8 160.7,536.2 	"/>
	<polygon fill="#38BBE0" points="148,598.1 31.5,530.5 31.4,539.2 147.5,607.7 	"/>
	<polygon fill="#259EBB" points="147.5,598.2 246.7,541.2 246.7,549.8 147.5,607.7 	"/>
	<g>
		<polygon fill="#44778C" points="91.3,399.1 102.4,405.7 102.4,424.7 91.3,418 		"/>
		<path fill="#C5E6F3" d="M103.4,426.5l-13.1-7.9v-21.3l13.1,7.9V426.5z M92.3,417.4l9.1,5.5v-16.6l-9.1-5.5V417.4z"/>
		<polygon fill="#259EBB" points="103.4,405.1 108.4,402.2 108.4,423.3 103.4,426.5 		"/>
		<polygon fill="#38BBE0" points="90.3,397.3 103.4,405.1 108.4,402.2 95.2,394.5 		"/>
	</g>
	<g>
		<polygon fill="#44778C" points="107.5,408.5 118.5,415.1 118.5,434.1 107.5,427.4 		"/>
		<path fill="#C5E6F3" d="M119.5,435.9l-13.1-7.9v-21.3l13.1,7.9V435.9z M108.5,426.8l9.1,5.5v-16.6l-9.1-5.5V426.8z"/>
		<polygon fill="#259EBB" points="119.5,414.6 124.5,411.6 124.5,432.7 119.5,435.9 		"/>
		<polygon fill="#38BBE0" points="106.5,406.7 119.5,414.6 124.5,411.6 111.3,403.9 		"/>
	</g>
	<g>
		<polygon fill="#44778C" points="124,418 135.1,424.6 135.1,443.6 124,436.9 		"/>
		<path fill="#C5E6F3" d="M136.1,445.4l-13.1-7.9v-21.3l13.1,7.9V445.4z M125,436.4l9.1,5.5v-16.6l-9.1-5.5V436.4z"/>
		<polygon fill="#259EBB" points="136.1,424.1 141.1,421.1 141.1,442.2 136.1,445.4 		"/>
		<polygon fill="#38BBE0" points="123,416.2 136.1,424.1 141.1,421.1 127.9,413.4 		"/>
	</g>
	<path fill="#C5E6F3" d="M114.4,454.4c0,0-8,2.7-8,10.5c0,7.8-0.6,38.5-0.6,38.5l-3-1.8l0.7-38.3
		C103.5,463.3,103.8,453.6,114.4,454.4z"/>
	<polyline fill="#259EBB" points="123.2,489.8 125,488.9 123.1,483.1 	"/>
	<polygon fill="#44778C" points="148.4,326 179.8,344.2 147.6,362.4 116.3,344.5 	"/>
	<path fill="#44778C" d="M282.4,278.7L282.4,278.7c0-12,13-19.6,23.5-13.6h0c11.6,6.6,18.7,19,18.7,32.3v28.7L282,302.6L282.4,278.7
		z"/>
	<g>
		<defs>
			<path id="SVGID_5_" d="M282.4,278.7L282.4,278.7c0-12,13-19.6,23.5-13.6h0c11.6,6.6,18.7,19,18.7,32.3v28.7L282,302.6
				L282.4,278.7z"/>
		</defs>
		<clipPath id="SVGID_6_">
			<use xlink:href="#SVGID_5_"  overflow="visible"/>
		</clipPath>
		<g clip-path="url(#SVGID_6_)">
			<polygon fill="#C9CACA" points="209.5,378.7 358.5,293.3 324.5,272.5 208.8,338.9 201.1,350.6 			"/>
			
				<line fill="#BDBBBB" stroke="#ADADAD" stroke-width="2" stroke-linecap="round" stroke-miterlimit="10" x1="313.6" y1="319.2" x2="277.9" y2="298.2"/>
			<line fill="#BDBBBB" x1="331.4" y1="307.7" x2="295.7" y2="286.7"/>
			<g>
				<defs>
					<polygon id="SVGID_7_" points="224.5,369.6 344.6,302.2 309.3,281.4 197.2,344.6 					"/>
				</defs>
				<clipPath id="SVGID_8_">
					<use xlink:href="#SVGID_7_"  overflow="visible"/>
				</clipPath>
				<g clip-path="url(#SVGID_8_)">
					<line fill="none" x1="319.4" y1="315.5" x2="283.7" y2="294.5"/>
					<line fill="none" x1="301.8" y1="325.5" x2="266.1" y2="304.5"/>
					<line fill="none" x1="284.3" y1="335.6" x2="248.6" y2="314.6"/>
					<line fill="none" x1="266.7" y1="345.6" x2="231" y2="324.7"/>
					<line fill="none" x1="249.2" y1="355.7" x2="213.5" y2="334.7"/>
					<line fill="none" x1="336.9" y1="305.4" x2="301.2" y2="284.4"/>
					<line fill="none" x1="355" y1="294" x2="319.3" y2="273"/>
				</g>
			</g>
			<polygon fill="#898989" points="219.8,387.4 378.9,294.7 370.4,286.4 219.8,372.8 			"/>
			<g>
				<path fill="#B5B5B6" d="M349.9,304.1c0-1.9-1.4-2.7-3.1-1.8s-3.1,3.3-3.1,5.3s1.4,2.7,3.1,1.8
					C348.5,308.3,349.9,306,349.9,304.1z"/>
				<path fill="#B5B5B6" d="M337.9,311.1c0-1.9-1.4-2.7-3.1-1.8s-3.1,3.3-3.1,5.3s1.4,2.7,3.1,1.8
					C336.5,315.4,337.9,313,337.9,311.1z"/>
				<path fill="#B5B5B6" d="M313.7,325.1c0-1.9-1.4-2.7-3.1-1.8c-1.7,1-3.1,3.3-3.1,5.3s1.4,2.7,3.1,1.8
					C312.4,329.4,313.7,327,313.7,325.1z"/>
				<path fill="#B5B5B6" d="M301.7,332.2c0-1.9-1.4-2.7-3.1-1.8s-3.1,3.3-3.1,5.3s1.4,2.7,3.1,1.8
					C300.3,336.4,301.7,334.1,301.7,332.2z"/>
				<path fill="#B5B5B6" d="M289.6,339.2c0-1.9-1.4-2.7-3.1-1.8c-1.7,1-3.1,3.3-3.1,5.3s1.4,2.7,3.1,1.8
					C288.2,343.5,289.6,341.1,289.6,339.2z"/>
				<path fill="#B5B5B6" d="M277.6,346.2c0-1.9-1.4-2.7-3.1-1.8c-1.7,1-3.1,3.3-3.1,5.3s1.4,2.7,3.1,1.8
					C276.2,350.5,277.6,348.1,277.6,346.2z"/>
				<path fill="#B5B5B6" d="M265.5,353.2c0-1.9-1.4-2.7-3.1-1.8s-3.1,3.3-3.1,5.3s1.4,2.7,3.1,1.8S265.5,355.1,265.5,353.2z"/>
				<path fill="#B5B5B6" d="M253.4,360.3c0-1.9-1.4-2.7-3.1-1.8c-1.7,1-3.1,3.3-3.1,5.3s1.4,2.7,3.1,1.8
					C252,364.5,253.4,362.2,253.4,360.3z"/>
				<path fill="#B5B5B6" d="M241.4,367.3c0-1.9-1.4-2.7-3.1-1.8s-3.1,3.3-3.1,5.3s1.4,2.7,3.1,1.8
					C240,371.6,241.4,369.2,241.4,367.3z"/>
				<path fill="#B5B5B6" d="M229.3,374.3c0-1.9-1.4-2.7-3.1-1.8s-3.1,3.3-3.1,5.3s1.4,2.7,3.1,1.8
					C227.9,378.6,229.3,376.2,229.3,374.3z"/>
			</g>
			<path fill="#ADADAD" d="M331.9,306.8l-33.2-19.5l-2,1.1l34.2,20.1c0.2,0.1,0.3,0.1,0.5,0.1c0.3,0,0.7-0.2,0.9-0.5
				C332.6,307.7,332.4,307.1,331.9,306.8z"/>
		</g>
	</g>
	<path fill="#B5B5B6" d="M319.7,321.6c0-1.9-1.4-2.7-3.1-1.8s-3.1,3.3-3.1,5.3s1.4,2.7,3.1,1.8C318.3,325.9,319.7,323.5,319.7,321.6
		z"/>
	<path fill="#FFFFFF" d="M283.8,245.3l37.8,21.6v-5.8c0-12.5-6.8-24-17.7-30.2l0,0c-8.8-5-19.9,1.1-20,11.2L283.8,245.3z"/>
	<path fill="#38BBE0" d="M285.2,242.8c0.2-9.9,10.9-16,19.7-11.3c-0.3-0.2-0.7-0.4-1-0.6h0c-8.8-5-19.9,1.1-20,11.2l-0.1,3.3
		l1.3,0.8L285.2,242.8z"/>
	<g>
		<line fill="#FFFFFF" x1="301.5" y1="252" x2="294" y2="235.6"/>
		<path fill="#F8B62D" d="M300.2,252.3l-6.2-16.7l8.7,15.8l0,0c-0.1,1.1-1.2,1.7-2.2,1.2l0,0C300.4,252.6,300.3,252.5,300.2,252.3z"
			/>
	</g>
	<polygon fill="#8CD1EA" points="283.6,245 279.7,247.2 318.9,270.1 322.9,267.8 	"/>
	<polygon fill="#C5E6F3" points="283.8,245.3 285.2,244.5 321.6,265.1 321.6,266.9 	"/>
	<polygon fill="#38BBE0" points="351.5,368.6 351.1,386.5 455.1,323.3 455.1,307.7 	"/>
	<g>
		<polygon fill="#8CD1EA" stroke="#F7F8F8" stroke-miterlimit="10" points="344.6,250.6 354,245 354,265.7 344.6,271.1 		"/>
		<polygon fill="#8CD1EA" stroke="#F7F8F8" stroke-miterlimit="10" points="358.6,242.6 368,237 368,257.7 358.6,263.1 		"/>
		<polygon fill="#8CD1EA" stroke="#F7F8F8" stroke-miterlimit="10" points="372.6,234.6 382,229 382,249.7 372.6,255.1 		"/>
		<polygon fill="#8CD1EA" stroke="#F7F8F8" stroke-miterlimit="10" points="386.6,226.6 396,221 396,241.7 386.6,247.1 		"/>
	</g>
	<g>
		<g>
			<path fill="#F8B62D" d="M354.8,276.9l134,82.9c12.4,7.1,20,20.3,20,34.6v57.7l-12-7.2c-12.2-7.4-19.7-20.6-19.7-34.9v-6.5
				c0-9.9-0.3-16.9-7.6-23.4l-114.9-66.4L354.8,276.9z"/>
			<path fill="#F094AA" d="M490.2,356.8l-135.4-80l-0.1,26l117.5,68.5c12.4,7.1,15.1,12.1,15.1,26.3V412c0,7,8.2,19.1,16.2,18.3h5.4
				l0-35.9C508.8,380.1,502.5,364,490.2,356.8z"/>
			<path fill="#8CD1EA" d="M354.8,276.9L457.4,337l32.8,19.8c12.4,7.1,18.6,23.3,18.6,37.6v57.7l35-20.2v-61.7c0,0-3.5-21.1-20-30.6
				c-16.5-9.5-134-81.8-134-81.8L354.8,276.9z"/>
		</g>
	</g>
	<g>
		<polygon fill="#C5E6F3" points="535.3,356.9 498.2,378.1 575.6,422.7 663.6,371.9 586.9,328.5 		"/>
		<polygon fill="#8CD1EA" points="575.6,422.7 583,433.2 671.7,382.5 663.6,371.9 		"/>
		<polygon fill="#38BBE0" points="498.2,378.1 498.2,383.7 583,433.2 575.6,422.7 		"/>
		<polygon fill="#259EBB" points="583,433.2 583.7,535.2 671.4,484.3 671.7,382.5 		"/>
		<polygon fill="#38BBE0" points="498.2,383.7 499,489 583.7,535.2 583,433.2 		"/>
		<path fill="#44778C" d="M615.7,510.9v-33.2c0-13.6,7.2-26.1,19-32.9l0,0c7.2-4.2,16.2,1,16.2,9.3v36.5L615.7,510.9z"/>
		<path fill="#38BBE0" d="M638.7,443.4c5,0.7,9.4,4.9,9.4,10.7v36.5l-32.3,18.7v1.6l35.2-20.3v-36.5
			C650.9,447.3,644.9,442.6,638.7,443.4z"/>
		<g>
			<defs>
				<path id="SVGID_9_" d="M615.7,510.9v-33.2c0-13.6,7.2-26.1,19-32.9l0,0c7.2-4.2,16.2,1,16.2,9.3v36.5L615.7,510.9z"/>
			</defs>
			<clipPath id="SVGID_10_">
				<use xlink:href="#SVGID_9_"  overflow="visible"/>
			</clipPath>
			<polygon clip-path="url(#SVGID_10_)" fill="#C9CACA" points="615.7,509.5 615.7,468.5 727.7,532.3 691,553.6 			"/>
		</g>
	</g>
	<path fill="#C9CACA" d="M356.2,278.6"/>
	<polygon fill="#F8B62D" points="498.6,483.8 498.6,531.2 583.1,580.6 583.7,532.4 	"/>
	<polygon fill="#F39800" points="671.4,481.7 671.4,528.6 583.1,580.6 583.7,532.4 	"/>
	<polygon fill="#E9506A" points="694.2,568.4 615.7,523.2 653.2,500.9 731.6,546.1 	"/>
	<g>
		<polygon fill="#F8B62D" points="691.1,569.4 691.1,596.6 694.2,598.6 694.2,571.5 		"/>
		<polygon fill="#F39800" points="697.4,596.7 694.2,598.6 694.2,571.5 697.4,569.4 		"/>
	</g>
	<g>
		<polygon fill="#F8B62D" points="633.5,536.5 633.5,563.8 636.6,565.7 636.6,538.6 		"/>
		<polygon fill="#F39800" points="639.8,563.8 636.6,565.7 636.6,538.6 639.8,536.5 		"/>
	</g>
	<g>
		<polygon fill="#F8B62D" points="662.3,552.9 662.3,580.2 665.4,582.2 665.4,555 		"/>
		<polygon fill="#F39800" points="668.6,580.2 665.4,582.2 665.4,555 668.6,552.9 		"/>
	</g>
	<polygon fill="#F8B62D" points="717.8,553.8 717.8,581.1 720.9,583.1 720.9,555.9 	"/>
	<polygon fill="#F39800" points="724.1,581.1 720.9,583.1 720.9,555.9 724.1,553.8 	"/>
	<polygon fill="#BB324B" points="694.2,568.4 694.2,574.7 731.6,553.5 731.6,546.1 	"/>
	<polygon fill="#C9CACA" points="615.7,510.9 627.4,474.8 737.1,538.7 702.6,559.8 	"/>
	<path fill="#C9CACA" d="M737.5,539l-0.3-0.4l-35.7,20.6l1.5,1.1c3,3.6,2.8,8.8-0.3,12.3l34.8-20.1C741.5,549,741.7,543.1,737.5,539
		z"/>
	<path fill="#44778C" d="M615.7,510.9v11l86.9,50.5l0,0c5-2.8,5-10.1,0-12.9l-86.9-50.3V510.9z"/>
	<path fill="#8CD1EA" d="M620,518.4c0-1.9,1.4-2.7,3.1-1.8c1.7,1,3.1,3.3,3.1,5.3c0,1.9-1.4,2.7-3.1,1.8
		C621.4,522.6,620,520.3,620,518.4z"/>
	<path fill="#8CD1EA" d="M632.1,525.3c0-1.9,1.4-2.7,3.1-1.8c1.7,1,3.1,3.3,3.1,5.3c0,1.9-1.4,2.7-3.1,1.8
		C633.5,529.6,632.1,527.3,632.1,525.3z"/>
	<path fill="#8CD1EA" d="M644.1,532.3c0-1.9,1.4-2.7,3.1-1.8s3.1,3.3,3.1,5.3c0,1.9-1.4,2.7-3.1,1.8S644.1,534.2,644.1,532.3z"/>
	<path fill="#8CD1EA" d="M656.2,539.3c0-1.9,1.4-2.7,3.1-1.8c1.7,1,3.1,3.3,3.1,5.3c0,1.9-1.4,2.7-3.1,1.8
		C657.6,543.6,656.2,541.2,656.2,539.3z"/>
	<path fill="#8CD1EA" d="M668.3,546.3c0-1.9,1.4-2.7,3.1-1.8c1.7,1,3.1,3.3,3.1,5.3c0,1.9-1.4,2.7-3.1,1.8
		C669.7,550.6,668.3,548.2,668.3,546.3z"/>
	<path fill="#8CD1EA" d="M680.3,553.3c0-1.9,1.4-2.7,3.1-1.8c1.7,1,3.1,3.3,3.1,5.3c0,1.9-1.4,2.7-3.1,1.8
		C681.7,557.5,680.3,555.2,680.3,553.3z"/>
	<path fill="#8CD1EA" d="M692.4,560.2c0-1.9,1.4-2.7,3.1-1.8c1.7,1,3.1,3.3,3.1,5.3c0,1.9-1.4,2.7-3.1,1.8
		C693.8,564.5,692.4,562.2,692.4,560.2z"/>
	<path fill="#38BBE0" d="M702.7,559.6l-86.9-50.3v1.6v1.2l86.9,49.3l0.4,0.5c1.9,2.6,1.7,6.3-0.6,8.6l-86.7-50.6v2l86.9,50.5
		C707.6,569.6,707.7,562.4,702.7,559.6z"/>
	<line fill="#8CD1EA" x1="625.7" y1="514.3" x2="661.1" y2="494.4"/>
	<g>
		<defs>
			<polygon id="SVGID_11_" points="615.7,509.5 615.7,468.5 737.1,538.7 701.4,559.2 			"/>
		</defs>
		<clipPath id="SVGID_12_">
			<use xlink:href="#SVGID_11_"  overflow="visible"/>
		</clipPath>
		<g clip-path="url(#SVGID_12_)">
			
				<line fill="#ADADAD" stroke="#ADADAD" stroke-width="2" stroke-linecap="round" stroke-miterlimit="10" x1="628.3" y1="516.9" x2="664.2" y2="496.4"/>
			
				<line fill="#ADADAD" stroke="#ADADAD" stroke-width="2" stroke-linecap="round" stroke-miterlimit="10" x1="645.7" y1="527.2" x2="681.7" y2="506.6"/>
			
				<line fill="#ADADAD" stroke="#ADADAD" stroke-width="2" stroke-linecap="round" stroke-miterlimit="10" x1="663.2" y1="537.4" x2="699.1" y2="516.9"/>
			
				<line fill="#ADADAD" stroke="#ADADAD" stroke-width="2" stroke-linecap="round" stroke-miterlimit="10" x1="680.6" y1="547.7" x2="716.5" y2="527.1"/>
			
				<line fill="#ADADAD" stroke="#ADADAD" stroke-width="2" stroke-linecap="round" stroke-miterlimit="10" x1="698.1" y1="557.9" x2="734" y2="537.4"/>
			
				<line fill="#BDBBBB" stroke="#ADADAD" stroke-width="2" stroke-linecap="round" stroke-miterlimit="10" x1="610.9" y1="506.7" x2="646.8" y2="486.1"/>
			
				<line fill="#BDBBBB" stroke="#ADADAD" stroke-width="2" stroke-linecap="round" stroke-miterlimit="10" x1="592.9" y1="495.1" x2="628.8" y2="474.5"/>
		</g>
	</g>
	<polygon fill="#E9506A" points="615.7,523.2 615.7,529.8 694.2,574.8 694.2,568.5 	"/>
	<polygon fill="#EB6982" points="659.3,507.3 686.5,491.7 719.9,511.4 693.2,527.1 	"/>
	<polygon fill="#F094AA" points="686.5,491.7 686.5,518.9 659.3,534.7 659.3,507.3 	"/>
	<polygon fill="#E9506A" points="682.8,520.9 686.5,518.9 719.9,538 693.2,554.1 659.3,534.7 	"/>
	<polygon fill="#F8B62D" points="659.3,507.3 659.3,534.7 693.2,554.1 693.2,527.1 	"/>
	<polygon fill="#F39800" points="719.9,511.4 719.9,538 693.2,554.1 693.2,527.1 	"/>
	<g>
		<path fill="#E9506A" d="M512.2,395.1c-4.9-2.8-8.9-0.5-8.9,5.2v65.6c0,5.6,4,12.5,8.9,15.2l53.6,30.4c4.9,2.8,8.9,0.4,8.9-5.2V441
			c0-5.6-4-12.5-8.9-15.3L512.2,395.1z"/>
	</g>
	<path opacity="0.27" fill="#259EBB" d="M467.6,389.3c-0.6,0.4-1.1,1.1-1.4,2c0,0,0,0,0,0C466.6,390.5,467,389.8,467.6,389.3z"/>
	<g>
		<path fill="#F39800" d="M569.2,488.3l-60.1-34.4l-12.4,6.9c-0.3,0.1-0.5,0.3-0.7,0.5l-1.4-0.6v3.4l0,0c-0.1,1.5,0.6,3,2,3.8
			l53.2,30.3c2.8,1.6,6.3,1.6,9.1-0.1l13.4-8v-3.7L569.2,488.3z"/>
		<path fill="#F8B62D" d="M509.1,450.2l-12.4,6.9c-2.8,1.5-2.8,5.5,0,7.1l53.2,30.3c2.8,1.6,6.3,1.6,9.1-0.1l13.4-8L509.1,450.2z"/>
	</g>
	<g>
		<circle fill="#E0D7C4" cx="514.8" cy="444.1" r="16.1"/>
		<circle opacity="0.36" fill="#44778C" cx="520" cy="435.7" r="3.9"/>
		<g>
			<defs>
				<circle id="SVGID_13_" cx="514.8" cy="444.1" r="16.1"/>
			</defs>
			<clipPath id="SVGID_14_">
				<use xlink:href="#SVGID_13_"  overflow="visible"/>
			</clipPath>
			<circle opacity="0.36" clip-path="url(#SVGID_14_)" fill="#44778C" cx="501.8" cy="435.7" r="5.5"/>
			<circle opacity="0.36" clip-path="url(#SVGID_14_)" fill="#44778C" cx="529.6" cy="450.7" r="5.9"/>
		</g>
		<circle opacity="0.36" fill="#44778C" cx="525.9" cy="439.7" r="1.2"/>
		<circle opacity="0.36" fill="#44778C" cx="521.9" cy="441" r="0.6"/>
		<circle opacity="0.36" fill="#44778C" cx="518.6" cy="455.2" r="2.5"/>
		<circle opacity="0.36" fill="#44778C" cx="512.8" cy="456.9" r="1.2"/>
		<circle opacity="0.36" fill="#44778C" cx="507.6" cy="454.3" r="0.6"/>
		<circle opacity="0.36" fill="#44778C" cx="508.5" cy="440.4" r="1.2"/>
	</g>
	<g>
		<path fill="#F7F8F8" d="M533.7,435.8l-3.9,3.7c-2.3,2.2-3.6,5.3-3.6,8.5v18.6c0,2.2,1.2,4.2,3.1,5.3v0c3.9,2.2,8.8,2.2,12.7-0.2h0
			c2-1.2,3.2-3.3,3.2-5.6v-17.8c0-3.4-1.4-6.7-3.8-9.1l-3.5-3.4H533.7z"/>
		<g>
			<path fill="#38BBE0" d="M531,433.4v3c0,0.5,0.2,1.1,0.6,1.5c0.8,0.9,2.3,1.5,4,1.5c2.6,0,4.7-1.3,4.7-3v-3H531z"/>
			<ellipse fill="#C5E6F3" cx="535.6" cy="433.4" rx="4.7" ry="3"/>
		</g>
		<path fill="#8CD1EA" d="M526.2,449.8l1,0.8c5,4,11.2,4,16.3,0.2l1.7-1.3V461c0,0.5-0.2,0.9-0.5,1.1l0,0
			c-5.3,4.2-12.5,4.2-17.8,0.1l0,0c-0.3-0.3-0.5-0.7-0.5-1.1V449.8z"/>
	</g>
	<g>
		<g>
			<path fill="#115463" d="M548.4,437.7c1.1-1.3,3-1.5,4.2-0.5c0.5,0.4,0.8,1,0.9,1.6c-0.6,0.2-1.2,0.5-1.7,1
				c-0.6,0.8-0.9,1.7-0.7,2.6c-0.9,0.2-1.8,0-2.5-0.6C547.4,440.9,547.3,439,548.4,437.7z"/>
			<path fill="#1F6276" d="M547.3,437.7c1.1-1.3,3-1.5,4.2-0.5c0.6,0.5,0.9,1.2,1,1.9c-0.6,0.2-1.2,0.5-1.6,1
				c-0.6,0.7-0.8,1.5-0.7,2.3c-0.9,0.2-1.8,0.1-2.6-0.5C546.3,440.9,546.2,439,547.3,437.7z"/>
		</g>
		<path fill="#115463" d="M540.8,464.4c1.1-1.7,3.6-4.7,4.1-7c0.4-1.8,0.8-3.7,1-4.4c0-0.1,0-0.1,0-0.2c0.1-0.8,0.7-1.4,1.4-1.4
			c0.6,0,1,0.5,1.1,1.1c0,0.1,0.1,0.3,0,0.4c0,0,0,0,0,0c0,0,0,0,0,0c0,0,0,0,0,0c-0.1,2.3-0.7,9.3-2.3,11.6
			c-1.9,2.8-5.3,2.1-5.4,2.1c0,0,0,0,0,0C540.8,466.7,539.7,466.1,540.8,464.4z"/>
		<path fill="#115463" d="M550.1,481.8L550.1,481.8c-0.8,0-1.4-0.6-1.4-1.4v-7.1c0-0.8,0.6-1.4,1.4-1.4l0,0c0.8,0,1.4,0.6,1.4,1.4
			v7.1C551.5,481.1,550.8,481.8,550.1,481.8z"/>
		<path fill="#115463" d="M559.2,485.7L559.2,485.7c-0.8,0-1.4-0.6-1.4-1.4v-8.8c0-0.8,0.6-1.4,1.4-1.4l0,0c0.8,0,1.4,0.6,1.4,1.4
			v8.8C560.7,485.1,560,485.7,559.2,485.7z"/>
		<path fill="#44778C" d="M560.9,439.6c-4-2.1-6.7-2.5-9.6-1.1c-2.7,1.3-3.5,2.6-3.9,3.6l-0.4,2.6l-1.8,18v7.4
			c0,2.6,1.4,4.9,3.6,6.2c4.6,2.6,10.3,2.6,14.9-0.2v0c2.3-1.4,3.7-3.9,3.7-6.6V463l-1.5-14.5l-0.3-3.6
			C565.5,444.6,563.6,441,560.9,439.6z"/>
		<g>
			<path fill="#B5B5B6" d="M554.3,449.1l-0.9-0.9c-0.9-0.9-2-1.4-3.3-1.4h-1.5l-2.5,2.1c0.3,0.4,0.2,0.4,0.4,0.9
				c1.1,0.4,2.1,1.1,2.8,2l0.3,0.4c0.5,0.6,0.7,1.4,0.7,2.2l0.8,0.6c0.4,0.3-0.8,0.9-0.6,1.3l3.4-0.8c0,0,1.1-0.4,1.2-1.1
				c0.1-0.3,0.3-1.3,0.3-2.1C555.5,450.9,555.1,449.9,554.3,449.1z"/>
		</g>
		<g>
			<path fill="#DCDDDD" d="M546.1,448.8l-0.2,3.8c0,0.9,0.5,1.8,1.3,2.3l1.9,1.2c1.4,0.5,2.7-0.4,2.7-1.3v-2.6l-1.2-1.6
				c-0.7-1-1.8-1.6-3-1.9L546.1,448.8z"/>
			<path fill="#44778C" d="M547.4,448.8l0.2,1.7l0.3,0.4l0.5-0.1l1.9-0.7C550.3,450.2,549,448.7,547.4,448.8z"/>
			
				<line fill="none" stroke="#44778C" stroke-width="0.3642" stroke-linecap="round" stroke-miterlimit="10" x1="548.4" y1="450.8" x2="548.4" y2="453.3"/>
			<path fill="none" stroke="#44778C" stroke-width="0.3642" stroke-linecap="round" stroke-miterlimit="10" d="M547,452
				c0,0,0.6,2.5,3.7,1.3"/>
		</g>
		<g>
			<path fill="#115463" d="M567.4,441.9c-0.9-1.9-3-2.7-4.8-1.9c-0.7,0.3-1.3,0.9-1.6,1.6c0.7,0.4,1.3,1,1.7,1.8
				c0.5,1.1,0.5,2.3,0,3.3c1,0.5,2.1,0.6,3.2,0.1C567.5,446,568.3,443.8,567.4,441.9z"/>
			<path fill="#1F6276" d="M566.1,442.6c-0.9-1.9-3-2.7-4.8-1.9c-0.9,0.4-1.5,1.1-1.8,2c0.7,0.4,1.2,1,1.6,1.7c0.5,1,0.5,2,0.1,2.9
				c1,0.6,2.2,0.7,3.2,0.2C566.2,446.7,566.9,444.5,566.1,442.6z"/>
		</g>
		<ellipse fill="#F7F8F8" cx="548.9" cy="445.6" rx="0.6" ry="0.8"/>
		<ellipse fill="#F7F8F8" cx="555.5" cy="448.4" rx="0.6" ry="0.8"/>
		<path fill="#B5B5B6" d="M549.1,449.3c0,0,2.5,1.1,2.7,4s-1.2,2.8-1.2,2.8l2.9-1v-4.4l-1.7-1c0,0-1.9-0.4-2-0.5
			C549.6,449.2,549.1,449.3,549.1,449.3z"/>
		<path fill="#115463" d="M569.1,470.9c-1.1-1.7-3.6-4.7-4.1-7c-0.4-1.8-0.8-3.7-1-4.4c0-0.1,0-0.1,0-0.2c-0.1-0.8-0.7-1.4-1.4-1.4
			c-0.6,0-1,0.5-1.1,1.1c0,0.1-0.1,0.3,0,0.4c0,0,0,0,0,0c0,0,0,0,0,0c0,0,0,0,0,0c0.1,2.3,0.7,9.3,2.3,11.6
			c1.9,2.8,5.3,2.1,5.4,2.1c0,0,0,0,0,0C569.1,473.2,570.2,472.6,569.1,470.9z"/>
	</g>
	<g>
		<g opacity="0.29">
			<path fill="#38BBE0" d="M492.9,405.3c-4.9-2.8-8.9-0.5-8.9,5.2V476c0,5.6,4,12.5,8.9,15.2l53.6,30.4c4.9,2.8,8.9,0.4,8.9-5.2
				v-65.3c0-5.6-4-12.5-8.9-15.3L492.9,405.3z"/>
		</g>
		<path opacity="0.42" fill="#8CD1EA" d="M574.7,444.4c0,0,0.5-4.7-1.1-9.4c-1.6-4.7-5.1-8-6.2-8.7c-1.1-0.8-49.3-28.3-49.3-28.3
			l-5.9-3.4c-2.6-1.5-4.9-1.5-6.5-0.4l0,0l-18.2,10.3l0,0c1.5-0.5,3.4-0.2,5.4,0.9l6.1,3.5l47.6,27.1c2.6,1.5,4.9,4,6.5,7
			c0.1,0.2,0.2,0.4,0.3,0.6c0,0,0,0,0,0.1c0.1,0.2,0.2,0.4,0.3,0.6c0,0,0,0.1,0,0.1c1,2.3,1.7,4.7,1.7,6.9v0.9c0.1,1.2,0,1.9,0,1.9
			v62.5c0,0.3,0,0.6,0,0.8c0,0.1,0,0.2,0,0.3c0,0.1,0,0.3-0.1,0.4c-0.5,2.8-2.1,3.9-2.1,3.9s17.4-9,19.6-11c2.2-2,1.9-5.2,1.9-5.2
			V444.4z"/>
		<path opacity="0.36" fill="#F7F8F8" d="M573.9,436.1l-19.1,11c0.4,1.4,0.6,2.8,0.6,4.1v0.9c0.1,1.2,0,1.9,0,1.9v62.5
			c0,0.3,0,0.6,0,0.8c0,0.1,0,0.2,0,0.3c0,0.1,0,0.3-0.1,0.4c-0.5,2.8-2.1,3.9-2.1,3.9s17.4-9,19.6-11c2.2-2,1.9-5.2,1.9-5.2v-61.3
			C574.7,444.4,575.1,440.4,573.9,436.1z"/>
	</g>
	<g>
		<path fill="#8CD1EA" d="M599.9,379.6c0-0.1,0-0.2,0-0.3v-47.5l-38,0.3v47.5l0,0c0,0.4,0.3,0.9,0.9,1.2l16,9.1
			c1.2,0.7,3.1,0.7,4.3,0l16-9.2C599.5,380.4,599.8,380,599.9,379.6L599.9,379.6L599.9,379.6z"/>
		<g>
			<defs>
				<path id="SVGID_15_" d="M599.9,379.6c0-0.1,0-0.2,0-0.3v-65l-38,0.3v65l0,0c0,0.4,0.3,0.9,0.9,1.2l16,9.1c1.2,0.7,3.1,0.7,4.3,0
					l16-9.2C599.5,380.4,599.8,380,599.9,379.6L599.9,379.6L599.9,379.6z"/>
			</defs>
			<clipPath id="SVGID_16_">
				<use xlink:href="#SVGID_15_"  overflow="visible"/>
			</clipPath>
			<polygon clip-path="url(#SVGID_16_)" fill="#259EBB" points="580.9,341.4 580.9,395.1 618.8,380.6 614.7,338 612.1,325.7 
				603.6,329.4 			"/>
		</g>
		<path fill="#C5E6F3" d="M583,321.7c-1.2-0.7-3.1-0.7-4.3,0l-16,9.1c-1.2,0.7-1.2,1.8,0,2.4l16,9.1c1.2,0.7,3.1,0.7,4.3,0l16-9.2
			c1.2-0.7,1.2-1.8,0-2.4L583,321.7z"/>
		<path fill="#259EBB" d="M582.5,324.4c-0.9-0.5-2.3-0.5-3.1,0l-11.8,6.7c-0.9,0.5-0.9,1.3,0,1.8l11.8,6.7c0.9,0.5,2.3,0.5,3.1,0
			l11.8-6.8c0.9-0.5,0.9-1.3,0-1.8L582.5,324.4z"/>
	</g>
	<g>
		<path fill="#259EBB" d="M617.3,272.6c0-11.6,4.9-18.9,12-20.2c3.6-0.6,7.7,0.2,12.1,2.8c13.3,7.7,24.1,28.1,24.1,45.3
			c0,17.2-10.8,25.1-24.1,17.4C628.1,310.2,617.3,289.8,617.3,272.6z"/>
		<path fill="#38BBE0" d="M615.5,274c0-5.7,1.2-10.4,3.3-13.8c2.1-3.4,5.1-5.5,8.6-6.2c3.5-0.6,7.6,0.2,11.9,2.7
			c13.1,7.6,23.8,27.7,23.8,44.7s-10.7,24.8-23.8,17.2C626.2,311.3,615.5,291.1,615.5,274z"/>
		<path fill="#38BBE0" d="M616.5,268.5c0,0-4.1,11.2-8.1,14.5c-7.6,6.2-22.6,17.3-22.6,17.3v21.3l39.7-5.8l20.9,8.5l3.7-39.6
			l-27.8-16.2H616.5z"/>
	</g>
	<g>
		<path fill="#38BBE0" d="M605.7,323.1l-9.1-15.4l14.5-4.3l0,0.1c0.7-0.1,1.5,0,2.3,0.5c2.5,1.4,4.5,5.2,4.5,8.4
			c0,1.7-0.6,2.9-1.4,3.4l0,0L605.7,323.1z"/>
		<path fill="#38BBE0" d="M559.7,313.9l40-11.9l0,0.1c1.3-0.3,2.8,0,4.4,0.9c4.7,2.7,8.6,10,8.6,16.2c0,3.2-1.1,5.5-2.7,6.6l0,0
			l-34,23l-9.6,21l-32.5-60.8L559.7,313.9z"/>
		<path fill="#44778C" d="M513.2,332.5c0-18.3,11.5-26.6,25.5-18.4s25.5,29.7,25.5,47.8c0,18.2-11.5,26.5-25.5,18.4
			C524.6,372.3,513.2,350.8,513.2,332.5z"/>
		<g>
			
				<linearGradient id="SVGID_17_" gradientUnits="userSpaceOnUse" x1="608.8444" y1="338.1205" x2="649.8217" y2="338.1205" gradientTransform="matrix(-1 0 0 1 1183.8285 0)">
				<stop  offset="0" style="stop-color:#C5E6F3;stop-opacity:0.3"/>
				<stop  offset="1" style="stop-color:#38BBE0"/>
			</linearGradient>
			<path fill="url(#SVGID_17_)" d="M575,340.7c-0.5,0.1-30.1,13.2-30.6,13.1l-3,1.5l-1-2.4c-2.8-2.9-4.9-7.5-5-11.6l-1.3-3
				l31.9-17.5"/>
			<path fill="#38BBE0" d="M571.6,320.7c4,2.3,7.4,8.6,7.4,13.8c0,3.4-1.4,5.6-3.5,6.1"/>
			<path fill="#8CD1EA" d="M532.1,343.1c0-4.4,2.8-6.4,6.1-4.4c3.4,2,6.1,7.1,6.1,11.5s-2.8,6.4-6.1,4.4
				C534.8,352.7,532.1,347.5,532.1,343.1z"/>
		</g>
		<polygon fill="#38BBE0" points="573.3,318.2 549.6,319.9 551.5,327 565.3,347.3 567,351.9 573.6,344.8 582.1,335.1 579.2,322.3 		
			"/>
		<path fill="#38BBE0" d="M530.1,304.9c-11.5-1.9-20,7.3-20,23.9c0,20.5,12.8,44.6,28.5,53.6c15.7,9,28.5-0.3,28.5-20.6
			c0-20.4-12.8-44.5-28.5-53.6C535.6,306.4,532.8,305.3,530.1,304.9z M514,331c0-17.7,11.1-25.7,24.7-17.9
			c13.6,7.9,24.7,28.7,24.7,46.3c0,17.6-11.1,25.6-24.7,17.9C525,369.5,514,348.7,514,331z"/>
		<path fill="#8CD1EA" d="M507.3,330.7c0,20.5,12.8,44.6,28.5,53.6c15.7,9,28.5-0.3,28.5-20.6c0-20.4-12.8-44.5-28.5-53.6
			C520.2,300.9,507.3,310.2,507.3,330.7z M511.2,332.9c0-17.7,11.1-25.7,24.7-17.9c13.6,7.9,24.7,28.7,24.7,46.3
			c0,17.6-11.1,25.6-24.7,17.9C522.3,371.4,511.2,350.6,511.2,332.9z"/>
	</g>
	<g>
		<g>
			<path fill="#38BBE0" d="M547.8,295.5l11.9-20.2l-19-5.7l0,0.1c-0.9-0.2-1.9,0-3,0.6c-3.2,1.9-5.9,6.9-5.9,11.1
				c0,2.2,0.7,3.8,1.9,4.5l0,0L547.8,295.5z"/>
			<path fill="#8CD1EA" d="M608.3,283.4l-52.5-15.6l-0.1,0.1c-1.7-0.4-3.7,0-5.8,1.2c-6.2,3.6-11.3,13.2-11.3,21.3
				c0,4.2,1.4,7.2,3.6,8.6l0,0l44.7,30.2l12.7,27.6l42.7-79.8L608.3,283.4z"/>
			<path fill="#44778C" d="M669.5,307.9c0-24-15.1-34.9-33.5-24.2c-18.4,10.7-33.5,39-33.5,62.9c0,23.9,15.1,34.8,33.5,24.2
				C654.4,360.2,669.5,331.9,669.5,307.9z"/>
			<g>
				<linearGradient id="SVGID_18_" gradientUnits="userSpaceOnUse" x1="588.2477" y1="315.2474" x2="642.0939" y2="315.2474">
					<stop  offset="0" style="stop-color:#C5E6F3;stop-opacity:0.3"/>
					<stop  offset="1" style="stop-color:#38BBE0"/>
				</linearGradient>
				<path fill="url(#SVGID_18_)" d="M588.2,318.7c0.6,0.1,39.6,17.4,40.3,17.2l4,2l1.4-3.2c3.7-3.8,6.4-9.8,6.5-15.2l1.7-3.9
					l-41.9-23"/>
				<path fill="#38BBE0" d="M592.8,292.4c-5.3,3.1-9.7,11.3-9.7,18.2c0,4.5,1.9,7.4,4.6,8"/>
				<path fill="#8CD1EA" d="M644.6,321.7c0-5.8-3.6-8.4-8.1-5.8s-8.1,9.4-8.1,15.2c0,5.8,3.6,8.4,8.1,5.8S644.6,327.5,644.6,321.7z"
					/>
			</g>
			<polygon fill="#8CD1EA" points="590.4,289 621.6,291.3 619.1,300.6 601,327.3 598.7,333.4 590,324 578.9,311.2 582.8,294.5 			
				"/>
			<path fill="#38BBE0" d="M636,275.9c-20.6,12-37.5,43.6-37.5,70.4c0,26.8,16.9,39,37.5,27.1c20.6-11.8,37.5-43.5,37.5-70.4
				c0-21.8-11.1-33.9-26.2-31.4C643.7,272.2,640,273.6,636,275.9z M636,366.8c-17.8,10.2-32.4-0.3-32.4-23.5
				c0-23.1,14.6-50.5,32.4-60.9c17.8-10.3,32.4,0.2,32.4,23.5S653.9,356.5,636,366.8z"/>
			<path fill="#8CD1EA" d="M639.7,278.3c-20.6,12-37.5,43.6-37.5,70.4c0,26.8,16.9,39,37.5,27.1c20.6-11.8,37.5-43.5,37.5-70.4
				S660.3,266.4,639.7,278.3z M639.7,369.2c-17.8,10.2-32.4-0.3-32.4-23.5s14.6-50.5,32.4-60.9c17.8-10.3,32.4,0.2,32.4,23.5
				S657.5,359,639.7,369.2z"/>
		</g>
		
			<line opacity="0.6" fill="none" stroke="#FFFFFF" stroke-width="2.7327" stroke-linecap="round" stroke-miterlimit="10" x1="557.6" y1="271.9" x2="582" y2="279.8"/>
		<circle fill="#FFFFFF" cx="588.1" cy="281.6" r="1.6"/>
	</g>
	<g>
		<path fill="#38BBE0" d="M596.5,282.3c-0.1-0.3-0.6-12.4-1-16.8c-0.1-1.5-0.2-3-0.1-4.5l0-0.2l-2.4,0.1c-3.4-1.2-8-1.1-11.4,0.4
			l-2.9,0.1l-1.9,21.2l0,0c-0.1,1.3,0.6,2.6,2.2,3.6c3.4,2.3,9.7,2.6,13.9,0.6C595.3,285.7,596.5,284,596.5,282.3L596.5,282.3z"/>
		<g>
			<path fill="#C5E6F3" d="M581.7,258c-3.6,1.7-4.2,4.7-1.2,6.7c2.9,2,8.2,2.2,11.8,0.5c3.6-1.7,4.1-4.7,1.2-6.7
				C590.6,256.6,585.3,256.3,581.7,258z"/>
		</g>
	</g>
	
		<line fill="#E94E6C" stroke="#FCE4C9" stroke-width="3" stroke-linecap="round" stroke-miterlimit="10" x1="590.2" y1="220.9" x2="607" y2="230.7"/>
	<g>
		<g>
			<g>
				<path fill="#A53453" d="M591.7,262.3c-1.3,0-2.4-1.2-2.4-2.7v-14.1c0-1.5,1.1-2.7,2.4-2.7s2.4,1.2,2.4,2.7v14.1
					C594.1,261.1,593,262.3,591.7,262.3z"/>
				<g>
					<defs>
						<path id="SVGID_19_" d="M591.7,262.3c-1.3,0-2.4-1.2-2.4-2.7v-14.1c0-1.5,1.1-2.7,2.4-2.7s2.4,1.2,2.4,2.7v14.1
							C594.1,261.1,593,262.3,591.7,262.3z"/>
					</defs>
					<clipPath id="SVGID_20_">
						<use xlink:href="#SVGID_19_"  overflow="visible"/>
					</clipPath>
					<path clip-path="url(#SVGID_20_)" fill="#FCE4C9" d="M586.8,256.7c0,0,3.1,4.9,7.9,1.1c4.8-3.8-0.8,10.2-0.8,10.2l-6.1-1.2
						l-0.9-9.1V256.7z"/>
				</g>
			</g>
			<path fill="#E94E6C" d="M588.2,251.1h-1.1c-5.3,0-9.7-4.7-9.7-10.5v-3.7v-8.5c0-5.8,4.4-10.5,9.7-10.5h1.1
				c5.3,0,9.7,4.7,9.7,10.5v12.2C597.9,246.4,593.5,251.1,588.2,251.1z"/>
			<g>
				<defs>
					<path id="SVGID_21_" d="M588.3,250.7h-1.1c-5.3,0-9.7-4.7-9.7-10.5v-3.7V228c0-5.8,4.4-10.5,9.7-10.5h1.1
						c5.3,0,9.7,4.7,9.7,10.5v12.2C598,245.9,593.6,250.7,588.3,250.7z"/>
				</defs>
				<clipPath id="SVGID_22_">
					<use xlink:href="#SVGID_21_"  overflow="visible"/>
				</clipPath>
				<path clip-path="url(#SVGID_22_)" fill="#A53453" d="M597.4,237.4l1.9-1.2l2,10.1l-7.3,5.8l-12.1,3.1l-6.2-3.1l-1.5-11.3
					l1.5-5.2l2.4,1.6C584.1,241,591.5,241.1,597.4,237.4z"/>
			</g>
			<path fill="#FCE4C9" d="M594.1,213.3c0,3.5-2.9,6.4-6.4,6.4s-6.4-2.9-6.4-6.4c0-0.9,0.2-1.7,0.5-2.4c1-2.3,3.2-4,5.9-4
				C591.2,206.9,594.1,209.7,594.1,213.3z"/>
			<g>
				
					<polyline fill="none" stroke="#FCE4C9" stroke-width="3" stroke-linecap="round" stroke-linejoin="round" stroke-miterlimit="10" points="
					579.7,227 579.4,236.1 586.5,240.2 				"/>
			</g>
			<circle fill="#E94E6C" cx="580.1" cy="227" r="2.6"/>
			<g>
				<path fill="#A53453" d="M585.3,266.7c-1.3,0-2.4-1.2-2.4-2.7v-14.1c0-1.5,1.1-2.7,2.4-2.7c1.3,0,2.4,1.2,2.4,2.7v14.1
					C587.7,265.4,586.6,266.7,585.3,266.7z"/>
				<g>
					<defs>
						<path id="SVGID_23_" d="M585.3,266.7c-1.3,0-2.4-1.2-2.4-2.7v-14.1c0-1.5,1.1-2.7,2.4-2.7c1.3,0,2.4,1.2,2.4,2.7v14.1
							C587.7,265.4,586.6,266.7,585.3,266.7z"/>
					</defs>
					<clipPath id="SVGID_24_">
						<use xlink:href="#SVGID_23_"  overflow="visible"/>
					</clipPath>
					<path clip-path="url(#SVGID_24_)" fill="#FCE4C9" d="M581.5,260.8c0,0,3.1,4.9,7.9,1.1s-0.8,10.2-0.8,10.2l-6.1-1.2l-0.9-9.1
						V260.8z"/>
				</g>
			</g>
		</g>
	</g>
	<path fill="#BB324B" d="M585.2,210.7l1.2,0.6c1.4,0.9,4.8,1.9,7.7,1.9l0,0c0,0-0.2-4.7-3.7-6.4c-3.4-1.7-6.7,1.1-6.7,1.1
		s-2.4,1-2.7,4.6c0,0.4,0.1,1.3,0.2,1.8c1.2,2.7,1.1,1.8,1.1,1.8l0.4-1.2c0.5-1.8,0.7-2.9,0.9-3.7l0.2-1.4
		C583.8,209.9,585.2,210.7,585.2,210.7z"/>
	<path fill="#F8B62D" d="M683.1,314.8c2.1-0.9,4.2-1.7,6.4-2.5c1.1-0.4,2.1-0.8,3.2-1.2l3.2-1.1c2.1-0.7,4.3-1.4,6.5-2.1
		c1.1-0.4,2.2-0.7,3.2-1l3.2-1l2.2-0.6l0.2,2.4c0.2,2.2,0.3,4.3,0.4,6.5c0.1,2.2,0.2,4.3,0.3,6.5l-2.6-1.8c2.8-0.9,5.5-1.8,8.3-2.7
		l4.2-1.3c1.4-0.4,2.8-0.8,4.2-1.2c1.4-0.4,2.8-0.8,4.2-1.2c1.4-0.4,2.8-0.8,4.2-1.1c2.8-0.7,5.7-1.4,8.5-1.9
		c-2.6,1.3-5.3,2.5-7.9,3.7c-1.3,0.6-2.7,1.1-4,1.7c-1.3,0.6-2.7,1.1-4,1.6c-1.4,0.5-2.7,1.1-4.1,1.6l-4.1,1.5c-2.7,1-5.5,2-8.2,2.9
		l-2.5,0.9l-0.1-2.7c-0.1-2.2-0.2-4.3-0.2-6.5c-0.1-2.2-0.1-4.3-0.1-6.5l2.3,1.7l-3.3,0.8c-1.1,0.3-2.2,0.5-3.3,0.8
		c-2.2,0.5-4.4,1-6.6,1.4l-3.3,0.7c-1.1,0.2-2.2,0.4-3.4,0.6C687.6,314.2,685.3,314.6,683.1,314.8z"/>
	<path fill="#F8B62D" d="M666.6,360.8c2.7,1.6,5.3,3.3,7.8,5c1.3,0.9,2.5,1.8,3.8,2.7c1.3,0.9,2.5,1.8,3.8,2.7l1.2,0.9l-1.2,1.1
		c-1.1,1-2.3,1.9-3.4,2.9c-1.1,1-2.3,1.9-3.4,2.8l-0.1-2.2c1.6,1.1,3.3,2.2,4.9,3.4c1.6,1.2,3.2,2.3,4.8,3.5
		c0.8,0.6,1.6,1.2,2.4,1.8c0.8,0.6,1.6,1.2,2.3,1.9c1.5,1.3,3.1,2.5,4.6,3.9c-1.8-0.9-3.5-1.9-5.3-2.8c-0.9-0.5-1.7-1-2.6-1.5
		c-0.9-0.5-1.7-1-2.6-1.5c-1.7-1-3.4-2.1-5.1-3.2c-1.7-1.1-3.3-2.2-5-3.3l-1.5-1l1.4-1.2c1.1-1,2.3-1.9,3.5-2.8
		c1.2-0.9,2.3-1.9,3.5-2.8l0,2c-1.2-1-2.4-2-3.6-3c-1.2-1-2.4-2-3.5-3C671.1,365.1,668.8,363,666.6,360.8z"/>
	<path fill="#F8B62D" d="M677.6,344.2c2.3-0.2,4.5-0.2,6.8-0.3c1.1,0,2.3,0,3.4,0l3.4,0c2.3,0,4.5,0.1,6.8,0.2
		c2.3,0.1,4.5,0.2,6.8,0.4l2.7,0.2l-0.8,2.8c-0.5,2-1.1,3.9-1.7,5.9c-0.6,2-1.2,3.9-1.8,5.9l-2.2-3.1c2.9,0.1,5.8,0.3,8.6,0.5
		c2.9,0.2,5.8,0.4,8.6,0.7c1.4,0.1,2.9,0.3,4.3,0.5c1.4,0.2,2.9,0.3,4.3,0.5c1.4,0.2,2.9,0.4,4.3,0.6c1.4,0.2,2.9,0.5,4.3,0.8
		c-1.5,0.2-2.9,0.4-4.3,0.5c-1.4,0.2-2.9,0.2-4.3,0.4c-1.4,0.1-2.9,0.2-4.3,0.2c-1.4,0.1-2.9,0.1-4.3,0.2c-2.9,0.1-5.8,0.1-8.7,0.1
		c-2.9,0-5.8,0-8.7-0.1l-3.1-0.1l0.9-3c0.6-2,1.2-3.9,1.8-5.9c0.6-1.9,1.3-3.9,2-5.8l2,2.9c-2.2-0.3-4.5-0.6-6.7-0.9
		c-2.2-0.3-4.5-0.7-6.7-1.1l-3.3-0.6c-1.1-0.2-2.2-0.4-3.3-0.7C682,345.3,679.8,344.8,677.6,344.2z"/>
	<g>
		<path fill="#E9506A" d="M524.1,522.2c-0.2-5.4-3.9-11.8-8.3-14.3c-2-1.1-3.8-1.3-5.2-0.7l0,0l-4.4,1.9l1.5,3c0,0.2,0,0.5,0,0.7
			c0,4.8,3.2,10.7,7.4,13.7l1.8,3.5l4.3-2l0,0C523.1,527.2,524.2,525.2,524.1,522.2z"/>
		<path fill="#EB6982" d="M503.6,514.6c0-5.3,3.7-7.5,8.1-5c4.5,2.5,8.3,9,8.4,14.4c0.2,5.4-3.5,7.6-8.1,5
			C507.4,526.4,503.6,519.9,503.6,514.6z"/>
		<path fill="#E9506A" d="M510.2,508.8l2.4,1.2l-2.4,18.1l0.2,2c-0.8,0.5-3.6-1.1-3.6-2v-15.6c0-1,0.5-1.9,1.4-2.5L510.2,508.8z"/>
		<path fill="#C63755" d="M512.6,510v19.3l-1.6,1c-0.8,0.5-1.8-0.1-1.8-1v-15.6c0-1,0.5-1.9,1.4-2.5L512.6,510z"/>
	</g>
	<g>
		<path fill="#E9506A" d="M548.3,534.6c-0.2-5.4-3.9-11.8-8.3-14.3c-2-1.1-3.8-1.3-5.2-0.7l0,0l-4.4,1.9l1.5,3c0,0.2,0,0.5,0,0.7
			c0,4.8,3.2,10.7,7.4,13.7l1.8,3.5l4.3-2l0,0C547.2,539.7,548.3,537.7,548.3,534.6z"/>
		<path fill="#EB6982" d="M527.7,527.1c0-5.3,3.7-7.5,8.1-5s8.3,9,8.4,14.4c0.2,5.4-3.5,7.6-8.1,5
			C531.5,538.9,527.7,532.4,527.7,527.1z"/>
		<path fill="#E9506A" d="M534.3,521.3l2.4,1.2l-2.4,18.1l0.2,2c-0.8,0.5-3.6-1.1-3.6-2V525c0-1,0.5-1.9,1.4-2.5L534.3,521.3z"/>
		<path fill="#C63755" d="M536.8,522.5v19.3l-1.6,1c-0.8,0.5-1.8-0.1-1.8-1v-15.6c0-1,0.5-1.9,1.4-2.5L536.8,522.5z"/>
	</g>
	<g>
		<polygon fill="#8CD1EA" points="555.5,540.7 551.2,543.1 559.5,548.1 564.1,545.6 		"/>
		<polygon fill="#C5E6F3" points="551.2,543.1 551.2,553.1 559.4,557.8 559.5,548.1 		"/>
		<polygon fill="#38BBE0" points="559.5,548.1 564.1,545.6 564.1,555.6 559.4,557.8 		"/>
	</g>
	<g>
		<polygon fill="#DC6E8C" points="566.6,547.8 562.4,550.2 570.7,555.2 575.2,552.8 		"/>
		<polygon fill="#ECA7B8" points="562.4,550.2 562.4,560.2 570.5,564.9 570.7,555.2 		"/>
		<polygon fill="#D12659" points="570.7,555.2 575.2,552.8 575.2,562.7 570.5,564.9 		"/>
	</g>
	<g>
		<polygon fill="#DC6E8C" points="556.1,527.2 551.9,529.5 560.2,534.5 564.8,532.1 		"/>
		<polygon fill="#ECA7B8" points="551.9,529.5 551.9,539.5 560.1,544.3 560.2,534.5 		"/>
		<polygon fill="#D12659" points="560.2,534.5 564.8,532.1 564.8,542 560.1,544.3 		"/>
	</g>
	<g>
		<polygon fill="#8CD1EA" points="567.2,533.3 563,535.7 571.3,540.7 575.9,538.3 		"/>
		<polygon fill="#C5E6F3" points="563,535.7 563,545.7 571.2,550.4 571.3,540.7 		"/>
		<polygon fill="#38BBE0" points="571.3,540.7 575.9,538.3 575.9,548.2 571.2,550.4 		"/>
	</g>
	<g opacity="0.61">
		<path fill="#8CD1EA" d="M601.7,447.7L601.7,447.7c-0.5-0.7-0.9-1.7-0.9-3c0-3.8,2.7-8.4,6-10.3c1.9-1.1,3.2-0.9,4.7-0.1l0,0
			l3.6,2.6l-2.7,3.6c-0.9,3-3,6.1-5.5,7.5l-1.7,2.4l-2.6-1.9c-0.1-0.1-0.3-0.2-0.4-0.3L601.7,447.7z"/>
		<path fill="#F7F8F8" d="M616.1,440.1c0-3.8-2.7-5.3-6-3.4s-6,6.5-6,10.3s2.7,5.3,6,3.4S616.1,443.8,616.1,440.1z"/>
	</g>
	<g opacity="0.61">
		<path fill="#8CD1EA" d="M622.7,435.6L622.7,435.6c-0.5-0.7-0.9-1.7-0.9-3c0-3.8,2.7-8.4,6-10.3c1.9-1.1,3.2-0.9,4.7-0.1l0,0
			l3.6,2.6l-2.7,3.6c-0.9,3-3,6.1-5.5,7.5l-1.7,2.4l-2.6-1.9c-0.1-0.1-0.3-0.2-0.4-0.3L622.7,435.6z"/>
		<path fill="#F7F8F8" d="M637.1,428c0-3.8-2.7-5.3-6-3.4c-3.3,1.9-6,6.5-6,10.3c0,3.8,2.7,5.3,6,3.4
			C634.4,436.4,637.1,431.8,637.1,428z"/>
	</g>
	<g opacity="0.61">
		<path fill="#8CD1EA" d="M643.7,423.6L643.7,423.6c-0.5-0.7-0.9-1.7-0.9-3c0-3.8,2.7-8.4,6-10.3c1.9-1.1,3.2-0.9,4.7-0.1l0,0
			l3.6,2.6l-2.7,3.6c-0.9,3-3,6.1-5.5,7.5l-1.7,2.4l-2.6-1.9c-0.1-0.1-0.3-0.2-0.4-0.3L643.7,423.6z"/>
		<path fill="#F7F8F8" d="M658,416c0-3.8-2.7-5.3-6-3.4c-3.3,1.9-6,6.5-6,10.3c0,3.8,2.7,5.3,6,3.4C655.3,424.4,658,419.7,658,416z"
			/>
	</g>
</g>
<g id="圖層_8">
	<g>
		<g>
			<path opacity="0.72" fill="#F19CB5" d="M332.4,146.5l4.6,14.6l2.3,1.3c1.1,0.6,2.4,0.6,3.5-0.1l2.3-1.4l3.9-14.2L332.4,146.5z"/>
			<path fill="#44778C" d="M340.7,157.2c-1.8,0-3.5-0.2-5.1-0.5l1.4,4.5l2.3,1.3c1.1,0.6,2.4,0.6,3.5-0.1l2.3-1.4l1.2-4.3
				C344.5,157,342.6,157.2,340.7,157.2z"/>
		</g>
		<path fill="#F094AA" d="M335,149.9c-3.3-1.9-3.3-5,0-6.8c3.3-1.8,8.5-1.8,11.7,0.1c3.1,1.9,3.1,5,0,6.8
			C343.5,151.8,338.2,151.8,335,149.9z"/>
	</g>
	<g>
		<path fill="#F39800" d="M340.2,168.1c5.3,2.8,13.8,2.5,18.8-0.7c2.9-1.8,4-4.2,3.4-6.5l-0.2-2.9l-1.6,0.1
			c-0.6-0.6-1.4-1.2-2.4-1.7c-5.4-2.9-13.9-2.6-18.8,0.7c-1.1,0.7-1.9,1.5-2.5,2.3l-1.3,0.1l0.2,2.9
			C336,164.4,337.4,166.6,340.2,168.1z"/>
		<path fill="#F8B62D" d="M358.1,152.7c5.4,2.9,5.7,7.8,0.7,11c-5,3.2-13.5,3.5-18.8,0.7s-5.6-7.8-0.7-11
			C344.2,150.1,352.7,149.8,358.1,152.7z"/>
	</g>
	<g>
		<path fill="#F39800" d="M334.1,187.9c5.2,3.1,13.6,3.2,18.8,0.3c3-1.7,4.2-4,3.8-6.3l0-2.9l-1.6,0c-0.6-0.6-1.3-1.2-2.3-1.8
			c-5.3-3.1-13.7-3.3-18.8-0.3c-1.1,0.6-2,1.4-2.6,2.2l-1.3,0l0.1,2.9C330.1,184,331.4,186.2,334.1,187.9z"/>
		<path fill="#F8B62D" d="M352.8,173.4c5.3,3.1,5.3,8.1,0.1,11c-5.2,2.9-13.7,2.8-18.8-0.3c-5.2-3.1-5.2-8.1-0.1-11
			C339,170.1,347.5,170.3,352.8,173.4z"/>
	</g>
	<g>
		<path fill="#F39800" d="M353,176.7c5.2,3.1,13.6,3.2,18.8,0.3c3-1.7,4.2-4,3.8-6.3l0-2.9l-1.6,0c-0.6-0.6-1.3-1.2-2.3-1.8
			c-5.3-3.1-13.7-3.3-18.8-0.3c-1.1,0.6-2,1.4-2.6,2.2l-1.3,0l0.1,2.9C349,172.9,350.3,175.1,353,176.7z"/>
		<path fill="#F8B62D" d="M371.7,162.2c5.3,3.1,5.3,8.1,0.1,11s-13.7,2.8-18.8-0.3c-5.2-3.1-5.2-8.1-0.1-11
			C357.9,159,366.4,159.1,371.7,162.2z"/>
	</g>
	<g>
		<path fill="#F39800" d="M333.3,141c2,5.7,8.5,11.1,14.4,12.2c3.4,0.6,5.8-0.4,6.9-2.5l1.9-2.3l-1.2-1c-0.1-0.9-0.3-1.8-0.6-2.8
			c-2.1-5.8-8.6-11.2-14.4-12.2c-1.3-0.2-2.4-0.2-3.4,0.1l-1-0.8l-1.8,2.3C332.6,135.5,332.3,138,333.3,141z"/>
		<path fill="#F8B62D" d="M356.9,141.6c2.1,5.8-1,9.7-6.9,8.6c-5.9-1-12.4-6.5-14.4-12.2c-2-5.7,1.1-9.5,6.9-8.6
			C348.4,130.4,354.9,135.9,356.9,141.6z"/>
	</g>
	<g>
		<path fill="#F39800" d="M357.7,163.1c5.7,1.9,14,0.3,18.5-3.7c2.6-2.3,3.3-4.8,2.4-7l-0.6-2.9l-1.6,0.3c-0.7-0.5-1.6-0.9-2.6-1.3
			c-5.8-2-14.1-0.3-18.5,3.7c-0.9,0.9-1.6,1.8-2.1,2.7l-1.2,0.3l0.7,2.8C353,160.2,354.7,162,357.7,163.1z"/>
		<path fill="#F8B62D" d="M372.9,145c5.8,2,6.9,6.8,2.4,10.8c-4.5,4-12.8,5.6-18.5,3.7c-5.7-1.9-6.8-6.8-2.4-10.8
			C358.8,144.7,367.1,143,372.9,145z"/>
	</g>
	<g>
		<path fill="#F39800" d="M375.2,176.4c5.6,2.1,14,0.8,18.6-3c2.6-2.2,3.5-4.7,2.6-6.9l-0.5-2.9l-1.6,0.3c-0.7-0.5-1.5-1-2.5-1.4
			c-5.7-2.2-14.1-0.9-18.6,3c-1,0.8-1.7,1.7-2.2,2.6l-1.2,0.2l0.6,2.8C370.6,173.3,372.2,175.2,375.2,176.4z"/>
		<path fill="#F8B62D" d="M391.1,158.9c5.7,2.2,6.6,7.1,2,10.9c-4.6,3.8-13,5.1-18.6,3c-5.6-2.1-6.5-7-2-10.9
			C377,158.1,385.3,156.7,391.1,158.9z"/>
	</g>
	<g>
		<path fill="#F39800" d="M321.5,159.9c5.3,2.8,13.8,2.5,18.8-0.7c2.9-1.8,4-4.2,3.4-6.5l-0.2-2.9l-1.6,0.1
			c-0.6-0.6-1.4-1.2-2.4-1.7c-5.4-2.9-13.9-2.6-18.8,0.7c-1.1,0.7-1.9,1.5-2.5,2.3l-1.3,0.1l0.2,2.9
			C317.3,156.3,318.7,158.4,321.5,159.9z"/>
		<path fill="#F8B62D" d="M339.4,144.6c5.4,2.9,5.7,7.8,0.7,11c-5,3.2-13.5,3.5-18.8,0.7s-5.6-7.8-0.7-11
			C325.5,142,334,141.7,339.4,144.6z"/>
	</g>
	<g>
		<path fill="#F39800" d="M316.7,175.3c5.3,2.8,13.8,2.5,18.8-0.7c2.9-1.8,4-4.2,3.4-6.5l-0.2-2.9l-1.6,0.1
			c-0.6-0.6-1.4-1.2-2.4-1.7c-5.4-2.9-13.9-2.6-18.8,0.7c-1.1,0.7-1.9,1.5-2.5,2.3l-1.3,0.1l0.2,2.9
			C312.4,171.7,313.8,173.8,316.7,175.3z"/>
		<path fill="#F8B62D" d="M334.6,159.9c5.4,2.9,5.7,7.8,0.7,11c-5,3.2-13.5,3.5-18.8,0.7s-5.6-7.8-0.7-11S329.1,157.1,334.6,159.9z"
			/>
	</g>
	<g>
		<g>
			<path opacity="0.72" fill="#F19CB5" d="M373.7,177.8l4.6,14.6l2.3,1.3c1.1,0.6,2.4,0.6,3.5-0.1l2.3-1.4l3.9-14.2L373.7,177.8z"/>
			<path fill="#44778C" d="M382,188.4c-1.8,0-3.5-0.2-5.1-0.5l1.4,4.5l2.3,1.3c1.1,0.6,2.4,0.6,3.5-0.1l2.3-1.4l1.2-4.3
				C385.8,188.2,383.9,188.4,382,188.4z"/>
		</g>
		<g>
			<path fill="#F094AA" d="M376.3,180.4c-3.3-1.9-3.3-5,0-6.8c3.3-1.8,8.5-1.8,11.7,0.1c3.1,1.9,3.1,5,0,6.8
				C384.8,182.3,379.6,182.3,376.3,180.4z"/>
		</g>
	</g>
	<g>
		<g>
			<g>
				<path opacity="0.72" fill="#F19CB5" d="M287.7,168.1l4.6,14.6l2.3,1.3c1.1,0.6,2.4,0.6,3.5-0.1l2.3-1.4l3.9-14.2L287.7,168.1z"
					/>
				<path fill="#44778C" d="M295.9,178.7c-1.8,0-3.5-0.2-5.1-0.5l1.4,4.5l2.3,1.3c1.1,0.6,2.4,0.6,3.5-0.1l2.3-1.4l1.2-4.3
					C299.8,178.5,297.9,178.7,295.9,178.7z"/>
			</g>
			<g>
				<path fill="#F094AA" d="M290.3,170.7c-3.3-1.9-3.3-5,0-6.8c3.3-1.8,8.5-1.8,11.7,0.1s3.1,5,0,6.8
					C298.8,172.6,293.5,172.6,290.3,170.7z"/>
			</g>
		</g>
		<g>
			<path fill="#F39800" d="M305.5,161.3c3.2,5.1,10.6,9.1,16.6,8.9c3.4-0.1,5.6-1.6,6.2-3.9l1.3-2.6l-1.4-0.7
				c-0.2-0.8-0.6-1.7-1.2-2.6c-3.2-5.2-10.7-9.2-16.6-8.9c-1.3,0.1-2.4,0.3-3.3,0.8l-1.1-0.6l-1.3,2.6
				C303.7,156,303.8,158.5,305.5,161.3z"/>
			<path fill="#F8B62D" d="M328.7,157c3.2,5.2,1,9.7-5,9.9c-6,0.2-13.4-3.8-16.6-8.9c-3.2-5.1-0.9-9.6,5-9.9
				C318,147.7,325.5,151.7,328.7,157z"/>
		</g>
		<g>
			<path fill="#F39800" d="M328.5,161c6,0.8,13.8-2.5,17.4-7.3c2.1-2.7,2.3-5.4,0.9-7.3l-1.2-2.7l-1.5,0.7c-0.8-0.3-1.7-0.6-2.8-0.7
				c-6.1-0.8-13.9,2.5-17.4,7.3c-0.8,1-1.2,2.1-1.5,3l-1.1,0.5l1.2,2.6C323.2,159.1,325.3,160.6,328.5,161z"/>
			<path fill="#F8B62D" d="M339.8,140.3c6.1,0.8,8.1,5.3,4.5,10.1s-11.4,8-17.4,7.3c-6-0.8-8-5.3-4.5-10.1
				C325.9,142.8,333.7,139.5,339.8,140.3z"/>
		</g>
		<g>
			<path fill="#F39800" d="M351.1,184.2c5.4,2.6,13.9,1.9,18.8-1.6c2.8-2,3.8-4.4,3.1-6.7l-0.3-2.9l-1.6,0.2
				c-0.7-0.6-1.5-1.1-2.4-1.6c-5.5-2.6-14-1.9-18.8,1.6c-1,0.8-1.8,1.6-2.4,2.4l-1.2,0.1l0.4,2.9
				C346.7,180.8,348.2,182.9,351.1,184.2z"/>
			<path fill="#F8B62D" d="M368.2,168c5.5,2.6,6.1,7.6,1.2,11c-4.9,3.4-13.3,4.1-18.8,1.6c-5.4-2.6-6-7.5-1.2-11
				C354.2,166.1,362.7,165.4,368.2,168z"/>
		</g>
		<g>
			<path fill="#F39800" d="M317,192.7c5.4,2.6,13.9,1.9,18.8-1.6c2.8-2,3.8-4.4,3.1-6.7l-0.3-2.9l-1.6,0.2c-0.7-0.6-1.5-1.1-2.4-1.6
				c-5.5-2.6-14-1.9-18.8,1.6c-1,0.8-1.8,1.6-2.4,2.4l-1.2,0.1l0.4,2.9C312.7,189.3,314.1,191.4,317,192.7z"/>
			<path fill="#F8B62D" d="M334.2,176.5c5.5,2.6,6.1,7.6,1.2,11c-4.9,3.4-13.3,4.1-18.8,1.6c-5.4-2.6-6-7.5-1.2-11
				C320.2,174.6,328.6,173.9,334.2,176.5z"/>
		</g>
		<linearGradient id="SVGID_25_" gradientUnits="userSpaceOnUse" x1="279.3788" y1="145.3454" x2="408.0185" y2="145.3454">
			<stop  offset="0" style="stop-color:#F5B9CE"/>
			<stop  offset="1" style="stop-color:#E9506A"/>
		</linearGradient>
		<path opacity="0.64" fill="url(#SVGID_25_)" d="M304.6,194.1l5,2.9c15.5,8.9,34.6,8.9,50.1,0l23.1-13.3
			c33.6-19.3,33.7-67.7,0.1-87.1l-5-2.9c-15.5-8.9-34.6-9-50.1-0.1l-23.1,13.3C271,126.2,271,174.8,304.6,194.1z"/>
		<g>
			<circle fill="#FFFFFF" cx="325.9" cy="99.3" r="1.6"/>
		</g>
		<g>
			<path opacity="0.59" fill="#EB6982" d="M276.7,183.2c-1.2-2.1-2-4.3-2.5-6.3C274.7,178.9,275.6,181,276.7,183.2z"/>
			<path opacity="0.59" fill="#EB6982" d="M291.8,197.8c-0.5-0.2-1-0.5-1.5-0.8C290.8,197.3,291.3,197.6,291.8,197.8z"/>
			<path opacity="0.59" fill="#EB6982" d="M282.5,190.9c-0.9-1-1.8-2-2.6-3C280.7,188.9,281.6,189.9,282.5,190.9z"/>
			<path opacity="0.59" fill="#EB6982" d="M293.3,198.5c-0.4-0.2-0.8-0.3-1.2-0.5C292.5,198.2,292.9,198.4,293.3,198.5z"/>
			<path opacity="0.59" fill="#EB6982" d="M274.7,170.1c0-0.1,0.1-0.2,0.1-0.2C274.8,169.9,274.7,170,274.7,170.1z"/>
			<path opacity="0.59" fill="#EB6982" d="M274,172.2c0-0.2,0.1-0.5,0.1-0.7C274.1,171.8,274,172,274,172.2z"/>
			<path opacity="0.59" fill="#EB6982" d="M273.9,173.9c0-0.4,0-0.8,0.1-1.2C273.9,173,273.9,173.4,273.9,173.9z"/>
			<path opacity="0.59" fill="#EB6982" d="M274.3,171.1c0.1-0.2,0.1-0.3,0.2-0.5C274.4,170.7,274.3,170.9,274.3,171.1z"/>
			<path opacity="0.59" fill="#EB6982" d="M276.3,168.1C276.3,168.1,276.3,168.1,276.3,168.1C276.3,168.1,276.3,168.1,276.3,168.1z"
				/>
			<path opacity="0.59" fill="#EB6982" d="M304.3,198.3c0,0-0.1,0.1-0.1,0.1C304.2,198.4,304.2,198.4,304.3,198.3z"/>
			<path opacity="0.59" fill="#EB6982" d="M302.4,199.4c-0.1,0-0.2,0.1-0.2,0.1C302.2,199.5,302.3,199.4,302.4,199.4z"/>
			<path opacity="0.59" fill="#EB6982" d="M295,199.1c-0.4-0.1-0.9-0.3-1.3-0.5C294.1,198.8,294.5,199,295,199.1z"/>
			<path opacity="0.59" fill="#EB6982" d="M315.6,186.2c0-7.6-7.4-18-16.4-23.2c-5.9-3.4-11.3-3.9-14.1-1.6l0,0l-8,6.2
				c3-1.7,7.8-1.2,13.2,1.9c9,5.2,16.4,15.6,16.4,23.2c0,2.2-0.7,4-1.8,5.2l7.4-5.2l-0.1-0.1C314.3,191.5,315.6,189.3,315.6,186.2z"
				/>
			<path opacity="0.59" fill="#EB6982" d="M301.5,199.7c-0.1,0-0.2,0-0.3,0.1C301.3,199.7,301.4,199.7,301.5,199.7z"/>
			<path opacity="0.59" fill="#EB6982" d="M296.3,199.5c-0.3-0.1-0.6-0.2-0.9-0.2C295.7,199.4,296,199.4,296.3,199.5z"/>
			<path opacity="0.59" fill="#EB6982" d="M297.9,199.8c-0.4,0-0.7-0.1-1.1-0.2C297.2,199.7,297.5,199.8,297.9,199.8z"/>
			<path opacity="0.59" fill="#EB6982" d="M299.1,199.9c-0.2,0-0.4,0-0.7,0C298.6,199.9,298.8,199.9,299.1,199.9z"/>
			<path opacity="0.59" fill="#EB6982" d="M299.6,199.9c0.2,0,0.3,0,0.5,0C300,199.9,299.8,199.9,299.6,199.9z"/>
		</g>
		<g opacity="0.72">
			<path fill="#F19CB5" d="M273.9,173.9c-0.1-7.6,7.3-9.5,16.3-4.3c9,5.2,16.4,15.6,16.4,23.2s-7.3,9.5-16.3,4.3
				S273.9,181.4,273.9,173.9z"/>
		</g>
		<path fill="#DF7396" d="M280.1,175.1c0-1.8,1.3-2.5,2.8-1.6l0.4,0.2c1.6,0.9,2.8,3.2,2.8,5v5.1c0,1.8-1.3,2.5-2.8,1.6l-0.3-0.2
			c-1.6-0.9-2.8-3.2-2.8-5V175.1z"/>
		<path fill="#DF7396" d="M291.7,183.3c0-1.8,1.3-2.5,2.8-1.6l0.4,0.2c1.6,0.9,2.8,3.2,2.8,5v5.1c0,1.8-1.3,2.5-2.8,1.6l-0.3-0.2
			c-1.6-0.9-2.8-3.2-2.8-5V183.3z"/>
		<path fill="#44778C" d="M317.5,165.7c0-1.8,1.3-2.5,2.8-1.6l0.4,0.2c1.6,0.9,2.8,3.2,2.8,5v5.1c0,1.8-1.3,2.5-2.8,1.6l-0.3-0.2
			c-1.6-0.9-2.8-3.2-2.8-5V165.7z"/>
		<path fill="#44778C" d="M285.7,149c0-1.6,1.1-2.3,2.5-1.4l0.3,0.2c1.4,0.8,2.5,2.8,2.5,4.5v4.6c0,1.6-1.1,2.3-2.5,1.4l-0.3-0.2
			c-1.4-0.8-2.5-2.8-2.5-4.5V149z"/>
		<path opacity="0.54" fill="#EB6982" d="M349.4,159.4l-0.4-23.4l-13.3,8C341.5,148.4,346.1,153.6,349.4,159.4z"/>
		<polygon fill="#F094AA" points="349.4,159.4 356.8,155.2 349,136.1 		"/>
		<polygon opacity="0.54" fill="#EB6982" points="298.4,123.9 285.7,124.9 288.4,109.7 		"/>
		<polygon fill="#F094AA" points="296.8,118.5 298.4,123.9 288.4,109.7 		"/>
		
			<line fill="none" stroke="#FFFFFF" stroke-width="2.4476" stroke-linecap="round" stroke-miterlimit="10" x1="305.2" y1="110.2" x2="320.7" y2="101.5"/>
		<g>
			<g>
				<path opacity="0.72" fill="#F19CB5" d="M332.4,199.3l4.6,14.6l2.3,1.3c1.1,0.6,2.4,0.6,3.5-0.1l2.3-1.4l3.9-14.2L332.4,199.3z"
					/>
				<path fill="#44778C" d="M340.7,210c-1.8,0-3.5-0.2-5.1-0.5l1.4,4.5l2.3,1.3c1.1,0.6,2.4,0.6,3.5-0.1l2.3-1.4l1.2-4.3
					C344.5,209.7,342.6,210,340.7,210z"/>
			</g>
			<g>
				<path fill="#F094AA" d="M335,201.9c-3.3-1.9-3.3-5,0-6.8c3.3-1.8,8.5-1.8,11.7,0.1c3.1,1.9,3.1,5,0,6.8
					C343.5,203.9,338.2,203.8,335,201.9z"/>
			</g>
		</g>
	</g>
	<g opacity="0.54">
		<path fill="#E9506A" d="M340.6,113.8c-1.3-0.8-1.2-2.1,0.1-2.9l18.1-10.6c1.3-0.8,3.6-0.8,4.9-0.1s1.4,2,0,2.8l-18.4,10.8
			C344.1,114.6,341.9,114.6,340.6,113.8z"/>
	</g>
	<g>
		<g>
			<path fill="#F39800" d="M343.3,79.5c-2.4-5.5-1.4-13.9,2.2-18.7c2.1-2.7,4.6-3.7,6.8-2.9l2.9,0.4l-0.2,1.6
				c0.6,0.7,1.1,1.5,1.5,2.5c2.4,5.6,1.4,14.1-2.2,18.7c-0.8,1-1.6,1.8-2.5,2.3l-0.2,1.2l-2.9-0.5C346.6,84,344.6,82.4,343.3,79.5z"
				/>
			<path fill="#F8B62D" d="M360.2,62.9c-2.4-5.6-7.3-6.4-10.9-1.6S344.6,74.5,347,80s7.3,6.2,10.9,1.6
				C361.6,77,362.6,68.5,360.2,62.9z"/>
		</g>
		
			<text transform="matrix(0.7657 -0.4046 -3.746488e-02 0.9993 349.9513 78.7151)" fill="#F7F8F8" font-family="'DIN-Bold'" font-size="16.1091">$</text>
	</g>
	<g>
		<g>
			<path fill="#F39800" d="M343.3,36.9c-2.4-5.5-1.4-13.9,2.2-18.7c2.1-2.7,4.6-3.7,6.8-2.9l2.9,0.4l-0.2,1.6
				c0.6,0.7,1.1,1.5,1.5,2.5c2.4,5.6,1.4,14.1-2.2,18.7c-0.8,1-1.6,1.8-2.5,2.3l-0.2,1.2l-2.9-0.5C346.6,41.4,344.6,39.9,343.3,36.9
				z"/>
			<path fill="#F8B62D" d="M360.2,20.4c-2.4-5.6-7.3-6.4-10.9-1.6S344.6,32,347,37.5s7.3,6.2,10.9,1.6S362.6,26,360.2,20.4z"/>
		</g>
		
			<text transform="matrix(0.7657 -0.4046 -3.746488e-02 0.9993 349.9513 36.1954)" fill="#F7F8F8" font-family="'DIN-Bold'" font-size="16.1091">$</text>
	</g>
</g>
<g id="圖層_5">
</g>
<g id="圖層_3">
	<polygon fill="#38BBE0" points="238.9,605.3 238.9,659.8 356.8,727.8 356.8,673 	"/>
	<polygon fill="#259EBB" points="474.6,605.3 474.6,659.8 356.8,727.8 356.8,673 	"/>
	<polygon fill="#8CD1EA" points="238.9,605.3 356.8,673 474.6,605.3 356.8,537.3 	"/>
	<polygon fill="#898989" points="160.7,488.1 161,500.6 281.2,570.1 281.2,555.2 	"/>
	<path fill="#C9CACA" d="M161.2,447.7l1.3,0.8c-1.2,3.3-1.8,6.7-1.8,10.3v29.3l-35-20L281.1,557l27.5-24.8L161.2,447.7z"/>
	<g>
		<polygon fill="#C9CACA" points="196.6,468 196.4,508.5 281.1,557 308.7,532.2 		"/>
	</g>
	<g>
		<defs>
			<polygon id="SVGID_26_" points="281.1,557 161.7,488.1 197.3,467.7 308.7,532.2 			"/>
		</defs>
		<clipPath id="SVGID_27_">
			<use xlink:href="#SVGID_26_"  overflow="visible"/>
		</clipPath>
		<g clip-path="url(#SVGID_27_)">
			
				<line fill="#ADADAD" stroke="#ADADAD" stroke-width="2" stroke-linecap="round" stroke-miterlimit="10" x1="186.8" y1="501.7" x2="222.8" y2="481.2"/>
			
				<line fill="#ADADAD" stroke="#ADADAD" stroke-width="2" stroke-linecap="round" stroke-miterlimit="10" x1="204.3" y1="512" x2="240.2" y2="491.4"/>
			
				<line fill="#ADADAD" stroke="#ADADAD" stroke-width="2" stroke-linecap="round" stroke-miterlimit="10" x1="221.7" y1="522.2" x2="257.7" y2="501.7"/>
			
				<line fill="#ADADAD" stroke="#ADADAD" stroke-width="2" stroke-linecap="round" stroke-miterlimit="10" x1="239.2" y1="532.5" x2="275.1" y2="511.9"/>
			
				<line fill="#ADADAD" stroke="#ADADAD" stroke-width="2" stroke-linecap="round" stroke-miterlimit="10" x1="256.6" y1="542.7" x2="292.5" y2="522.2"/>
			
				<line fill="#BDBBBB" stroke="#ADADAD" stroke-width="2" stroke-linecap="round" stroke-miterlimit="10" x1="169.4" y1="491.5" x2="205.3" y2="470.9"/>
			
				<line fill="#BDBBBB" stroke="#ADADAD" stroke-width="2" stroke-linecap="round" stroke-miterlimit="10" x1="151.4" y1="479.9" x2="187.4" y2="459.3"/>
		</g>
	</g>
	<g>
		<path fill="#F39800" d="M288.6,514.6h-24.6v14.1c-0.1,0.6-0.1,1.1,0,1.7v0h0c0.2,2,1.4,3.9,3.3,5.1c5.2,3.1,11.6,3.2,16.8,0.1
			l1-0.6c1.9-1.1,2.9-2.8,3.3-4.7h0.2V514.6z"/>
		<path fill="#F8B62D" d="M267.5,508.6L267.5,508.6c-4.6,2.7-4.7,9.3-0.1,12.1h0c5.2,3.1,11.6,3.2,16.8,0.1l1-0.6
			c4.5-2.6,4.5-9.2-0.1-11.7l0,0C279.6,505.4,272.9,505.4,267.5,508.6z"/>
	</g>
	<g>
		<defs>
			<path id="SVGID_28_" d="M160.7,536.2v-77.4c0-10.9,5.9-21,15.5-26.3l0.1,0c9.1-5,20.3,1.6,20.3,12v11l-0.3,60.4L160.7,536.2z"/>
		</defs>
		<clipPath id="SVGID_29_">
			<use xlink:href="#SVGID_28_"  overflow="visible"/>
		</clipPath>
		<g clip-path="url(#SVGID_29_)">
			<defs>
				<polygon id="SVGID_30_" points="175.5,496.4 56.1,427.5 91.6,407.2 203,471.6 				"/>
			</defs>
			<clipPath id="SVGID_31_">
				<use xlink:href="#SVGID_30_"  overflow="visible"/>
			</clipPath>
			<g clip-path="url(#SVGID_31_)">
				
					<line fill="#ADADAD" stroke="#ADADAD" stroke-width="2" stroke-linecap="round" stroke-miterlimit="10" x1="133.5" y1="471.9" x2="169.4" y2="451.3"/>
				
					<line fill="#ADADAD" stroke="#ADADAD" stroke-width="2" stroke-linecap="round" stroke-miterlimit="10" x1="150.9" y1="482.1" x2="186.9" y2="461.6"/>
			</g>
		</g>
	</g>
	<g>
		<path fill="#B5B5B6" d="M167.3,497.3c0-1.9,1.4-2.7,3.1-1.8c1.7,1,3.1,3.3,3.1,5.3s-1.4,2.7-3.1,1.8
			C168.7,501.6,167.3,499.2,167.3,497.3z"/>
		<path fill="#B5B5B6" d="M179.3,504.3c0-1.9,1.4-2.7,3.1-1.8s3.1,3.3,3.1,5.3s-1.4,2.7-3.1,1.8
			C180.7,508.6,179.3,506.2,179.3,504.3z"/>
		<path fill="#B5B5B6" d="M191.4,511.3c0-1.9,1.4-2.7,3.1-1.8s3.1,3.3,3.1,5.3c0,1.9-1.4,2.7-3.1,1.8S191.4,513.3,191.4,511.3z"/>
		<path fill="#B5B5B6" d="M203.5,518.4c0-1.9,1.4-2.7,3.1-1.8c1.7,1,3.1,3.3,3.1,5.3c0,1.9-1.4,2.7-3.1,1.8
			C204.8,522.6,203.5,520.3,203.5,518.4z"/>
		<path fill="#B5B5B6" d="M215.5,525.4c0-1.9,1.4-2.7,3.1-1.8c1.7,1,3.1,3.3,3.1,5.3c0,1.9-1.4,2.7-3.1,1.8
			C216.9,529.7,215.5,527.3,215.5,525.4z"/>
		<path fill="#B5B5B6" d="M227.6,532.4c0-1.9,1.4-2.7,3.1-1.8s3.1,3.3,3.1,5.3c0,1.9-1.4,2.7-3.1,1.8S227.6,534.3,227.6,532.4z"/>
		<path fill="#B5B5B6" d="M239.6,539.4c0-1.9,1.4-2.7,3.1-1.8s3.1,3.3,3.1,5.3c0,1.9-1.4,2.7-3.1,1.8S239.6,541.4,239.6,539.4z"/>
		<path fill="#B5B5B6" d="M251.7,546.5c0-1.9,1.4-2.7,3.1-1.8s3.1,3.3,3.1,5.3c0,1.9-1.4,2.7-3.1,1.8
			C253.1,550.7,251.7,548.4,251.7,546.5z"/>
		<path fill="#B5B5B6" d="M263.8,553.5c0-1.9,1.4-2.7,3.1-1.8s3.1,3.3,3.1,5.3c0,1.9-1.4,2.7-3.1,1.8
			C265.2,557.8,263.8,555.4,263.8,553.5z"/>
		<path fill="#B5B5B6" d="M275.8,560.5c0-1.9,1.4-2.7,3.1-1.8s3.1,3.3,3.1,5.3c0,1.9-1.4,2.7-3.1,1.8S275.8,562.4,275.8,560.5z"/>
		<path fill="#B5B5B6" d="M287.9,567.5c0-1.9,1.4-2.7,3.1-1.8c1.7,1,3.1,3.3,3.1,5.3c0,1.9-1.4,2.7-3.1,1.8
			C289.3,571.8,287.9,569.4,287.9,567.5z"/>
	</g>
	<polygon fill="#259EBB" points="356.8,551 268,601.7 356.2,652.6 444.9,601.8 	"/>
	<polygon fill="#283C57" points="356.8,551 356.2,652.6 444.9,601.8 	"/>
	<polygon fill="#EF9198" points="356.2,652.6 280,608.6 280,506.7 356.8,551 	"/>
	<polygon fill="#DB5050" points="356.2,652.6 433,608.6 433,506.6 356.8,551 	"/>
	<polygon fill="#44778C" points="433,601.8 438.7,605.1 356.2,652.6 356.2,646.2 	"/>
	<polygon fill="#38BBE0" points="279.9,601.8 273.9,605.3 356.2,652.6 356.2,646.2 	"/>
	<polygon fill="#8CD1EA" points="279.6,507.6 356.7,552 433.2,507.6 356.7,463.3 	"/>
	<g>
		<g>
			<path fill="#E9506A" d="M302.4,544.5L302.4,544.5c0.5-0.7,0.9-1.7,0.9-3c0-3.8-2.7-8.4-6-10.3c-1.9-1.1-3.2-0.9-4.7-0.1l0,0
				l-3.6,2.6l2.7,3.6c0.9,3,3,6.1,5.5,7.5l1.7,2.4l2.6-1.9c0.1-0.1,0.3-0.2,0.4-0.3L302.4,544.5z"/>
			<path fill="#F3B8C9" d="M288,536.9c0-3.8,2.7-5.3,6-3.4s6,6.5,6,10.3s-2.7,5.3-6,3.4C290.7,545.3,288,540.7,288,536.9z"/>
		</g>
		<g>
			<path fill="#E9506A" d="M322.1,556.1L322.1,556.1c0.5-0.7,0.9-1.7,0.9-3c0-3.8-2.7-8.4-6-10.3c-1.9-1.1-3.2-0.9-4.7-0.1l0,0
				l-3.6,2.6l2.7,3.6c0.9,3,3,6.1,5.5,7.5l1.7,2.4l2.6-1.9c0.1-0.1,0.3-0.2,0.4-0.3L322.1,556.1z"/>
			<path fill="#F3B8C9" d="M307.7,548.5c0-3.8,2.7-5.3,6-3.4c3.3,1.9,6,6.5,6,10.3s-2.7,5.3-6,3.4
				C310.4,556.9,307.7,552.3,307.7,548.5z"/>
		</g>
		<g>
			<path fill="#E9506A" d="M342.2,568.1L342.2,568.1c0.5-0.7,0.9-1.7,0.9-3c0-3.8-2.7-8.4-6-10.3c-1.9-1.1-3.2-0.9-4.7-0.1l0,0
				l-3.6,2.6l2.7,3.6c0.9,3,3,6.1,5.5,7.5l1.7,2.4l2.6-1.9c0.1-0.1,0.3-0.2,0.4-0.3L342.2,568.1z"/>
			<path fill="#F3B8C9" d="M327.9,560.5c0-3.8,2.7-5.3,6-3.4c3.3,1.9,6,6.5,6,10.3c0,3.8-2.7,5.3-6,3.4S327.9,564.2,327.9,560.5z"/>
		</g>
		<polygon fill="#E9506A" points="292.8,609.3 292.8,553.7 334.7,577.9 334.7,633.1 		"/>
	</g>
	<polygon fill="#BB324B" points="292.5,553.6 297.8,556.7 297.8,612.2 292.5,609.2 	"/>
	<polygon fill="#283C57" points="297.8,585 322.4,570.8 297.8,556.7 	"/>
	<g>
		<polygon fill="#F39800" points="412.6,532 425,525.4 425,578.9 413,586.6 		"/>
		<polygon fill="#F8B62D" points="412.6,532 410.3,530.6 410.3,585 413,586.6 		"/>
		<polygon fill="#F8B62D" points="410.3,530.6 412.6,532 425,525.4 422.5,524.1 		"/>
		<polygon fill="#E9506A" points="418.3,535.3 418.3,576 420.8,574.8 420.8,534.3 		"/>
		<polygon fill="#DCDDDD" points="418.3,549.2 439.8,536.8 438,534.3 418.3,545.9 		"/>
		<circle fill="#2EA7E0" cx="442.4" cy="534.8" r="6.8"/>
		<circle fill="#8CD1EA" cx="441.2" cy="532.3" r="2.3"/>
	</g>
	<g>
		<polygon fill="#F39800" points="391.3,544.5 403.6,537.9 403.6,591.4 391.6,599.1 		"/>
		<polygon fill="#F8B62D" points="391.3,544.5 388.9,543.1 388.9,597.5 391.6,599.1 		"/>
		<polygon fill="#F8B62D" points="388.9,543.1 391.3,544.5 403.6,537.9 401.1,536.6 		"/>
		<polygon fill="#E9506A" points="397,547.8 397,588.5 399.5,587.3 399.5,546.8 		"/>
		<polygon fill="#DCDDDD" points="397,561.7 418.4,549.3 416.6,546.8 397,558.4 		"/>
		<circle fill="#2EA7E0" cx="421" cy="547.3" r="6.8"/>
		<circle fill="#8CD1EA" cx="419.8" cy="544.8" r="2.3"/>
	</g>
	<g>
		<polygon fill="#F39800" points="370.5,556.3 382.9,549.7 382.9,603.3 370.9,610.9 		"/>
		<g>
			<polygon fill="#F8B62D" points="370.5,556.3 368.2,555 368.2,609.4 370.9,610.9 			"/>
			<polygon fill="#F8B62D" points="368.2,555 370.5,556.3 382.9,549.7 380.4,548.4 			"/>
			<polygon fill="#E9506A" points="376.2,559.6 376.2,600.4 378.8,599.2 378.8,558.6 			"/>
			<polygon fill="#DCDDDD" points="376.2,573.5 397.7,561.1 395.9,558.6 376.2,570.3 			"/>
			<circle fill="#2EA7E0" cx="400.3" cy="559.1" r="6.8"/>
			<circle fill="#8CD1EA" cx="399.1" cy="556.6" r="2.3"/>
		</g>
	</g>
	<path fill="#E9506A" d="M279.6,507.6L279.6,507.6l11.6-21.1l-1,0.6c-6.6,3.8-10.6,10.8-10.6,18.4V507.6z"/>
	<path fill="#8CD1EA" d="M356.7,552.3l0.4-0.9l11.2-20.1l-1,0.6c-6.6,3.8-10.6,10.8-10.6,18.4V552.3z"/>
	<path fill="#F8B62D" d="M291.3,486.6l-1,0.6c-6.6,3.8-10.6,10.8-10.6,18.4v2.1l77,44.3V550c0-7.6,4-14.6,10.6-18.4l0.9-0.5
		L291.3,486.6z"/>
	<path fill="#F39800" d="M368.2,531.1l65-37.9v14.5L356.7,552l0-3.4c0.1-7,3.9-13.4,10-16.7L368.2,531.1z"/>
	<polygon fill="#F8B62D" points="291.3,486.6 368.2,531.1 433.2,493.2 356.4,448.9 	"/>
	<g>
		<ellipse opacity="0.49" fill="#259EBB" cx="367.8" cy="484.5" rx="41.2" ry="23.3"/>
		<g>
			<g>
				<circle fill="#EDB818" cx="304.7" cy="468.8" r="18.6"/>
				<g>
					<defs>
						<circle id="SVGID_32_" cx="304.7" cy="468.8" r="18.6"/>
					</defs>
					<clipPath id="SVGID_33_">
						<use xlink:href="#SVGID_32_"  overflow="visible"/>
					</clipPath>
					<ellipse opacity="0.67" clip-path="url(#SVGID_33_)" fill="#F7F8F8" cx="304.7" cy="450.9" rx="23.8" ry="23.3"/>
				</g>
			</g>
			<circle fill="#F7F8F8" cx="297.1" cy="460.2" r="3.2"/>
		</g>
		<g>
			<g>
				<circle fill="#52B4DB" cx="328.9" cy="454.9" r="18.6"/>
				<g>
					<defs>
						<circle id="SVGID_34_" cx="328.9" cy="454.9" r="18.6"/>
					</defs>
					<clipPath id="SVGID_35_">
						<use xlink:href="#SVGID_34_"  overflow="visible"/>
					</clipPath>
					<ellipse opacity="0.67" clip-path="url(#SVGID_35_)" fill="#F7F8F8" cx="328.9" cy="437" rx="23.8" ry="23.3"/>
				</g>
			</g>
			<circle fill="#F7F8F8" cx="321.3" cy="446.3" r="3.2"/>
		</g>
		<g>
			<g>
				<circle fill="#E9506A" cx="340.5" cy="483.9" r="18.6"/>
				<g>
					<defs>
						<circle id="SVGID_36_" cx="340.5" cy="483.9" r="18.6"/>
					</defs>
					<clipPath id="SVGID_37_">
						<use xlink:href="#SVGID_36_"  overflow="visible"/>
					</clipPath>
					<ellipse opacity="0.67" clip-path="url(#SVGID_37_)" fill="#F7F8F8" cx="340.5" cy="466" rx="23.8" ry="23.3"/>
				</g>
			</g>
			<circle fill="#F7F8F8" cx="332.9" cy="475.2" r="3.2"/>
		</g>
		<g>
			<g>
				<circle fill="#E9506A" cx="361.2" cy="437" r="18.6"/>
				<g>
					<defs>
						<circle id="SVGID_38_" cx="361.2" cy="437" r="18.6"/>
					</defs>
					<clipPath id="SVGID_39_">
						<use xlink:href="#SVGID_38_"  overflow="visible"/>
					</clipPath>
					<ellipse opacity="0.67" clip-path="url(#SVGID_39_)" fill="#F7F8F8" cx="361.2" cy="419.1" rx="23.8" ry="23.3"/>
				</g>
			</g>
			<circle fill="#F7F8F8" cx="353.5" cy="428.4" r="3.2"/>
		</g>
		<g>
			<g>
				<circle fill="#53C0DC" cx="379.7" cy="488.4" r="18.6"/>
				<g>
					<defs>
						<circle id="SVGID_40_" cx="379.7" cy="488.4" r="18.6"/>
					</defs>
					<clipPath id="SVGID_41_">
						<use xlink:href="#SVGID_40_"  overflow="visible"/>
					</clipPath>
					
						<ellipse transform="matrix(0.8935 0.449 -0.449 0.8935 253.4253 -123.8234)" opacity="0.67" clip-path="url(#SVGID_41_)" fill="#F7F8F8" cx="387.8" cy="472.4" rx="23.8" ry="23.3"/>
				</g>
			</g>
			<circle fill="#F7F8F8" cx="376.8" cy="477.3" r="3.2"/>
		</g>
		<g>
			<g>
				<circle fill="#53C0DC" cx="411.6" cy="465.5" r="18.6"/>
				<g>
					<defs>
						<circle id="SVGID_42_" cx="411.6" cy="465.5" r="18.6"/>
					</defs>
					<clipPath id="SVGID_43_">
						<use xlink:href="#SVGID_42_"  overflow="visible"/>
					</clipPath>
					
						<ellipse transform="matrix(0.8772 -0.4801 0.4801 0.8772 -166.4529 248.7349)" opacity="0.67" clip-path="url(#SVGID_43_)" fill="#F7F8F8" cx="403" cy="449.7" rx="23.8" ry="23.3"/>
				</g>
			</g>
			<circle fill="#F7F8F8" cx="400.8" cy="461.6" r="3.2"/>
		</g>
		<g>
			<g>
				<circle fill="#53C0DC" cx="400.8" cy="438.4" r="18.6"/>
				<g>
					<defs>
						<circle id="SVGID_44_" cx="400.8" cy="438.4" r="18.6"/>
					</defs>
					<clipPath id="SVGID_45_">
						<use xlink:href="#SVGID_44_"  overflow="visible"/>
					</clipPath>
					
						<ellipse transform="matrix(0.8772 -0.4801 0.4801 0.8772 -154.7729 240.2101)" opacity="0.67" clip-path="url(#SVGID_45_)" fill="#F7F8F8" cx="392.2" cy="422.7" rx="23.8" ry="23.3"/>
				</g>
			</g>
			<circle fill="#F7F8F8" cx="389.9" cy="434.5" r="3.2"/>
		</g>
		<g>
			<g>
				<circle fill="#E9506A" cx="376.8" cy="458.3" r="18.6"/>
				<g>
					<defs>
						<circle id="SVGID_46_" cx="376.8" cy="458.3" r="18.6"/>
					</defs>
					<clipPath id="SVGID_47_">
						<use xlink:href="#SVGID_46_"  overflow="visible"/>
					</clipPath>
					<ellipse opacity="0.67" clip-path="url(#SVGID_47_)" fill="#F7F8F8" cx="376.8" cy="440.4" rx="23.8" ry="23.3"/>
				</g>
			</g>
			<circle fill="#F7F8F8" cx="369.2" cy="449.7" r="3.2"/>
		</g>
		<g>
			<g>
				<circle fill="#EDB818" cx="344.1" cy="450.2" r="18.6"/>
				<g>
					<defs>
						<circle id="SVGID_48_" cx="344.1" cy="450.2" r="18.6"/>
					</defs>
					<clipPath id="SVGID_49_">
						<use xlink:href="#SVGID_48_"  overflow="visible"/>
					</clipPath>
					<ellipse opacity="0.67" clip-path="url(#SVGID_49_)" fill="#F7F8F8" cx="344.1" cy="432.3" rx="23.8" ry="23.3"/>
				</g>
			</g>
			<circle fill="#F7F8F8" cx="336.5" cy="441.6" r="3.2"/>
		</g>
		<linearGradient id="SVGID_50_" gradientUnits="userSpaceOnUse" x1="271.0489" y1="435.8639" x2="448.5753" y2="435.8639">
			<stop  offset="0" style="stop-color:#C5E6F3"/>
			<stop  offset="1" style="stop-color:#38BBE0"/>
		</linearGradient>
		<ellipse opacity="0.52" fill="url(#SVGID_50_)" cx="359.8" cy="435.9" rx="88.8" ry="82.1"/>
		<ellipse opacity="0.47" fill="#259EBB" cx="360.7" cy="384.3" rx="43.7" ry="24.6"/>
		<circle fill="#F7F8F8" cx="295.3" cy="396.2" r="3.6"/>
		<path fill="none" stroke="#F7F8F8" stroke-width="6.4581" stroke-linecap="round" stroke-miterlimit="10" d="M287.6,404.9
			c0,0-9.4,18.2-6.8,39.3"/>
	</g>
	<g>
		
			<line fill="#8CD1EA" stroke="#F8B62D" stroke-width="3.1705" stroke-linecap="round" stroke-miterlimit="10" x1="402.4" y1="620.9" x2="445.7" y2="722.8"/>
		
			<line fill="#8CD1EA" stroke="#F39800" stroke-width="2.3574" stroke-linecap="round" stroke-miterlimit="10" x1="393.5" y1="645.4" x2="406.9" y2="636"/>
		
			<line fill="#8CD1EA" stroke="#F39800" stroke-width="2.3574" stroke-linecap="round" stroke-miterlimit="10" x1="398.4" y1="656.3" x2="411.8" y2="647"/>
		
			<line fill="#8CD1EA" stroke="#F39800" stroke-width="2.3574" stroke-linecap="round" stroke-miterlimit="10" x1="403.3" y1="667.3" x2="416.7" y2="658"/>
		
			<line fill="#8CD1EA" stroke="#F39800" stroke-width="2.3574" stroke-linecap="round" stroke-miterlimit="10" x1="413" y1="689.3" x2="426.5" y2="680"/>
		
			<line fill="#8CD1EA" stroke="#F39800" stroke-width="2.3574" stroke-linecap="round" stroke-miterlimit="10" x1="417.9" y1="700.3" x2="431.3" y2="690.9"/>
		
			<line fill="#8CD1EA" stroke="#F39800" stroke-width="2.3574" stroke-linecap="round" stroke-miterlimit="10" x1="408.2" y1="678.3" x2="421.6" y2="669"/>
		
			<line fill="#8CD1EA" stroke="#F8B62D" stroke-width="3.1705" stroke-linecap="round" stroke-miterlimit="10" x1="385.6" y1="629.6" x2="429" y2="731.6"/>
	</g>
	<polygon fill="#F39800" points="297.8,556.7 297.8,609.1 334.7,630.9 334.7,577.9 	"/>
	<g>
		<g>
			
				<line fill="#F8B62D" stroke="#F8B62D" stroke-width="4.5828" stroke-linecap="round" stroke-miterlimit="10" x1="297.8" y1="561.7" x2="332.4" y2="581.7"/>
			
				<line fill="#F8B62D" stroke="#F8B62D" stroke-width="4.5828" stroke-linecap="round" stroke-miterlimit="10" x1="297.8" y1="568" x2="332.4" y2="588.1"/>
			
				<line fill="#F8B62D" stroke="#F8B62D" stroke-width="4.5828" stroke-linecap="round" stroke-miterlimit="10" x1="297.8" y1="574.4" x2="332.4" y2="594.4"/>
			
				<line fill="#F8B62D" stroke="#F8B62D" stroke-width="4.5828" stroke-linecap="round" stroke-miterlimit="10" x1="297.8" y1="580.7" x2="332.4" y2="600.8"/>
		</g>
		<g>
			
				<line fill="#F8B62D" stroke="#F8B62D" stroke-width="4.5828" stroke-linecap="round" stroke-miterlimit="10" x1="297.8" y1="587.5" x2="332.4" y2="607.5"/>
			
				<line fill="#F8B62D" stroke="#F8B62D" stroke-width="4.5828" stroke-linecap="round" stroke-miterlimit="10" x1="297.8" y1="593.8" x2="332.4" y2="613.9"/>
			
				<line fill="#F8B62D" stroke="#F8B62D" stroke-width="4.5828" stroke-linecap="round" stroke-miterlimit="10" x1="297.8" y1="600.2" x2="332.4" y2="620.2"/>
			
				<line fill="#F8B62D" stroke="#F8B62D" stroke-width="4.5828" stroke-linecap="round" stroke-miterlimit="10" x1="297.8" y1="606.5" x2="332.4" y2="626.6"/>
		</g>
	</g>
	<g>
		<path fill="#CD5263" d="M220.6,474.1h-24.6v14.1c-0.1,0.6-0.1,1.1,0,1.7v0h0c0.2,2,1.4,3.9,3.3,5.1c5.2,3.1,11.6,3.2,16.8,0.1
			l1-0.6c1.9-1.1,2.9-2.8,3.3-4.7h0.2V474.1z"/>
		<path fill="#EC6D7A" d="M199.4,468.1L199.4,468.1c-4.6,2.7-4.7,9.3-0.1,12.1h0c5.2,3.1,11.6,3.2,16.8,0.1l1-0.6
			c4.5-2.6,4.5-9.2-0.1-11.7l0,0C211.6,464.9,204.9,464.9,199.4,468.1z"/>
	</g>
	<g>
		<path fill="#F39800" d="M186.5,454.8h-24.6v14.1c-0.1,0.6-0.1,1.1,0,1.7v0h0c0.2,2,1.4,3.9,3.3,5.1c5.2,3.1,11.6,3.2,16.8,0.1
			l1-0.6c1.9-1.1,2.9-2.8,3.3-4.7h0.2V454.8z"/>
		<path fill="#F8B62D" d="M165.4,448.8L165.4,448.8c-4.6,2.7-4.7,9.3-0.1,12.1h0c5.2,3.1,11.6,3.2,16.8,0.1l1-0.6
			c4.5-2.6,4.5-9.2-0.1-11.7l0,0C177.6,445.6,170.9,445.6,165.4,448.8z"/>
	</g>
	<g>
		<path fill="#259EBB" d="M253.7,493.4H229v14.1c-0.1,0.6-0.1,1.1,0,1.7v0h0c0.2,2,1.4,3.9,3.3,5.1c5.2,3.1,11.6,3.2,16.8,0.1l1-0.6
			c1.9-1.1,2.9-2.8,3.3-4.7h0.2V493.4z"/>
		<path fill="#38BBE0" d="M232.6,487.4L232.6,487.4c-4.6,2.7-4.7,9.3-0.1,12.1h0c5.2,3.1,11.6,3.2,16.8,0.1l1-0.6
			c4.5-2.6,4.5-9.2-0.1-11.7l0,0C244.7,484.2,238,484.3,232.6,487.4z"/>
	</g>
	<path fill="#8CD1EA" d="M125.7,483.4c-0.6-0.8-1.4-0.9-2.1-0.5l0,0l0,0c0,0,0,0,0,0l-1.1,0.7l0.2,0.7c-0.3,1.1-0.1,2.4,0.5,3.2
		c0.2,0.3,0.4,0.4,0.6,0.6l0.2,0.7l1-0.6l0,0c0.3-0.1,0.6-0.4,0.9-0.8C126.7,486.2,126.6,484.4,125.7,483.4z"/>
	<path fill="#C5E6F3" d="M121.7,484.3c0.7-1.1,1.9-1.2,2.7-0.1c0.8,1,0.9,2.8,0.2,4c-0.2,0.4-0.5,0.7-0.9,0.8
		c-0.6,0.3-1.3,0.1-1.9-0.6C121.2,487.2,121.1,485.4,121.7,484.3z"/>
	<circle fill="#F8B62D" cx="135.1" cy="337.5" r="9.5"/>
	<circle fill="#F094AA" cx="138.1" cy="327.9" r="9.5"/>
	<circle fill="#F8B62D" cx="155.1" cy="331.3" r="9.5"/>
	<circle fill="#F094AA" cx="164.7" cy="342.5" r="9.5"/>
	<g>
		<defs>
			<polygon id="SVGID_51_" points="72.1,319.6 147,362.3 223.9,318.8 142.8,300.2 			"/>
		</defs>
		<clipPath id="SVGID_52_">
			<use xlink:href="#SVGID_51_"  overflow="visible"/>
		</clipPath>
		<g clip-path="url(#SVGID_52_)">
			<circle fill="#F7F8F8" cx="146" cy="339.1" r="9.5"/>
			<circle fill="#F7F8F8" cx="180.2" cy="332.6" r="9.5"/>
			<circle fill="#38BBE0" cx="167.3" cy="326.2" r="9.5"/>
			<circle fill="#C5E6F3" cx="163.9" cy="322" r="1.7"/>
			<circle fill="#F7F8F8" cx="148" cy="317" r="9.5"/>
			<circle fill="#38BBE0" cx="113" cy="331.3" r="9.5"/>
			<circle fill="#38BBE0" cx="190.5" cy="325.4" r="9.5"/>
			<circle fill="#F8B62D" cx="129" cy="339.1" r="9.5"/>
			<circle fill="#F8B62D" cx="131.6" cy="318.7" r="9.5"/>
			<circle fill="#F8B62D" cx="155.5" cy="348.9" r="9.5"/>
			<circle fill="#38BBE0" cx="139.3" cy="351.7" r="9.5"/>
			<circle fill="#F5CC29" cx="127.2" cy="314.2" r="1.6"/>
		</g>
		<circle clip-path="url(#SVGID_52_)" fill="#F094AA" cx="148" cy="355.9" r="9.5"/>
		<circle clip-path="url(#SVGID_52_)" fill="#F3B8C9" cx="145.1" cy="351.1" r="1.8"/>
	</g>
	<circle fill="#F7F8F8" cx="123.2" cy="337.5" r="9.5"/>
	<circle fill="#C5E6F3" cx="187.7" cy="321" r="1.7"/>
	<circle fill="#C5E6F3" cx="108.2" cy="328.1" r="1.6"/>
	<path fill="none" d="M395,591.6c0,3.3-2.7,6.1-6.1,6.1c-3.3,0-6.1-2.7-6.1-6.1c0-0.8,0.2-1.6,0.5-2.3c0.9-2.2,3.1-3.8,5.6-3.8
		C392.3,585.6,395,588.3,395,591.6z"/>
	<g>
		<path fill="#44778C" d="M320,307.4c0.1-0.3,0.1-0.6,0-0.8v-3l-2.1,1.1l-14.2-8.3c-1.8-1.1-4.9-1.2-6.8-0.2l-15.2,7.9
			c-0.1,0-0.1,0.1-0.2,0.1l-1.3-0.6l0.1,1.9c-0.1,0.4-0.1,0.8,0.1,1.2l0,0l0,0c0.2,0.4,0.6,0.8,1.2,1.2l15.3,8.9
			c0.7,0.4,1.5,0.6,2.3,0.8l0.2,0.1l0.1-0.1c1.5,0.2,3-0.1,4.2-0.7l14.9-8C319.4,308.5,319.9,308,320,307.4L320,307.4L320,307.4z"/>
		<path fill="#259EBB" d="M303.7,293.3c-1.8-1.1-4.9-1.2-6.8-0.2l-15.2,7.9c-1.9,1-1.9,2.7-0.1,3.8l15.3,8.9
			c1.8,1.1,4.9,1.1,6.8,0.1l14.9-8c1.9-1,1.9-2.7,0.1-3.8L303.7,293.3z"/>
		<circle fill="#F7F8F8" cx="300.2" cy="296.3" r="10.2"/>
		<g>
			<path opacity="0.51" fill="#8CD1EA" d="M320,303.7L320,303.7l0-20.6l-18.5,9.6l-21.1-10.4v20.2c-0.4,0.9,0,1.8,1.2,2.5L297,314
				c1.1,0.7,2.7,0.9,4.2,0.8l0,0l0,0c1-0.1,1.9-0.3,2.6-0.7l14.9-8C319.8,305.5,320.3,304.6,320,303.7z"/>
			<path fill="#38BBE0" d="M320,283.1c0.1-0.3,0.1-0.6,0-0.8v-3l-2.1,1.1l-14.2-8.3c-1.8-1.1-4.9-1.2-6.8-0.2l-15.2,7.9
				c-0.1,0-0.1,0.1-0.2,0.1l-1.3-0.6l0.1,1.9c-0.1,0.4-0.1,0.8,0.1,1.2l0,0l0,0c0.2,0.4,0.6,0.8,1.2,1.2l15.3,8.9
				c0.7,0.4,1.5,0.6,2.3,0.8l0.2,0.1l0.1-0.1c1.5,0.2,3-0.1,4.2-0.7l14.9-8C319.4,284.2,319.9,283.7,320,283.1L320,283.1L320,283.1z
				"/>
			<path fill="#259EBB" d="M303.7,269c-1.8-1.1-4.9-1.2-6.8-0.2l-15.2,7.9c-1.9,1-1.9,2.7-0.1,3.8l15.3,8.9c1.8,1.1,4.9,1.1,6.8,0.1
				l14.9-8c1.9-1,1.9-2.7,0.1-3.8L303.7,269z"/>
		</g>
	</g>
	<g>
		<path fill="#44778C" d="M279.6,331.2c0.1-0.3,0.1-0.6,0-0.8v-3l-2.1,1.1l-14.2-8.3c-1.8-1.1-4.9-1.2-6.8-0.2l-15.2,7.9
			c-0.1,0-0.1,0.1-0.2,0.1l-1.3-0.6l0.1,1.9c-0.1,0.4-0.1,0.8,0.1,1.2l0,0l0,0c0.2,0.4,0.6,0.8,1.2,1.2l15.3,8.9
			c0.7,0.4,1.5,0.6,2.3,0.8l0.2,0.1l0.1-0.1c1.5,0.2,3-0.1,4.2-0.7l14.9-8C279,332.3,279.4,331.8,279.6,331.2L279.6,331.2
			L279.6,331.2z"/>
		<path fill="#259EBB" d="M263.3,317.1c-1.8-1.1-4.9-1.2-6.8-0.2l-15.2,7.9c-1.9,1-1.9,2.7-0.1,3.8l15.3,8.9
			c1.8,1.1,4.9,1.1,6.8,0.1l14.9-8c1.9-1,1.9-2.7,0.1-3.8L263.3,317.1z"/>
		<circle fill="#F7F8F8" cx="259.8" cy="320.1" r="10.2"/>
		<g>
			<path opacity="0.51" fill="#8CD1EA" d="M279.6,327.5L279.6,327.5l0-20.6l-18.5,9.6l-21.1-10.4v20.2c-0.4,0.9,0,1.8,1.2,2.5
				l15.3,8.9c1.1,0.7,2.7,0.9,4.2,0.8l0,0l0,0c1-0.1,1.9-0.3,2.6-0.7l14.9-8C279.4,329.2,279.9,328.3,279.6,327.5z"/>
			<path fill="#38BBE0" d="M279.6,306.8c0.1-0.3,0.1-0.6,0-0.8v-3l-2.1,1.1l-14.2-8.3c-1.8-1.1-4.9-1.2-6.8-0.2l-15.2,7.9
				c-0.1,0-0.1,0.1-0.2,0.1l-1.3-0.6l0.1,1.9c-0.1,0.4-0.1,0.8,0.1,1.2l0,0l0,0c0.2,0.4,0.6,0.8,1.2,1.2l15.3,8.9
				c0.7,0.4,1.5,0.6,2.3,0.8l0.2,0.1l0.1-0.1c1.5,0.2,3-0.1,4.2-0.7l14.9-8C279,307.9,279.4,307.4,279.6,306.8L279.6,306.8
				L279.6,306.8z"/>
			<path fill="#259EBB" d="M263.3,292.7c-1.8-1.1-4.9-1.2-6.8-0.2l-15.2,7.9c-1.9,1-1.9,2.7-0.1,3.8l15.3,8.9
				c1.8,1.1,4.9,1.1,6.8,0.1l14.9-8c1.9-1,1.9-2.7,0.1-3.8L263.3,292.7z"/>
		</g>
	</g>
	<g>
		<path fill="#1A8294" d="M447.7,294.7H291.4c-4.5,0-8.3,4-8.3,8.9v55.8c0,4.9,3.7,8.9,8.3,8.9H360l9.6,17.8l9.6-17.8h68.6
			c4.5,0,8.3-4,8.3-8.9v-55.8C456,298.7,452.2,294.7,447.7,294.7z"/>
		<path fill="#38BBE0" d="M447.7,287.9H291.4c-4.5,0-8.3,4-8.3,8.9v55.8c0,4.9,3.7,8.9,8.3,8.9H360l9.6,17.8l9.6-17.8h68.6
			c4.5,0,8.3-4,8.3-8.9v-55.8C456,291.9,452.2,287.9,447.7,287.9z"/>
		<text transform="matrix(1 0 0 1 314.9058 315.8489)"><tspan x="0" y="0" fill="#F7F8F8" font-family="'DINPro-Bold'" font-size="22.5016">Drop your</tspan><tspan x="0" y="27" fill="#F7F8F8" font-family="'DINPro-Bold'" font-size="22.5016">idea there!</tspan></text>
	</g>
</g>
<g id="圖層_9">
</g>
<g id="圖層_11">
	<g>
		<g>
			<path fill="#259EBB" d="M90.4,331.5c1.3,0,2.4-1.2,2.4-2.7v-14.1c0-1.5-1.1-2.7-2.4-2.7s-2.4,1.2-2.4,2.7v14.1
				C88,330.2,89.1,331.5,90.4,331.5z"/>
			<g>
				<defs>
					<path id="SVGID_53_" d="M90.4,331.5c1.3,0,2.4-1.2,2.4-2.7v-14.1c0-1.5-1.1-2.7-2.4-2.7s-2.4,1.2-2.4,2.7v14.1
						C88,330.2,89.1,331.5,90.4,331.5z"/>
				</defs>
				<clipPath id="SVGID_54_">
					<use xlink:href="#SVGID_53_"  overflow="visible"/>
				</clipPath>
				<path clip-path="url(#SVGID_54_)" fill="#FCE4C9" d="M95.3,325.8c0,0-3.1,4.9-7.9,1.1c-4.8-3.8,0.8,10.2,0.8,10.2l6.1-1.2
					l0.9-9.1V325.8z"/>
			</g>
		</g>
		<path fill="#38BBE0" d="M93.6,319.8h1.2c5.8,0,10.5-4.7,10.5-10.5v-3.7v-8.5c0-5.8-4.7-10.5-10.5-10.5h-1.2
			c-5.8,0-10.5,4.7-10.5,10.5v12.2C83.1,315.1,87.8,319.8,93.6,319.8z"/>
		<g>
			<defs>
				<path id="SVGID_55_" d="M93.6,319.8h1.2c5.8,0,10.5-4.7,10.5-10.5v-3.7v-8.5c0-5.8-4.7-10.5-10.5-10.5h-1.2
					c-5.8,0-10.5,4.7-10.5,10.5v12.2C83.1,315.1,87.8,319.8,93.6,319.8z"/>
			</defs>
			<clipPath id="SVGID_56_">
				<use xlink:href="#SVGID_55_"  overflow="visible"/>
			</clipPath>
			<path clip-path="url(#SVGID_56_)" fill="#259EBB" d="M83.7,306.5l-2.1-1.2l-2.2,10.1l7.9,5.8l13.1,3.1l6.7-3.1l1.6-11.3l-1.6-5.2
				l-2.6,1.6C98.2,310.2,90.2,310.2,83.7,306.5z"/>
		</g>
		<path fill="#FCE4C9" d="M88.6,282.7c0,3.5,2.9,6.4,6.4,6.4s6.4-2.9,6.4-6.4c0-0.9-0.2-1.7-0.5-2.4c-1-2.3-3.2-4-5.9-4
			C91.4,276.3,88.6,279.1,88.6,282.7z"/>
		<g>
			<line fill="#38BBE0" x1="103" y1="298" x2="106.7" y2="313.8"/>
			<path fill="#FCE4C9" d="M106.7,315.4c0.1,0,0.3,0,0.4,0c0.9-0.2,1.4-1.1,1.2-2l-3.7-15.8c-0.2-0.9-1.1-1.4-2-1.2
				c-0.9,0.2-1.4,1.1-1.2,2l3.7,15.8C105.3,314.9,106,315.4,106.7,315.4z"/>
		</g>
		<circle fill="#38BBE0" cx="102.6" cy="296.4" r="2.6"/>
		<g>
			<path fill="#259EBB" d="M96.8,335.8c1.3,0,2.4-1.2,2.4-2.7V319c0-1.5-1.1-2.7-2.4-2.7c-1.3,0-2.4,1.2-2.4,2.7v14.1
				C94.4,334.6,95.5,335.8,96.8,335.8z"/>
			<g>
				<defs>
					<path id="SVGID_57_" d="M96.8,335.8c1.3,0,2.4-1.2,2.4-2.7V319c0-1.5-1.1-2.7-2.4-2.7c-1.3,0-2.4,1.2-2.4,2.7v14.1
						C94.4,334.6,95.5,335.8,96.8,335.8z"/>
				</defs>
				<clipPath id="SVGID_58_">
					<use xlink:href="#SVGID_57_"  overflow="visible"/>
				</clipPath>
				<path clip-path="url(#SVGID_58_)" fill="#FCE4C9" d="M100.6,329.9c0,0-3.1,4.9-7.9,1.1c-4.8-3.8,0.8,10.2,0.8,10.2l6.1-1.2
					l0.9-9.1V329.9z"/>
			</g>
		</g>
		<g>
			<path fill="#259EBB" d="M99.8,275.7l1.9-1c0.8-0.5,1.9-0.3,2.6,0.3l0,0c1.5,1.3,1.3,3.8-0.4,4.9l-4.8,2.9l-1.8-4L99.8,275.7z"/>
			<path fill="#38BBE0" d="M101.6,279.7c-0.3,1.2-1.1,2.2-2.2,2.7h0c-0.6,0.3-1.2,0.6-1.8,0.8c-0.2,0.1-0.5,0.1-0.7,0.2
				c-0.3,0.1-0.7,0.1-1,0.2c-2.3,0.3-4.6-0.2-6.6-1.4l-0.8-2.2l0.5-3.4c0.2-1.5,1.2-2.8,2.7-3.5l2.2-1c0.8-0.3,1.6-0.5,2.4-0.3
				l1,0.1c1.4,0.2,2.7,1.1,3.4,2.3l0.7,1.3c0.6,1,0.7,2.2,0.4,3.4L101.6,279.7z"/>
		</g>
	</g>
	<g>
		<g>
			<path fill="#EEA21D" d="M212,330.2c-1.3,0-2.4-1.2-2.4-2.7v-14.1c0-1.5,1.1-2.7,2.4-2.7c1.3,0,2.4,1.2,2.4,2.7v14.1
				C214.3,329,213.3,330.2,212,330.2z"/>
			<g>
				<defs>
					<path id="SVGID_59_" d="M212,330.2c-1.3,0-2.4-1.2-2.4-2.7v-14.1c0-1.5,1.1-2.7,2.4-2.7c1.3,0,2.4,1.2,2.4,2.7v14.1
						C214.3,329,213.3,330.2,212,330.2z"/>
				</defs>
				<clipPath id="SVGID_60_">
					<use xlink:href="#SVGID_59_"  overflow="visible"/>
				</clipPath>
				<path clip-path="url(#SVGID_60_)" fill="#FCE4C9" d="M207.1,324.6c0,0,3.1,4.9,7.9,1.1c4.8-3.8-0.8,10.2-0.8,10.2l-6.1-1.2
					l-0.9-9.1V324.6z"/>
			</g>
		</g>
		<path fill="#F5CD28" d="M208.7,318.6h-1.2c-5.8,0-10.5-4.7-10.5-10.5v-3.7v-8.5c0-5.8,4.7-10.5,10.5-10.5h1.2
			c5.8,0,10.5,4.7,10.5,10.5v12.2C219.2,313.8,214.5,318.6,208.7,318.6z"/>
		<g>
			<defs>
				<path id="SVGID_61_" d="M208.7,318.6h-1.2c-5.8,0-10.5-4.7-10.5-10.5v-3.7v-8.5c0-5.8,4.7-10.5,10.5-10.5h1.2
					c5.8,0,10.5,4.7,10.5,10.5v12.2C219.2,313.8,214.5,318.6,208.7,318.6z"/>
			</defs>
			<clipPath id="SVGID_62_">
				<use xlink:href="#SVGID_61_"  overflow="visible"/>
			</clipPath>
			<path clip-path="url(#SVGID_62_)" fill="#EEA21D" d="M218.6,305.3l2.1-1.2l2.2,10.1L215,320l-13.1,3.1l-6.7-3.1l-1.6-11.3
				l1.6-5.2l2.6,1.6C204.2,308.9,212.2,309,218.6,305.3z"/>
		</g>
		<path fill="#FCE4C9" d="M213.8,281.4c0,3.5-2.9,6.4-6.4,6.4c-3.5,0-6.4-2.9-6.4-6.4c0-0.9,0.2-1.7,0.5-2.4c1-2.3,3.2-4,5.9-4
			C210.9,275,213.8,277.9,213.8,281.4z"/>
		<g>
			<line fill="#F5CD28" x1="199.4" y1="296.8" x2="195.7" y2="312.6"/>
			<path fill="#FCE4C9" d="M195.7,314.2c-0.1,0-0.3,0-0.4,0c-0.9-0.2-1.4-1.1-1.2-2l3.7-15.8c0.2-0.9,1.1-1.4,2-1.2
				c0.9,0.2,1.4,1.1,1.2,2l-3.7,15.8C197.1,313.7,196.4,314.2,195.7,314.2z"/>
		</g>
		<path fill="#F39800" d="M202.8,274l-1.9-1.1c-0.8-0.5-1.9-0.4-2.6,0.2l0,0c-1.6,1.3-1.4,3.8,0.3,4.9l4.7,3l1.9-3.9L202.8,274z"/>
		<path fill="#F8B62D" d="M201.5,278.8c0.3,1.2,1.1,2.2,2.2,2.7l0,0c0.6,0.3,1.2,0.6,1.8,0.8c0.2,0.1,0.5,0.1,0.7,0.2
			c0.3,0.1,0.7,0.1,1,0.2c2.3,0.3,4.6-0.2,6.6-1.4l0.8-2.2l-0.5-3.4c-0.2-1.5-1.2-2.8-2.7-3.5l-2.2-1c-0.8-0.3-1.6-0.5-2.4-0.3
			l-1,0.1c-1.4,0.2-2.7,1.1-3.4,2.3l-0.7,1.3c-0.6,1-0.7,2.2-0.4,3.4L201.5,278.8z"/>
		<circle fill="#F5CD28" cx="199.8" cy="295.2" r="2.6"/>
		<g>
			<path fill="#EEA21D" d="M205.6,334.6c-1.3,0-2.4-1.2-2.4-2.7v-14.1c0-1.5,1.1-2.7,2.4-2.7c1.3,0,2.4,1.2,2.4,2.7v14.1
				C207.9,333.3,206.9,334.6,205.6,334.6z"/>
			<g>
				<defs>
					<path id="SVGID_63_" d="M205.6,334.6c-1.3,0-2.4-1.2-2.4-2.7v-14.1c0-1.5,1.1-2.7,2.4-2.7c1.3,0,2.4,1.2,2.4,2.7v14.1
						C207.9,333.3,206.9,334.6,205.6,334.6z"/>
				</defs>
				<clipPath id="SVGID_64_">
					<use xlink:href="#SVGID_63_"  overflow="visible"/>
				</clipPath>
				<path clip-path="url(#SVGID_64_)" fill="#FCE4C9" d="M201.7,328.7c0,0,3.1,4.9,7.9,1.1c4.8-3.8-0.8,10.2-0.8,10.2l-6.1-1.2
					l-0.9-9.1V328.7z"/>
			</g>
		</g>
	</g>
	<g>
		<g>
			<path fill="#259EBB" d="M404.4,637c-1.3,0-2.4-1.2-2.4-2.7v-14.1c0-1.5,1.1-2.7,2.4-2.7c1.3,0,2.4,1.2,2.4,2.7v14.1
				C406.8,635.8,405.7,637,404.4,637z"/>
			<g>
				<defs>
					<path id="SVGID_65_" d="M404.4,637c-1.3,0-2.4-1.2-2.4-2.7v-14.1c0-1.5,1.1-2.7,2.4-2.7c1.3,0,2.4,1.2,2.4,2.7v14.1
						C406.8,635.8,405.7,637,404.4,637z"/>
				</defs>
				<clipPath id="SVGID_66_">
					<use xlink:href="#SVGID_65_"  overflow="visible"/>
				</clipPath>
				<path clip-path="url(#SVGID_66_)" fill="#FCE4C9" d="M399.5,631.4c0,0,3.1,4.9,7.9,1.1c4.8-3.8-0.8,10.2-0.8,10.2l-6.1-1.2
					l-0.9-9.1V631.4z"/>
			</g>
		</g>
		<path fill="#38BBE0" d="M401.2,625.4H400c-5.8,0-10.5-4.7-10.5-10.5v-3.7v-8.5c0-5.8,4.7-10.5,10.5-10.5h1.2
			c5.8,0,10.5,4.7,10.5,10.5v12.2C411.7,620.6,407,625.4,401.2,625.4z"/>
		<g>
			<defs>
				<path id="SVGID_67_" d="M401.2,625.4H400c-5.8,0-10.5-4.7-10.5-10.5v-3.7v-8.5c0-5.8,4.7-10.5,10.5-10.5h1.2
					c5.8,0,10.5,4.7,10.5,10.5v12.2C411.7,620.6,407,625.4,401.2,625.4z"/>
			</defs>
			<clipPath id="SVGID_68_">
				<use xlink:href="#SVGID_67_"  overflow="visible"/>
			</clipPath>
			<path clip-path="url(#SVGID_68_)" fill="#259EBB" d="M411.1,612.1l2.1-1.2l2.2,10.1l-7.9,5.8l-13.1,3.1l-6.7-3.1l-1.6-11.3
				l1.6-5.2l2.6,1.6C396.6,615.7,404.6,615.8,411.1,612.1z"/>
		</g>
		<path fill="#FCE4C9" d="M406.2,588.2c0,3.5-2.9,6.4-6.4,6.4s-6.4-2.9-6.4-6.4c0-0.9,0.2-1.7,0.5-2.4c1-2.3,3.2-4,5.9-4
			C403.4,581.8,406.2,584.7,406.2,588.2z"/>
		<g>
			<line fill="#38BBE0" x1="391.8" y1="603.6" x2="388.1" y2="619.4"/>
			<path fill="#FCE4C9" d="M388.1,621c-0.1,0-0.3,0-0.4,0c-0.9-0.2-1.4-1.1-1.2-2l3.7-15.8c0.2-0.9,1.1-1.4,2-1.2
				c0.9,0.2,1.4,1.1,1.2,2l-3.7,15.8C389.5,620.5,388.8,621,388.1,621z"/>
		</g>
		<path fill="#44778C" d="M393.4,586.9c0.3,1.2,1.1,2.2,2.2,2.7l0,0c0.6,0.3,1.2,0.6,1.8,0.8c0.2,0.1,0.5,0.1,0.7,0.2
			c0.3,0.1,0.7,0.1,1,0.2c2.3,0.3,4.6-0.2,6.6-1.4l1-0.6l-0.8-4.9c-0.2-1.5-1.2-2.8-2.7-3.5l-2.2-1c-0.8-0.3-1.6-0.5-2.4-0.3l-1,0.1
			c-1.4,0.2-2.7,1.1-3.4,2.3l-0.7,1.3c-0.6,1-0.7,2.2-0.4,3.4L393.4,586.9z"/>
		<circle fill="#38BBE0" cx="392.2" cy="602" r="2.6"/>
		<g>
			<path fill="#259EBB" d="M398,641.4c-1.3,0-2.4-1.2-2.4-2.7v-14.1c0-1.5,1.1-2.7,2.4-2.7c1.3,0,2.4,1.2,2.4,2.7v14.1
				C400.4,640.2,399.3,641.4,398,641.4z"/>
			<g>
				<defs>
					<path id="SVGID_69_" d="M398,641.4c-1.3,0-2.4-1.2-2.4-2.7v-14.1c0-1.5,1.1-2.7,2.4-2.7c1.3,0,2.4,1.2,2.4,2.7v14.1
						C400.4,640.2,399.3,641.4,398,641.4z"/>
				</defs>
				<clipPath id="SVGID_70_">
					<use xlink:href="#SVGID_69_"  overflow="visible"/>
				</clipPath>
				<path clip-path="url(#SVGID_70_)" fill="#FCE4C9" d="M394.2,635.5c0,0,3.1,4.9,7.9,1.1c4.8-3.8-0.8,10.2-0.8,10.2l-6.1-1.2
					l-0.9-9.1V635.5z"/>
			</g>
		</g>
	</g>
	<g>
		<g>
			<g>
				<path fill="#BB324B" d="M182.1,291.2c1.3,0,2.4-1.2,2.4-2.7v-14.1c0-1.5-1.1-2.7-2.4-2.7c-1.3,0-2.4,1.2-2.4,2.7v14.1
					C179.8,290,180.8,291.2,182.1,291.2z"/>
				<g>
					<defs>
						<path id="SVGID_71_" d="M182.1,291.2c1.3,0,2.4-1.2,2.4-2.7v-14.1c0-1.5-1.1-2.7-2.4-2.7c-1.3,0-2.4,1.2-2.4,2.7v14.1
							C179.8,290,180.8,291.2,182.1,291.2z"/>
					</defs>
					<clipPath id="SVGID_72_">
						<use xlink:href="#SVGID_71_"  overflow="visible"/>
					</clipPath>
					<path clip-path="url(#SVGID_72_)" fill="#FCE4C9" d="M187.1,285.6c0,0-3.1,4.9-7.9,1.1c-4.8-3.8,0.8,10.2,0.8,10.2l6.1-1.2
						l0.9-9.1V285.6z"/>
				</g>
			</g>
			<path fill="#E9506A" d="M185.4,279.6h1.2c5.8,0,10.5-4.7,10.5-10.5v-3.7v-8.5c0-5.8-4.7-10.5-10.5-10.5h-1.2
				c-5.8,0-10.5,4.7-10.5,10.5v12.2C174.9,274.9,179.6,279.6,185.4,279.6z"/>
			<g>
				<defs>
					<path id="SVGID_73_" d="M185.4,279.6h1.2c5.8,0,10.5-4.7,10.5-10.5v-3.7v-8.5c0-5.8-4.7-10.5-10.5-10.5h-1.2
						c-5.8,0-10.5,4.7-10.5,10.5v12.2C174.9,274.9,179.6,279.6,185.4,279.6z"/>
				</defs>
				<clipPath id="SVGID_74_">
					<use xlink:href="#SVGID_73_"  overflow="visible"/>
				</clipPath>
				<path clip-path="url(#SVGID_74_)" fill="#BB324B" d="M175.5,266.3l-2.1-1.2l-2.2,10.1l7.9,5.8l13.1,3.1l6.7-3.1l1.6-11.3
					l-1.6-5.2l-2.6,1.6C189.9,269.9,182,270,175.5,266.3z"/>
			</g>
			<path fill="#FCE4C9" d="M175.7,243.9c0,3.5,2.9,6.4,6.4,6.4c3.5,0,6.4-2.9,6.4-6.4c0-0.9-0.2-1.7-0.5-2.4c-1-2.3-3.2-4-5.9-4
				C178.6,237.5,175.7,240.4,175.7,243.9z"/>
			<g>
				<line fill="#38BBE0" x1="193.7" y1="257.6" x2="193.6" y2="273.8"/>
				<path fill="#FCE4C9" d="M193.2,275.4c0.1,0,0.2,0,0.4,0c0.9,0,1.6-0.7,1.6-1.6l0.1-16.2c0-0.9-0.7-1.6-1.6-1.6
					c-0.9,0-1.6,0.7-1.6,1.6l-0.1,16.2C191.9,274.6,192.5,275.2,193.2,275.4z"/>
			</g>
			<circle fill="#E9506A" cx="193.7" cy="256" r="2.6"/>
			<g>
				<path fill="#BB324B" d="M188.5,295.6c1.3,0,2.4-1.2,2.4-2.7v-14.1c0-1.5-1.1-2.7-2.4-2.7s-2.4,1.2-2.4,2.7v14.1
					C186.2,294.4,187.2,295.6,188.5,295.6z"/>
				<g>
					<defs>
						<path id="SVGID_75_" d="M188.5,295.6c1.3,0,2.4-1.2,2.4-2.7v-14.1c0-1.5-1.1-2.7-2.4-2.7s-2.4,1.2-2.4,2.7v14.1
							C186.2,294.4,187.2,295.6,188.5,295.6z"/>
					</defs>
					<clipPath id="SVGID_76_">
						<use xlink:href="#SVGID_75_"  overflow="visible"/>
					</clipPath>
					<path clip-path="url(#SVGID_76_)" fill="#FCE4C9" d="M192.4,289.7c0,0-3.1,4.9-7.9,1.1c-4.8-3.8,0.8,10.2,0.8,10.2l6.1-1.2
						l0.9-9.1V289.7z"/>
				</g>
			</g>
		</g>
		<path fill="#F094AA" d="M176.1,243.7l-1,1.1c-0.6,0.7-0.3,1.9,0.6,2.1l1.9,0.5c1.4,0.4,2.8,0.1,3.9-0.8l6.9-5.4L176.1,243.7z"/>
		<path fill="#E9506A" d="M183,236.3l1.7,0.5c1.2,0.3,2.2,1.2,2.7,2.3l1,2.2l-1.8,1.5c-1.9,1.2-4.8,2.1-9.2,1.5l-1.4-0.5l-0.7-3.9
			c-0.1-0.7,0.1-1.4,0.7-1.9l0,0C178,236.2,180.6,235.6,183,236.3z"/>
	</g>
	<g>
		<g>
			<g>
				<path fill="#BB324B" d="M373.1,99.2c1.3,0,2.4-1.2,2.4-2.7V82.4c0-1.5-1.1-2.7-2.4-2.7c-1.3,0-2.4,1.2-2.4,2.7v14.1
					C370.7,98,371.8,99.2,373.1,99.2z"/>
				<g>
					<defs>
						<path id="SVGID_77_" d="M373.1,99.2c1.3,0,2.4-1.2,2.4-2.7V82.4c0-1.5-1.1-2.7-2.4-2.7c-1.3,0-2.4,1.2-2.4,2.7v14.1
							C370.7,98,371.8,99.2,373.1,99.2z"/>
					</defs>
					<clipPath id="SVGID_78_">
						<use xlink:href="#SVGID_77_"  overflow="visible"/>
					</clipPath>
					<path clip-path="url(#SVGID_78_)" fill="#FCE4C9" d="M378,93.6c0,0-3.1,4.9-7.9,1.1s0.8,10.2,0.8,10.2l6.1-1.2l0.9-9.1V93.6z"
						/>
				</g>
			</g>
			<path fill="#E9506A" d="M375.5,87.6h1.1c5.3,0,9.7-4.7,9.7-10.5v-3.7v-8.5c0-5.8-4.4-10.5-9.7-10.5h-1.1c-5.3,0-9.7,4.7-9.7,10.5
				V77C365.8,82.8,370.2,87.6,375.5,87.6z"/>
			<g>
				<defs>
					<path id="SVGID_79_" d="M376.3,87.6h1.2c5.8,0,10.5-4.7,10.5-10.5v-3.7v-8.5c0-5.8-4.7-10.5-10.5-10.5h-1.2
						c-5.8,0-10.5,4.7-10.5,10.5V77C365.8,83,370.6,88,376.3,87.6z"/>
				</defs>
				<clipPath id="SVGID_80_">
					<use xlink:href="#SVGID_79_"  overflow="visible"/>
				</clipPath>
				<path clip-path="url(#SVGID_80_)" fill="#BB324B" d="M365.9,74.2l-1.8-1.2l-1.9,10.1L369,89l11.3,3.1l5.8-3.1l0.1-10.6l-0.1-5.9
					l-2.3,1.6C378.3,77.9,371.4,78,365.9,74.2z"/>
			</g>
			<path fill="#FCE4C9" d="M366.7,51.9c0,3.5,2.9,6.4,6.4,6.4s6.4-2.9,6.4-6.4c0-0.9-0.2-1.7-0.5-2.4c-1-2.3-3.2-4-5.9-4
				C369.5,45.5,366.7,48.4,366.7,51.9z"/>
			<g>
				<line fill="#38BBE0" x1="382.9" y1="65.6" x2="382.7" y2="81.8"/>
				<path fill="#FCE4C9" d="M382.3,83.4c0.1,0,0.2,0,0.4,0c0.9,0,1.6-0.7,1.6-1.6l0.1-16.2c0-0.9-0.7-1.6-1.6-1.6
					c-0.9,0-1.6,0.7-1.6,1.6l-0.1,16.2C381.1,82.5,381.6,83.2,382.3,83.4z"/>
			</g>
			<circle fill="#E9506A" cx="382.9" cy="63.9" r="2.6"/>
			<g>
				<path fill="#BB324B" d="M379.5,103.6c1.3,0,2.4-1.2,2.4-2.7V86.7c0-1.5-1.1-2.7-2.4-2.7c-1.3,0-2.4,1.2-2.4,2.7v14.1
					C377.1,102.3,378.2,103.6,379.5,103.6z"/>
				<g>
					<defs>
						<path id="SVGID_81_" d="M379.5,103.6c1.3,0,2.4-1.2,2.4-2.7V86.7c0-1.5-1.1-2.7-2.4-2.7c-1.3,0-2.4,1.2-2.4,2.7v14.1
							C377.1,102.3,378.2,103.6,379.5,103.6z"/>
					</defs>
					<clipPath id="SVGID_82_">
						<use xlink:href="#SVGID_81_"  overflow="visible"/>
					</clipPath>
					<path clip-path="url(#SVGID_82_)" fill="#FCE4C9" d="M383.3,97.7c0,0-3.1,4.9-7.9,1.1c-4.8-3.8,0.8,10.2,0.8,10.2l6.1-1.2
						l0.9-9.1V97.7z"/>
				</g>
			</g>
		</g>
		<path fill="#F094AA" d="M367.1,51.7l-1,1.1c-0.6,0.7-0.3,1.9,0.6,2.1l1.9,0.5c1.4,0.4,2.8,0.1,3.9-0.8l6.9-5.4L367.1,51.7z"/>
		<path fill="#E9506A" d="M373.9,44.3l1.7,0.5c1.2,0.3,2.2,1.2,2.7,2.3l1,2.2l-1.8,1.5c-1.9,1.2-4.8,2.1-9.2,1.5l-1.4-0.5l-0.7-3.9
			c-0.1-0.7,0.1-1.4,0.7-1.9l0,0C368.9,44.2,371.5,43.6,373.9,44.3z"/>
	</g>
	<g>
		<g>
			<g>
				<path fill="#BCBBBB" d="M118.8,288.4c-1.3,0-2.4-1.2-2.4-2.7v-14.1c0-1.5,1.1-2.7,2.4-2.7c1.3,0,2.4,1.2,2.4,2.7v14.1
					C121.2,287.2,120.1,288.4,118.8,288.4z"/>
				<g>
					<defs>
						<path id="SVGID_83_" d="M118.8,288.4c-1.3,0-2.4-1.2-2.4-2.7v-14.1c0-1.5,1.1-2.7,2.4-2.7c1.3,0,2.4,1.2,2.4,2.7v14.1
							C121.2,287.2,120.1,288.4,118.8,288.4z"/>
					</defs>
					<clipPath id="SVGID_84_">
						<use xlink:href="#SVGID_83_"  overflow="visible"/>
					</clipPath>
					<path clip-path="url(#SVGID_84_)" fill="#FCE4C9" d="M113.9,282.7c0,0,3.1,4.9,7.9,1.1c4.8-3.8-0.8,10.2-0.8,10.2l-6.1-1.2
						l-0.9-9.1V282.7z"/>
				</g>
			</g>
			<path fill="#5D5E5E" d="M115.6,276.7h-1.2c-5.8,0-10.5-4.7-10.5-10.5v-3.7V254c0-5.8,4.7-10.5,10.5-10.5h1.2
				c5.8,0,10.5,4.7,10.5,10.5v12.2C126.1,272,121.4,276.7,115.6,276.7z"/>
			<g>
				<defs>
					<path id="SVGID_85_" d="M115.6,276.7h-1.2c-5.8,0-10.5-4.7-10.5-10.5v-3.7V254c0-5.8,4.7-10.5,10.5-10.5h1.2
						c5.8,0,10.5,4.7,10.5,10.5v12.2C126.1,272,121.4,276.7,115.6,276.7z"/>
				</defs>
				<clipPath id="SVGID_86_">
					<use xlink:href="#SVGID_85_"  overflow="visible"/>
				</clipPath>
				<path clip-path="url(#SVGID_86_)" fill="#BCBBBB" d="M125.5,263.4l2.1-1.2l2.2,10.1l-7.9,5.8l-13.1,3.1l-6.7-3.1l-1.6-11.3
					l1.6-5.2l2.6,1.6C111,267.1,119,267.2,125.5,263.4z"/>
			</g>
			<path fill="#FCE4C9" d="M125.2,241.1c0,3.5-2.9,6.4-6.4,6.4s-6.4-2.9-6.4-6.4c0-0.9,0.2-1.7,0.5-2.4c1-2.3,3.2-4,5.9-4
				C122.4,234.7,125.2,237.6,125.2,241.1z"/>
			<g>
				<line fill="#E0E0E0" x1="107.3" y1="254.7" x2="107.4" y2="271"/>
				<path fill="#FCE4C9" d="M107.8,272.5c-0.1,0-0.2,0-0.4,0c-0.9,0-1.6-0.7-1.6-1.6l-0.1-16.2c0-0.9,0.7-1.6,1.6-1.6
					c0.9,0,1.6,0.7,1.6,1.6L109,271C109,271.7,108.5,272.4,107.8,272.5z"/>
			</g>
			<circle fill="#5D5E5E" cx="107.3" cy="253.1" r="2.6"/>
			<g>
				<path fill="#BCBBBB" d="M112.4,292.8c-1.3,0-2.4-1.2-2.4-2.7v-14.1c0-1.5,1.1-2.7,2.4-2.7c1.3,0,2.4,1.2,2.4,2.7V290
					C114.8,291.5,113.7,292.8,112.4,292.8z"/>
				<g>
					<defs>
						<path id="SVGID_87_" d="M112.4,292.8c-1.3,0-2.4-1.2-2.4-2.7v-14.1c0-1.5,1.1-2.7,2.4-2.7c1.3,0,2.4,1.2,2.4,2.7V290
							C114.8,291.5,113.7,292.8,112.4,292.8z"/>
					</defs>
					<clipPath id="SVGID_88_">
						<use xlink:href="#SVGID_87_"  overflow="visible"/>
					</clipPath>
					<path clip-path="url(#SVGID_88_)" fill="#FCE4C9" d="M108.6,286.8c0,0,3.1,4.9,7.9,1.1c4.8-3.8-0.8,10.2-0.8,10.2l-6.1-1.2
						l-0.9-9.1V286.8z"/>
				</g>
			</g>
		</g>
		<path fill="#7A7A7A" d="M124.9,240.9l1,1.1c0.6,0.7,0.3,1.9-0.6,2.1l-1.9,0.5c-1.4,0.4-2.8,0.1-3.9-0.8l-6.9-5.4L124.9,240.9z"/>
		<path fill="#5D5E5E" d="M118,233.5l-1.7,0.5c-1.2,0.3-2.2,1.2-2.7,2.3l-1,2.2l1.8,1.5c1.9,1.2,4.8,2.1,9.2,1.5l1.4-0.5l0.7-3.9
			c0.1-0.7-0.1-1.4-0.7-1.9h0C123,233.4,120.4,232.8,118,233.5z"/>
	</g>
</g>
</svg>
