<?xml version="1.0" encoding="UTF-8" standalone="no"?>
<svg width="70px" height="70px" viewBox="0 0 70 70" version="1.1" xmlns="http://www.w3.org/2000/svg" xmlns:xlink="http://www.w3.org/1999/xlink">
    <!-- Generator: Sketch 39.1 (31720) - http://www.bohemiancoding.com/sketch -->
    <title>畢業生/彩色</title>
    <desc>Created with Sketch.</desc>
    <defs></defs>
    <g id="Symbols" stroke="none" stroke-width="1" fill="none" fill-rule="evenodd">
        <g id="畢業生/彩色">
            <rect id="Rectangle-39-Copy-32" fill-opacity="0" fill="#FFFFFF" x="0" y="0" width="70" height="70"></rect>
            <g id="Group-22" transform="translate(12.000000, 18.000000)">
                <path d="M7.40852834,12.9259455 C6.74698125,12.6298491 6,13.1139032 6,13.8386912 L6,23.5 C6,23.8917641 6.22876473,24.2474459 6.58524366,24.4099325 L22.5852437,31.7028925 C22.8415953,31.8197402 23.1353431,31.8230337 23.3942502,31.7119632 L40.3942499,24.4190031 C40.7617568,24.2613436 40.9999997,23.8998973 40.9999997,23.5 L41,13.5 C41,12.7775202 40.2573694,12.2934603 39.5963598,12.5850822 L22.5963595,20.0850822 L23.4085281,20.0872544 L7.40852834,12.9259455 Z M23.40364,21.9149178 L40.4036402,14.4149178 L39,13.5 L38.9999997,23.5 L39.6057496,22.5809968 L22.6057498,29.8739569 L23.4147563,29.8830275 L7.41475634,22.5900675 L8,23.5 L8,13.8386912 L6.59147166,14.7514368 L22.5914714,21.9127456 C22.8496985,22.0283234 23.1447984,22.0291126 23.40364,21.9149178 Z" id="Path-98-Copy-2" fill="#008EFF"></path>
                <path d="M43.8526459,12.3924604 L43.8604612,10.5685165 L22.5272499,20.0550886 L23.3428709,20.0564179 L2.14251459,10.5460376 L2.14668371,12.3689569 L23.4080569,2.71414147 L22.5804514,2.71383686 L43.8526459,12.3924604 Z M22.5811215,0.893103891 L1.31974832,10.5479193 C0.535739452,10.9039387 0.538288306,12.0184091 1.32391744,12.3708386 L22.5242738,21.8812189 C22.7836041,21.9975532 23.0801868,21.9980366 23.3398948,21.8825481 L44.6731062,12.395976 C45.4609694,12.0456246 45.4657535,10.9291223 44.6809215,10.5720321 L23.408727,0.893408498 C23.1458461,0.773800466 22.8440904,0.773689402 22.5811215,0.893103891 Z" id="Rectangle-84" fill="#008EFF"></path>
                <path d="M32.8467618,16.8615247 L32.3169399,15.9789531 L32.3169398,30.6153851 C32.3169398,31.1676698 32.764655,31.6153851 33.3169398,31.6153851 C33.8692245,31.6153851 34.3169398,31.1676698 34.3169398,30.6153851 L34.3169399,15.9789531 C34.3169399,15.6094744 34.1132095,15.2701024 33.787118,15.0963816 L24.1149869,9.94368354 C23.6275561,9.68401132 23.0219094,9.86864613 22.7622372,10.3560769 C22.502565,10.8435077 22.6871998,11.4491544 23.1746306,11.7088266 L32.8467618,16.8615247 Z" id="Path-100" fill="#FF5F74"></path>
                <ellipse id="Oval-37" fill="#FF5F74" cx="23.3224044" cy="10.5042114" rx="2.2568306" ry="2.2543054"></ellipse>
                <rect id="Rectangle-86" fill="#FF5F74" x="31.4615385" y="28.9230769" width="3.38461538" height="5.07692308" rx="1.69230769"></rect>
            </g>
        </g>
    </g>
</svg>