<?xml version="1.0" encoding="UTF-8" standalone="no"?>
<svg width="70px" height="70px" viewBox="0 0 70 70" version="1.1" xmlns="http://www.w3.org/2000/svg" xmlns:xlink="http://www.w3.org/1999/xlink">
    <!-- Generator: Sketch 39.1 (31720) - http://www.bohemiancoding.com/sketch -->
    <title>影像部/彩色</title>
    <desc>Created with Sketch.</desc>
    <defs></defs>
    <g id="Symbols" stroke="none" stroke-width="1" fill="none" fill-rule="evenodd">
        <g id="影像部/彩色">
            <rect id="Rectangle-39-Copy-27" fill-opacity="0" fill="#FFFFFF" x="0" y="0" width="70" height="70"></rect>
            <g id="Group-21" transform="translate(16.000000, 17.000000)">
                <path d="M1.51592659,19.3251854 C0.849431776,18.9237737 0,19.4037779 0,20.1818182 L0,33.2727273 C0,34.0279073 0.804982691,34.5105743 1.47110839,34.1548026 L9.47110839,29.8820755 C9.7966827,29.7081892 10,29.3691005 10,29.0000002 L10,25.0000002 C10,24.6493324 9.81632014,24.3242862 9.51592659,24.1433674 L1.51592659,19.3251854 Z M8,25.0000002 L8,29.0000002 L8.52889161,28.1179248 L0.528891606,32.3906519 L2,33.2727273 L2,20.1818182 L0.484073409,21.038451 L8.48407341,25.856633 L8,25.0000002 Z" id="Path-75-Copy" fill="#008EFF"></path>
                <path d="M10,32.9944684 C10,34.6602518 11.3391315,36 12.9972496,36 L30.4221052,36 C32.0728483,36 33.4193548,34.6524718 33.4193548,32.9944684 L33.4193548,21.1873498 C33.4193548,19.5215663 32.0802233,18.1818182 30.4221052,18.1818182 L12.9972496,18.1818182 C11.3465065,18.1818182 10,19.5293464 10,21.1873498 L10,32.9944684 Z M12.9972496,16.1818182 L30.4221052,16.1818182 C33.18201,16.1818182 35.4193548,18.4142125 35.4193548,21.1873498 L35.4193548,32.9944684 C35.4193548,35.7589472 33.175514,38 30.4221052,38 L12.9972496,38 C10.2373449,38 8,35.7676057 8,32.9944684 L8,21.1873498 C8,18.422871 10.2438409,16.1818182 12.9972496,16.1818182 Z" id="Rectangle-18-Copy" fill="#008EFF"></path>
                <path d="M19.9677419,10.6363636 C19.9677419,7.07041276 17.0636173,4.18181818 13.483871,4.18181818 C9.90412465,4.18181818 7,7.07041276 7,10.6363636 C7,14.2023145 9.90412465,17.0909091 13.483871,17.0909091 C17.0636173,17.0909091 19.9677419,14.2023145 19.9677419,10.6363636 Z M9,10.6363636 C9,8.17738997 11.0063007,6.18181818 13.483871,6.18181818 C15.9614413,6.18181818 17.9677419,8.17738997 17.9677419,10.6363636 C17.9677419,13.0953373 15.9614413,15.0909091 13.483871,15.0909091 C11.0063007,15.0909091 9,13.0953373 9,10.6363636 Z" id="Oval-20-Copy-2" fill="#FF5F74"></path>
                <path d="M35.2580645,8.27272727 C35.2580645,3.80303771 31.6173761,0.181818182 27.1290323,0.181818182 C22.6406885,0.181818182 19,3.80303771 19,8.27272727 C19,12.7424168 22.6406885,16.3636364 27.1290323,16.3636364 C31.6173761,16.3636364 35.2580645,12.7424168 35.2580645,8.27272727 Z M21,8.27272727 C21,4.91001493 23.7428645,2.18181818 27.1290323,2.18181818 C30.5152,2.18181818 33.2580645,4.91001493 33.2580645,8.27272727 C33.2580645,11.6354396 30.5152,14.3636364 27.1290323,14.3636364 C23.7428645,14.3636364 21,11.6354396 21,8.27272727 Z" id="Oval-20-Copy-3" fill="#FF5F74"></path>
            </g>
        </g>
    </g>
</svg>