<?xml version="1.0" encoding="UTF-8" standalone="no"?>
<svg width="70px" height="70px" viewBox="0 0 70 70" version="1.1" xmlns="http://www.w3.org/2000/svg" xmlns:xlink="http://www.w3.org/1999/xlink">
    <!-- Generator: Sketch 39.1 (31720) - http://www.bohemiancoding.com/sketch -->
    <title>天使部/黑</title>
    <desc>Created with Sketch.</desc>
    <defs>
        <polygon id="path-1" points="43 12.8803 43 0.1543 0.0001 0.1543 0.0001 12.8803 43 12.8803"></polygon>
    </defs>
    <g id="Symbols" stroke="none" stroke-width="1" fill="none" fill-rule="evenodd">
        <g id="天使部/黑">
            <g id="Group-51">
                <rect id="Rectangle-39-Copy-21" fill-opacity="0" fill="#FFFFFF" x="0" y="0" width="70" height="70"></rect>
                <g id="Page-1" transform="translate(14.000000, 14.000000)">
                    <g id="Group-3" transform="translate(0.000000, 11.884300)">
                        <mask id="mask-2" fill="white">
                            <use xlink:href="#path-1"></use>
                        </mask>
                        <g id="Clip-2"></g>
                        <path d="M24.8631,0.1543 L25.6031,2.1883 C35.7231,2.7163 41.0001,5.1183 41.0001,6.4803 C41.0001,8.0153 34.3031,10.8803 21.5001,10.8803 C8.6971,10.8803 2.0001,8.0153 2.0001,6.4803 C2.0001,5.1163 7.2911,2.7103 17.4341,2.1873 L18.1051,0.1553 C8.6411,0.5713 0.0001,2.7243 0.0001,6.4803 C0.0001,10.6813 10.8151,12.8803 21.5001,12.8803 C32.1841,12.8803 43.0001,10.6813 43.0001,6.4803 C43.0001,2.7203 34.3401,0.5663 24.8631,0.1543" id="Fill-1" fill="#353535" mask="url(#mask-2)"></path>
                    </g>
                    <path d="M9.6279,37.8843 L33.3709,37.8843 L21.4999,5.7683 L9.6279,37.8843 Z M36.2419,39.8843 L6.7569,39.8843 L21.4999,0.0003 L36.2419,39.8843 Z" id="Fill-4" fill="#353535"></path>
                </g>
            </g>
        </g>
    </g>
</svg>