<?xml version="1.0" encoding="utf-8"?>
<!-- Generator: Adobe Illustrator 17.1.0, SVG Export Plug-In . SVG Version: 6.00 Build 0)  -->
<!DOCTYPE svg PUBLIC "-//W3C//DTD SVG 1.1//EN" "http://www.w3.org/Graphics/SVG/1.1/DTD/svg11.dtd">
<svg version="1.1" id="圖層_1" xmlns="http://www.w3.org/2000/svg" xmlns:xlink="http://www.w3.org/1999/xlink" x="0px" y="0px"
	 viewBox="0 0 120 58" enable-background="new 0 0 120 58" xml:space="preserve">
<g>
	<rect x="63.5" y="31.7" fill="#008EFF" width="4.8" height="0.9"/>
	<path fill="#008EFF" d="M68.1,37.5v-3.6h-4.7v2.1c0,1.2-0.2,2.5-1.6,3.5c0.3,0.2,0.6,0.5,0.9,0.8c1.2-0.9,1.8-2.3,1.8-4.3v-1.1H67
		v2.3c0,0.8-0.2,1.2-0.5,1.4c0.2,0.3,0.4,0.8,0.6,1.1l0.1-0.2c0.5-0.5,1.4-1.2,3-2.2c-0.1-0.3-0.2-0.6-0.3-1L68.1,37.5z"/>
	<path fill="#008EFF" d="M75.5,37.1l0.1-0.1c1.2-1.4,2.1-3.1,2.6-5l-0.8-0.3l-0.3,0.1h-6v1.1h5.6L76.6,33c-0.5,1.1-1.1,2.1-1.8,3
		l-0.1,0.2L74.5,36c-0.6-0.8-1.2-1.8-1.6-2.9l-1,0.3c0.4,1.3,1.1,2.5,1.8,3.5l0.1,0.1l-0.1,0.1c-1.1,1-2.5,1.8-3.9,2.3
		c0.3,0.3,0.5,0.7,0.7,1c1.5-0.6,2.8-1.4,4-2.5l0.1-0.1l0.1,0.1c1,1,2.1,1.7,3.5,2.2c0.2-0.3,0.5-0.7,0.7-1
		c-1.3-0.5-2.5-1.2-3.5-2.1L75.5,37.1z"/>
	<polygon fill="#008EFF" points="69.8,25.8 69.8,24.8 66.6,24.8 66.6,23.3 65.3,23.3 65.3,24.8 62,24.8 62,25.8 65.3,25.8 
		65.3,27.2 62.6,27.2 62.6,28.2 69.2,28.2 69.2,27.2 66.6,27.2 66.6,25.8 	"/>
	<path fill="#008EFF" d="M73.2,26.6v-1.4h2.5v3.1c0,1.6,0.3,2,1.5,2h1c0.1,0,0.5,0,0.7-0.1c0-0.3-0.1-0.6-0.1-0.9l0-0.2
		c-0.2,0-0.5,0.1-0.6,0.1h-0.8c-0.5,0-0.5-0.5-0.5-0.9v-4.2h-4.9v2.5c0,1.2-0.2,2.6-1.5,3.8c0.3,0.2,0.7,0.6,0.9,0.9
		C72.7,30.2,73.2,28.7,73.2,26.6"/>
	<polygon fill="#008EFF" points="63.1,30.5 68.7,30.5 68.7,32 69.8,32 69.8,29.5 62,29.5 62,32 63.1,32 	"/>
	<path fill="#008EFF" d="M87.1,25.5c-0.2-0.7-0.5-1.5-0.9-2.2L85,23.6c0.3,0.7,0.6,1.6,0.8,2.3L87.1,25.5z"/>
	<path fill="#008EFF" d="M85.4,27.6H90v-1.3h-4.3l-0.1,0l0,0H82v1.3h2.1v4c0,2.5-0.3,5.4-2.4,7.9c0.4,0.3,0.8,0.6,1,0.9
		c2.3-2.6,2.6-5.8,2.6-8.7v-0.2h2.6l0,0.2c-0.1,5.1-0.2,6.7-0.6,7.2c-0.2,0.3-0.4,0.3-0.7,0.3c-0.3,0-0.8,0-1.3,0
		c0.2,0.4,0.3,0.9,0.3,1.2c0.8,0,1.5,0,1.9,0c0.5-0.1,0.8-0.2,1.1-0.6c0.4-0.6,0.6-2.9,0.7-7.8l0,0l0-1.2c0-0.1,0-0.4,0-0.6h-3.9
		V27.6z"/>
	<path fill="#008EFF" d="M95.4,35.8L95.4,35.8l0-0.2c1.1-1.9,1.8-4.3,2.3-7.3l0-0.2h1.4v-1.3h-5.8l0.1-0.2c0.3-1,0.5-2,0.7-3
		l-1.4-0.2c-0.4,2.5-1.3,5.9-3,8.1l0,0l0,0c0.4,0.3,0.8,0.8,1.1,1.1c0.4-0.6,0.8-1.2,1.1-1.8l0.2-0.5l0.1,0.5c0.5,1.9,1,3.4,1.7,4.7
		l0.1,0.1l-0.1,0.1c-1,1.5-2.4,2.7-4.2,3.5c0.3,0.3,0.6,0.9,0.8,1.2c1.7-0.9,3-2,4.1-3.4l0.2-0.2l0.1,0.2c1,1.4,2.1,2.5,3.5,3.2
		c0.2-0.4,0.6-0.9,1-1.2C97.7,38.5,96.5,37.3,95.4,35.8 M94.6,34.3l-0.2-0.4c-0.7-1.5-1.2-3.3-1.6-5.5l0-0.1l0.1-0.3h3.5l0,0.2
		c-0.3,2.3-0.8,4.1-1.6,5.6L94.6,34.3z"/>
	<path fill="#008EFF" d="M111.9,30.3l-0.1-0.2h7.1v-1.5h-7.8l0-0.2c0.2-1.8,0.2-3.5,0.3-5.1h-1.6l0,0.5c0,1.4,0,3-0.2,4.6l0,0.2
		h-7.1v1.5h6.9l-0.1,0.2c-0.9,4.3-3.2,7.2-7,8.9c0.4,0.4,0.8,0.8,1.1,1.2c3.7-1.8,6-4.6,7.2-8.7l0.2-0.6l0.2,0.5
		c1.6,4.3,3.9,7.1,7.2,8.7c0.3-0.4,0.7-1,1.1-1.4C115.7,37.6,113.2,34.6,111.9,30.3"/>
	<path fill="#008EFF" d="M44.3,35.9h12.2V24.2H44.3V35.9z M45.7,32.3h6.9v-1.2h-6.9v-2.3h6.9v-1.2h-6.9v-2.2h9.2v9.1h-9.2V32.3z"/>
	<path fill="#008EFF" d="M57.1,40.6l1.3-1.1c-1.3-0.8-3.5-2-5.3-2.9l-1.2,0.9C53.6,38.4,55.8,39.7,57.1,40.6"/>
	<path fill="#008EFF" d="M43.2,40.5c1.8-0.7,4-1.9,5.4-3l-1.4-0.9c-1.2,1-3.3,2.1-5.2,2.9C42.5,39.8,42.9,40.2,43.2,40.5"/>
	<path fill="#008EFF" d="M15.8,50.2c-2.1,0-4.7-1.5-7.9-4.3c-2.8-2.6-5.1-5.4-6.2-7.1c-1.3-2-1.5-4.4-0.4-6.7l0.1-0.1
		C3.2,28.2,9.5,23,15.8,23c6.3,0,12.6,5.2,14.4,8.9c1.2,2.4,1,4.8-0.3,6.9c-1.1,1.7-3.4,4.5-6.2,7.1C20.5,48.7,17.8,50.2,15.8,50.2
		 M15.8,24.7c-5.5,0-11.3,4.7-12.9,7.9l0,0.1c-0.6,1.3-1,3.2,0.2,5.1c1.1,1.6,3.3,4.3,6,6.8c2.8,2.5,5.2,3.9,6.8,3.9
		c1.6,0,4-1.4,6.8-3.9c2.7-2.5,4.9-5.2,6-6.8c1-1.5,1.1-3.4,0.2-5.2C27.1,29.4,21.3,24.7,15.8,24.7"/>
	<path fill="#008EFF" d="M21.9,28.1c-0.5-0.3-1-0.6-1.5-0.8c-1.6,1.5-3.3,2.7-4.6,2.7c-1.3,0-3-1.3-4.6-2.7c-0.5,0.2-1,0.5-1.5,0.8
		c1.9,1.8,4.2,3.6,6.2,3.6C17.7,31.7,20.1,29.9,21.9,28.1"/>
	<path fill="#008EFF" d="M6.6,24.5c0.5-0.3,0.9-0.6,1.4-0.8c-0.1-0.1-0.1-0.2-0.2-0.3c-0.4-0.7-0.6-1.8-0.1-2.9
		c0-0.1,0.1-0.1,0.1-0.2c1.3-2.4,4.6-4.8,7.9-4.8c3.3,0,6.6,2.4,7.9,4.8c0.7,1.2,0.4,2.4,0,3.1c0,0.1-0.1,0.2-0.2,0.3
		c0.5,0.3,1,0.5,1.4,0.8c0.1-0.1,0.1-0.2,0.2-0.3c0.6-1.1,1-3,0-4.7c-1.5-2.7-5.3-5.7-9.3-5.7c-4,0-7.8,2.9-9.3,5.7
		c-0.1,0.1-0.1,0.2-0.1,0.3c-0.8,1.7-0.4,3.4,0.1,4.4C6.5,24.3,6.5,24.4,6.6,24.5"/>
	<path fill="#008EFF" d="M26.9,26c0,0,2.1,1.8,2.9,2.8l-2.6-6c-0.1,0.8-0.4,1.8-0.8,2.3L26.9,26z"/>
	<path fill="#008EFF" d="M4.7,26c0,0-2.1,1.8-2.9,2.8l2.6-6c0.1,0.8,0.4,1.8,0.8,2.3L4.7,26z"/>
</g>
</svg>
