<?xml version="1.0" encoding="UTF-8" standalone="no"?>
<svg width="70px" height="70px" viewBox="0 0 70 70" version="1.1" xmlns="http://www.w3.org/2000/svg" xmlns:xlink="http://www.w3.org/1999/xlink">
    <!-- Generator: Sketch 39.1 (31720) - http://www.bohemiancoding.com/sketch -->
    <title>媒體部/黑</title>
    <desc>Created with Sketch.</desc>
    <defs></defs>
    <g id="Symbols" stroke="none" stroke-width="1" fill="none" fill-rule="evenodd">
        <g id="媒體部/黑">
            <g id="Group-50">
                <rect id="Rectangle-39-Copy-20" fill-opacity="0" fill="#FFFFFF" x="0" y="0" width="70" height="70"></rect>
                <g id="Group-26" transform="translate(20.000000, 18.000000)">
                    <path d="M30,28.3783784 L30,2.00746124 C30,0.900345519 29.1083227,0 28.008383,0 L1.99161703,0 C0.89784041,0 0,0.89877101 0,2.00746124 L0,32.9925388 C0,34.0996545 0.891677316,35 1.99161703,35 L24.375,35 L24.375,30.3858396 C24.375,29.2771494 25.2728404,28.3783784 26.366617,28.3783784 L30,28.3783784 Z" id="Combined-Shape" stroke="#353535" stroke-width="2"></path>
                    <rect id="Rectangle-134-Copy-2" fill="#353535" x="4.6875" y="5.67567568" width="21.5625" height="1.89189189" rx="0.945945946"></rect>
                    <rect id="Rectangle-134-Copy-3" fill="#353535" x="4.6875" y="10.4054054" width="21.5625" height="1.89189189" rx="0.945945946"></rect>
                    <rect id="Rectangle-134-Copy-4" fill="#353535" x="4.6875" y="15.1351351" width="21.5625" height="1.89189189" rx="0.945945946"></rect>
                    <path d="M30,29.3243243 L25.3125,35" id="Path-152" stroke="#353535" stroke-width="2" stroke-linecap="round" stroke-linejoin="round" fill="#FFFFFF"></path>
                </g>
            </g>
        </g>
    </g>
</svg>