<?xml version="1.0" encoding="UTF-8" standalone="no"?>
<svg width="70px" height="70px" viewBox="0 0 70 70" version="1.1" xmlns="http://www.w3.org/2000/svg" xmlns:xlink="http://www.w3.org/1999/xlink">
    <!-- Generator: Sketch 39.1 (31720) - http://www.bohemiancoding.com/sketch -->
    <title>推廣部/彩色</title>
    <desc>Created with Sketch.</desc>
    <defs></defs>
    <g id="Symbols" stroke="none" stroke-width="1" fill="none" fill-rule="evenodd">
        <g id="推廣部/彩色">
            <rect id="Rectangle-39-Copy-28" fill-opacity="0" fill="#FFFFFF" x="0" y="0" width="70" height="70"></rect>
            <path d="M26.1343202,42.1997702 C25.7601713,42.4279471 25.4582226,42.7799712 25.296704,43.2237399 L25.211495,43.4578494 C24.8351756,44.4917787 25.3701179,45.6465569 26.4106336,46.0252736 L30.5082475,47.5166831 C31.5505048,47.8960338 32.6988996,47.359946 33.0771493,46.3207135 L33.1623582,46.0866039 C33.3563582,45.5535933 33.308181,44.9884658 33.0734078,44.5141023 L26.1343202,42.1997702 Z" id="Combined-Shape" stroke="#FF5F74" stroke-width="2" transform="translate(29.186927, 44.892659) rotate(2.000000) translate(-29.186927, -44.892659) "></path>
            <path d="M44.5,20 C45.3278652,20 46,20.6718568 46,21.4976575 L46,48.5023425 C46,49.3331922 45.3343419,50 44.5,50 C43.6721348,50 43,49.3281432 43,48.5023425 L43,21.4976575 C43,20.6668078 43.6656581,20 44.5,20 Z M41,48.5023425 C41,50.4328979 42.5677505,52 44.5,52 C46.4396848,52 48,50.4369897 48,48.5023425 L48,21.4976575 C48,19.5671021 46.4322495,18 44.5,18 C42.5603152,18 41,19.5630103 41,21.4976575 L41,48.5023425 Z" id="Rectangle-93" fill="#008EFF"></path>
            <path d="M16,30 C16.5501929,30 17,30.4521451 17,31.0085302 L17,38.9914698 C17,39.5526867 16.5557711,40 16,40 C15.4498071,40 15,39.5478549 15,38.9914698 L15,31.0085302 C15,30.4473133 15.4442289,30 16,30 Z M13,38.9914698 C13,40.6501099 14.3429098,42 16,42 C17.6634503,42 19,40.6541703 19,38.9914698 L19,31.0085302 C19,29.3498901 17.6570902,28 16,28 C14.3365497,28 13,29.3458297 13,31.0085302 L13,38.9914698 Z" id="Rectangle-93-Copy" fill="#008EFF"></path>
            <path d="M17,39 L17,39.6930005 L17.6488766,39.9363292 L41.6488766,48.9363292 L43,49.4430005 L43,48 L43,22 L43,20.5569995 L41.6488766,21.0636708 L17.6488766,30.0636708 L17,30.3069995 L17,31 L17,39 Z M18.3511234,31.9363292 L42.3511234,22.9363292 L41,22 L41,48 L42.3511234,47.0636708 L18.3511234,38.0636708 L19,39 L19,31 L18.3511234,31.9363292 Z" id="Path-110" fill="#008EFF"></path>
            <path d="M57.3713907,24.9284767 C57.8841742,24.7233633 58.1335901,24.1413928 57.9284767,23.6286093 C57.7233633,23.1158258 57.1413928,22.8664099 56.6286093,23.0715233 L51.6286093,25.0715233 C51.1158258,25.2766367 50.8664099,25.8586072 51.0715233,26.3713907 C51.2766367,26.8841742 51.8586072,27.1335901 52.3713907,26.9284767 L57.3713907,24.9284767 Z" id="Path-111" fill="#008EFF"></path>
            <path d="M58,36 C58.5522847,36 59,35.5522847 59,35 C59,34.4477153 58.5522847,34 58,34 L53,34 C52.4477153,34 52,34.4477153 52,35 C52,35.5522847 52.4477153,36 53,36 L58,36 Z" id="Path-111-Copy-2" fill="#FF5F74"></path>
            <path d="M56.6286093,46.9284767 C57.1413928,47.1335901 57.7233633,46.8841742 57.9284767,46.3713907 C58.1335901,45.8586072 57.8841742,45.2766367 57.3713907,45.0715233 L52.3713907,43.0715233 C51.8586072,42.8664099 51.2766367,43.1158258 51.0715233,43.6286093 C50.8664099,44.1413928 51.1158258,44.7233633 51.6286093,44.9284767 L56.6286093,46.9284767 Z" id="Path-111-Copy" fill="#008EFF"></path>
        </g>
    </g>
</svg>