<?xml version="1.0" encoding="UTF-8" standalone="no"?>
<svg width="70px" height="70px" viewBox="0 0 70 70" version="1.1" xmlns="http://www.w3.org/2000/svg" xmlns:xlink="http://www.w3.org/1999/xlink">
    <!-- Generator: Sketch 39.1 (31720) - http://www.bohemiancoding.com/sketch -->
    <title>推廣部/黑</title>
    <desc>Created with Sketch.</desc>
    <defs></defs>
    <g id="Symbols" stroke="none" stroke-width="1" fill="none" fill-rule="evenodd">
        <g id="推廣部/黑">
            <g id="Group-49">
                <rect id="Rectangle-39-Copy-19" fill-opacity="0" fill="#FFFFFF" x="0" y="0" width="70" height="70"></rect>
                <g id="Group-27" transform="translate(14.000000, 19.000000)" stroke="#353535" stroke-width="2">
                    <rect id="Rectangle-93" x="28" y="0" width="5" height="32" rx="2.5"></rect>
                    <rect id="Rectangle-93-Copy" x="0" y="10" width="4" height="12" rx="2"></rect>
                    <polygon id="Path-110" points="4 12 4 20 28 29 28 3"></polygon>
                    <path d="M38,7 L43,5" id="Path-111" stroke-linecap="round" stroke-linejoin="round" fill="#FFFFFF"></path>
                    <path d="M39,16 L44,16" id="Path-111-Copy-2" stroke-linecap="round" stroke-linejoin="round" fill="#FFFFFF"></path>
                    <path d="M38,27 L43,25" id="Path-111-Copy" stroke-linecap="round" stroke-linejoin="round" fill="#FFFFFF" transform="translate(40.500000, 26.000000) scale(1, -1) translate(-40.500000, -26.000000) "></path>
                    <path d="M11.2629137,23 C10.8713808,23.2269281 10.5545582,23.5872262 10.3877611,24.0454974 L10.1204379,24.779962 C9.74384283,25.8146484 10.2796429,26.96707 11.3201585,27.3457867 L15.4177724,28.8371962 C16.4600298,29.2165469 17.6081639,28.6811752 17.9860921,27.642826 L18.2534154,26.9083614 C18.4084896,26.4822984 18.4088558,26.0362719 18.282979,25.6325245 L11.2629137,23 Z" id="Combined-Shape"></path>
                </g>
            </g>
        </g>
    </g>
</svg>