<?xml version="1.0" encoding="UTF-8"?>
<svg width="30px" height="30px" viewBox="0 0 30 30" version="1.1" xmlns="http://www.w3.org/2000/svg" xmlns:xlink="http://www.w3.org/1999/xlink">
    <!-- Generator: Sketch 40.1 (33804) - http://www.bohemiancoding.com/sketch -->
    <title>Rectangle 30</title>
    <desc>Created with Sketch.</desc>
    <defs>
        <polygon id="path-1" points="11.1294728 0.10045977 0.0781039925 0.10045977 0.0781039925 5.8725977 11.1294728 5.8725977 11.1294728 0.10045977"></polygon>
    </defs>
    <g id="mockup" stroke="none" stroke-width="1" fill="none" fill-rule="evenodd">
        <rect id="Rectangle-30" fill="#D8D8D8" opacity="0" x="0" y="0" width="30" height="30"></rect>
        <g id="Page-1-Copy" transform="translate(7.000000, 5.000000)">
            <path d="M8.43237778,6.11586207 C5.35750278,6.11586207 2.13175278,8.65655172 1.26215556,10.4055172 L1.23665556,10.4567816 C0.905863889,11.1482759 0.661488889,12.1910345 1.37525278,13.2365517 C1.962225,14.0956322 3.18079444,15.5705747 4.68316944,16.9002299 C6.22001667,18.2602299 7.55168333,19.0091954 8.43237778,19.0091954 C9.31330833,19.0091954 10.644975,18.2602299 12.1818222,16.9002299 C13.6841972,15.5703448 14.9025306,14.0956322 15.4895028,13.2365517 C16.0571139,12.4052874 16.0974889,11.3997701 15.6030722,10.4055172 C14.7332389,8.65655172 11.5070167,6.11586207 8.43237778,6.11586207 M8.43237778,19.8995402 C7.29125278,19.8995402 5.82311389,19.111954 4.0681,17.5588506 C2.50386389,16.1747126 1.22957222,14.6310345 0.614030556,13.7296552 C-0.126413889,12.6455172 -0.199608333,11.3498851 0.407905556,10.0811494 L0.440488889,10.0144828 C1.43428056,8.01655172 4.95658611,5.22551724 8.43237778,5.22551724 C11.9081694,5.22551724 15.4307111,8.01655172 16.4261556,10.0174713 C17.0671972,11.3066667 17.0053361,12.6250575 16.250725,13.7296552 C15.6351833,14.6308046 14.3611278,16.1744828 12.7968917,17.5588506 C11.0418778,19.111954 9.57326667,19.8995402 8.43237778,19.8995402" id="Fill-1" fill="#353535"></path>
            <path d="M11.8532264,7.9542069 C11.5765042,7.79650575 11.2903375,7.65006897 10.9966153,7.52156322 C10.1267819,8.31811494 9.14385139,8.99443678 8.43622639,8.99443678 C7.72836528,8.99443678 6.74567083,8.31834483 5.8758375,7.52202299 C5.58211528,7.65052874 5.29618472,7.79673563 5.01922639,7.95466667 C6.05622639,8.9525977 7.34940694,9.88478161 8.43622639,9.88478161 C9.52280972,9.88478161 10.8162264,8.95236782 11.8532264,7.9542069" id="Fill-3" fill="#353535"></path>
            <g id="Group-7" transform="translate(2.833333, 0.129425)">
                <mask id="mask-2" fill="white">
                    <use xlink:href="#path-1"></use>
                </mask>
                <g id="Clip-6"></g>
                <path d="M0.507119444,5.8725977 C0.761883333,5.7142069 1.02538333,5.56386207 1.29596667,5.42294253 C1.2648,5.37512644 1.23552222,5.32891954 1.21025833,5.2863908 C0.995397222,4.92156322 0.870258333,4.31351724 1.1628,3.70225287 C1.18050833,3.66570115 1.19939722,3.62937931 1.21923056,3.59374713 C1.93866111,2.31443678 3.77536944,0.990758621 5.60286944,0.990758621 C7.43060556,0.990758621 9.26684167,2.31443678 9.98627222,3.59374713 C10.3489389,4.2388046 10.2176611,4.90868966 9.99548056,5.2863908 C9.97021667,5.32914943 9.94093889,5.37512644 9.90977222,5.42271264 C10.1803556,5.56386207 10.4438556,5.7142069 10.6986194,5.8725977 C10.7321472,5.82133333 10.7630778,5.7725977 10.7888139,5.72914943 C11.1448694,5.12409195 11.3318694,4.13305747 10.7883417,3.1663908 C9.95250833,1.67995402 7.85111944,0.100413793 5.60286944,0.100413793 C3.35438333,0.100413793 1.25299444,1.67995402 0.416452778,3.16708046 C0.387411111,3.21926437 0.360494444,3.27144828 0.334758333,3.32501149 C-0.106533333,4.24593103 0.0882583333,5.17098851 0.416925,5.72937931 C0.442661111,5.7725977 0.473591667,5.82156322 0.507119444,5.8725977" id="Fill-5" fill="#353535" mask="url(#mask-2)"></path>
            </g>
            <path d="M14.6073917,6.82034483 C14.6073917,6.82034483 15.7527667,7.78954023 16.2313639,8.31482759 L14.7927389,5.05735632 C14.7518917,5.50034483 14.5691417,6.0037931 14.3686833,6.30425287 L14.6073917,6.82034483 Z" id="Fill-8" fill="#353535"></path>
            <path d="M2.26501389,6.82034483 C2.26501389,6.82034483 1.11963889,7.78954023 0.641041667,8.31482759 L2.07966667,5.05735632 C2.12051389,5.50034483 2.30326389,6.0037931 2.50372222,6.30425287 L2.26501389,6.82034483 Z" id="Fill-10" fill="#353535"></path>
        </g>
    </g>
</svg>