<?xml version="1.0" encoding="UTF-8"?>
<svg width="30px" height="30px" viewBox="0 0 30 30" version="1.1" xmlns="http://www.w3.org/2000/svg" xmlns:xlink="http://www.w3.org/1999/xlink">
    <!-- Generator: Sketch 40.1 (33804) - http://www.bohemiancoding.com/sketch -->
    <title>Rectangle 172 Copy 7</title>
    <desc>Created with Sketch.</desc>
    <defs></defs>
    <g id="mockup" stroke="none" stroke-width="1" fill="none" fill-rule="evenodd">
        <g id="Group-11-Copy" transform="translate(6.000000, 5.000000)">
            <path d="M2,0.8129422 L2,6.64224645" id="Stroke-1" stroke="#36434D" stroke-linecap="round" stroke-linejoin="round"></path>
            <path d="M2,11.4146521 L2,19.1870578" id="Stroke-3" stroke="#36434D" stroke-linecap="round" stroke-linejoin="round"></path>
            <path d="M9,0.8129422 L9,11.5" id="Stroke-5" stroke="#36434D" stroke-linecap="round" stroke-linejoin="round"></path>
            <path d="M9,16.2724057 L9,19.1870578" id="Stroke-7" stroke="#36434D" stroke-linecap="round" stroke-linejoin="round"></path>
            <path d="M16,0.8129422 L16,3.72759433" id="Stroke-9" stroke="#36434D" stroke-linecap="round" stroke-linejoin="round"></path>
            <path d="M16,8.5 L16,19.1870578" id="Stroke-11" stroke="#36434D" stroke-linecap="round" stroke-linejoin="round"></path>
            <path d="M11,14 C11,15.10457 10.10457,16 9,16 C7.895431,16 7,15.10457 7,14 C7,12.89543 7.895431,12 9,12 C10.10457,12 11,12.89543 11,14 L11,14 Z" id="Stroke-14" stroke="#35424C" stroke-linecap="square"></path>
            <path d="M18,6 C18,7.104569 17.10457,8 16,8 C14.89543,8 14,7.104569 14,6 C14,4.895431 14.89543,4 16,4 C17.10457,4 18,4.895431 18,6 L18,6 Z" id="Stroke-16" stroke="#35424C" stroke-linecap="square"></path>
            <path d="M4,9 C4,10.104569 3.104569,11 2,11 C0.8954305,11 0,10.104569 0,9 C0,7.895431 0.8954305,7 2,7 C3.104569,7 4,7.895431 4,9 L4,9 Z" id="Stroke-18" stroke="#35424C" stroke-linecap="square"></path>
        </g>
    </g>
</svg>