<?xml version="1.0" encoding="UTF-8"?>
<svg width="30px" height="30px" viewBox="0 0 30 30" version="1.1" xmlns="http://www.w3.org/2000/svg" xmlns:xlink="http://www.w3.org/1999/xlink">
    <!-- Generator: Sketch 40.1 (33804) - http://www.bohemiancoding.com/sketch -->
    <title>Rectangle 172 Copy 6</title>
    <desc>Created with Sketch.</desc>
    <defs></defs>
    <g id="mockup" stroke="none" stroke-width="1" fill="none" fill-rule="evenodd">
        <rect id="Rectangle-172-Copy-6" fill="#ED4436" opacity="0" x="0" y="0" width="30" height="30"></rect>
        <path d="M5.00017763,11.8721231 C4.9824114,14.61557 6.29710267,16.2915227 9.06958477,18.107418 C9.30125764,18.259157 10.3498223,18.9245654 10.6152648,19.1006109 C10.7085426,19.1624742 10.7959399,19.2214711 10.8789674,19.2786984 C12.7107644,20.541788 14.365299,22.4848296 14.6110327,23.3704028 C14.7838523,23.9932087 15.6717182,23.9793346 15.8249938,23.3514331 C16.0104388,22.5917479 17.7710411,20.5496772 19.5518163,19.2225186 C19.7526273,19.0728189 19.9748436,18.9173707 20.2452847,18.7359364 C20.4446301,18.602199 21.2304662,18.0877028 21.414738,17.9646342 C24.1746193,16.1214081 25.429218,14.5271095 25.4117484,11.8294622 C25.3617996,4.24794914 17.3145798,2.57797452 14.6196002,9.24064056 L15.7822409,9.23938939 C13.0003583,2.40423496 5.0506274,4.23220095 5.00017815,11.8720431 L5.00017763,11.8721231 Z M6.25484883,11.8803282 C6.29646217,5.57856233 12.3693325,4.1821628 14.6201078,9.71237328 C14.8324575,10.2341218 15.5715223,10.2333264 15.7827486,9.7111221 C17.9565967,4.33682404 24.1160811,5.61505217 24.1570771,11.8376578 C24.1711223,14.0065092 23.1619309,15.2889531 20.7178919,16.9212395 C20.5403892,17.0397872 19.7530866,17.5552435 19.5462651,17.6939965 C19.2599152,17.8861037 19.0214943,18.0528876 18.8019799,18.2165302 C16.8078557,19.7026915 14.877628,21.9415058 14.6060867,23.0538885 L15.8200478,23.0349187 C15.4833561,21.8215516 13.6435131,19.6608887 11.5911197,18.24569 C11.5015566,18.183958 11.4080103,18.1208102 11.3087456,18.0549764 C11.0301194,17.8701872 9.9774373,17.202166 9.75704431,17.057815 C7.30452599,15.4514866 6.24050633,14.0950871 6.25484935,11.8802482 L6.25484883,11.8803282 Z" id="Shape-Copy-7" fill="#353535"></path>
    </g>
</svg>