<?xml version="1.0" encoding="UTF-8"?>
<svg width="30px" height="30px" viewBox="0 0 30 30" version="1.1" xmlns="http://www.w3.org/2000/svg" xmlns:xlink="http://www.w3.org/1999/xlink">
    <!-- Generator: Sketch 40.1 (33804) - http://www.bohemiancoding.com/sketch -->
    <title>Rectangle 172 Copy 2</title>
    <desc>Created with Sketch.</desc>
    <defs></defs>
    <g id="mockup" stroke="none" stroke-width="1" fill="none" fill-rule="evenodd">
        <rect id="Rectangle-172-Copy-2" fill="#ED4436" opacity="0" x="0" y="0" width="30" height="30"></rect>
        <g id="Group-9" transform="translate(5.000000, 5.500000)">
            <path d="M1.27665542,16.7244809 L1.27665542,16.7244809 L2.81730721,18.2651327 C3.0387038,18.4865293 3.38857044,18.4871323 3.60467433,18.2710284 L18.2695576,3.60614505 C18.4837736,3.3919291 18.4830212,3.0381371 18.263662,2.81877793 L16.7230102,1.27812614 C16.5016136,1.05672955 16.151747,1.05612662 15.9356431,1.27223051 L1.27075979,15.9371138 C1.05654384,16.1513298 1.05729625,16.5051218 1.27665542,16.7244809 L1.27665542,16.7244809 Z M0.49098122,17.5101551 C-0.16198812,16.8571858 -0.163357344,15.7998826 0.485085588,15.1514396 L15.1499689,0.486556309 C15.7996822,-0.163156963 16.85306,-0.163172499 17.5086844,0.492451942 L19.0493362,2.03310373 C19.7023055,2.68607307 19.7036748,3.74337632 19.0552318,4.39181925 L4.39034853,19.0567026 C3.74063526,19.7064158 2.68725745,19.7064314 2.03163301,19.0508069 L0.49098122,17.5101551 L0.49098122,17.5101551 Z" id="Rectangle-1-Copy-3" fill="#353535"></path>
            <circle id="Oval-52-Copy" fill="#FFFFFF" cx="10.2777778" cy="9.16666667" r="4.16666667"></circle>
            <path d="M13.7433116,12.6322005 C15.6096945,10.7658175 15.6003322,7.73242296 13.7248251,5.85691587 C11.849318,3.98140878 8.8159235,3.97204645 6.94954053,5.83842942 C5.08315756,7.70481239 5.09251989,10.7382069 6.96802698,12.613714 C8.84353407,14.4892211 11.8769286,14.4985834 13.7433116,12.6322005 L13.7433116,12.6322005 Z M12.9576374,11.8465263 C11.5262596,13.277904 9.19637435,13.270713 7.75370118,11.8280398 C6.31102802,10.3853666 6.30383701,8.05548134 7.73521473,6.62410362 C9.16659245,5.1927259 11.4964777,5.19991691 12.9391509,6.64259007 C14.3818241,8.08526324 14.3890151,10.4151485 12.9576374,11.8465263 L12.9576374,11.8465263 Z" id="Oval-7-Copy-3" fill="#353535"></path>
            <polygon id="Path-76-Copy-12" fill="#353535" points="13.8888889 1.89678531 17.4715632 5.47945967 18.2572374 4.69378547 14.6745631 1.11111111"></polygon>
            <polygon id="Path-76-Copy-13" fill="#353535" points="1.11111111 14.6745631 4.69378547 18.2572374 5.47945967 17.4715632 1.89678531 13.8888889"></polygon>
            <path d="M10.1627185,9.28172599 L11.6554994,10.774507 C11.8724574,10.9914649 12.2242157,10.9914649 12.4411736,10.774507 C12.6581316,10.557549 12.6581316,10.2057907 12.4411736,9.98883277 L10.9483927,8.49605179 C10.7314347,8.27909385 10.3796764,8.27909385 10.1627185,8.49605179 C9.94576052,8.71300973 9.94576052,9.06476805 10.1627185,9.28172599 L10.1627185,9.28172599 Z" id="Path-76-Copy-14" fill="#353535"></path>
            <path d="M11.3643378,7.38494068 L10.1627185,8.58656004 C9.94576052,8.80351798 9.94576052,9.15527631 10.1627185,9.37223425 C10.3796764,9.58919219 10.7314347,9.58919219 10.9483927,9.37223425 L12.150012,8.17061488 C12.36697,7.95365694 12.36697,7.60189862 12.150012,7.38494068 C11.9330541,7.16798274 11.5812958,7.16798274 11.3643378,7.38494068 L11.3643378,7.38494068 Z" id="Path-76-Copy-15" fill="#353535"></path>
        </g>
    </g>
</svg>