<?xml version="1.0" encoding="UTF-8"?>
<svg width="30px" height="30px" viewBox="0 0 30 30" version="1.1" xmlns="http://www.w3.org/2000/svg" xmlns:xlink="http://www.w3.org/1999/xlink">
    <!-- Generator: Sketch 40.1 (33804) - http://www.bohemiancoding.com/sketch -->
    <title>Rectangle 172 Copy 5</title>
    <desc>Created with Sketch.</desc>
    <defs></defs>
    <g id="mockup" stroke="none" stroke-width="1" fill="none" fill-rule="evenodd">
        <rect id="Rectangle-172-Copy-5" fill="#ED4436" opacity="0" x="0" y="0" width="30" height="30"></rect>
        <g id="Group-45-Copy-2" transform="translate(5.000000, 5.000000)" fill="#353535">
            <path d="M5.10878777,12.6766848 L0.901644911,10.1488628 C0.505950521,9.91111357 0,10.1933485 0,10.6518283 L0,17.5198728 C0,17.9648461 0.479419362,18.2487022 0.874985052,18.0379365 L5.08212791,15.7962832 C5.2745951,15.6937327 5.39464286,15.4947266 5.39464286,15.2782195 L5.39464286,13.1796503 C5.39464286,12.97402 5.28625849,12.7833164 5.10878777,12.6766848 L5.10878777,12.6766848 Z M4.49299795,13.6826158 L4.20714286,13.1796503 L4.20714286,15.2782195 L4.5196578,14.7601558 L0.312514948,17.0018091 L1.1875,17.5198728 L1.1875,10.6518283 L0.285855089,11.1547938 L4.49299795,13.6826158 L4.49299795,13.6826158 Z" id="Path-75-Copy"></path>
            <path d="M5.4625,11.4936444 L5.4625,11.4936444 L5.4625,17.0596147 C5.4625,18.0355881 6.25908137,18.8235294 7.24527532,18.8235294 L15.7243675,18.8235294 C16.7086526,18.8235294 17.5071429,18.0332364 17.5071429,17.0596147 L17.5071429,11.4936444 C17.5071429,10.517671 16.7105615,9.72972973 15.7243675,9.72972973 L7.24527532,9.72972973 C6.2609903,9.72972973 5.4625,10.5200228 5.4625,11.4936444 L5.4625,11.4936444 Z M4.275,11.4936444 C4.275,9.86971446 5.60571899,8.55325914 7.24527532,8.55325914 L15.7243675,8.55325914 C17.3648053,8.55325914 18.6946429,9.86634586 18.6946429,11.4936444 L18.6946429,17.0596147 C18.6946429,18.6835447 17.3639239,20 15.7243675,20 L7.24527532,20 C5.60483756,20 4.275,18.6869133 4.275,17.0596147 L4.275,11.4936444 L4.275,11.4936444 Z" id="Rectangle-18-Copy"></path>
            <path d="M7.15892857,9.09379968 C9.07980874,9.09379968 10.6366071,7.54900866 10.6366071,5.64387917 C10.6366071,3.73874969 9.07980874,2.19395866 7.15892857,2.19395866 C5.2380484,2.19395866 3.68125,3.73874969 3.68125,5.64387917 C3.68125,7.54900866 5.2380484,9.09379968 7.15892857,9.09379968 L7.15892857,9.09379968 Z M7.15892857,7.91732909 C5.8943092,7.91732909 4.86875,6.89967989 4.86875,5.64387917 C4.86875,4.38807845 5.8943092,3.37042925 7.15892857,3.37042925 C8.42354794,3.37042925 9.44910714,4.38807845 9.44910714,5.64387917 C9.44910714,6.89967989 8.42354794,7.91732909 7.15892857,7.91732909 L7.15892857,7.91732909 Z" id="Oval-20-Copy-2"></path>
            <path d="M14.3348214,8.71224165 C16.7335265,8.71224165 18.6776786,6.7830846 18.6776786,4.40381558 C18.6776786,2.02454656 16.7335265,0.0953895072 14.3348214,0.0953895072 C11.9361163,0.0953895072 9.99196429,2.02454656 9.99196429,4.40381558 C9.99196429,6.7830846 11.9361163,8.71224165 14.3348214,8.71224165 L14.3348214,8.71224165 Z M14.3348214,7.53577107 C12.5923771,7.53577107 11.1794643,6.13375583 11.1794643,4.40381558 C11.1794643,2.67387533 12.5923771,1.2718601 14.3348214,1.2718601 C16.0772657,1.2718601 17.4901786,2.67387533 17.4901786,4.40381558 C17.4901786,6.13375583 16.0772657,7.53577107 14.3348214,7.53577107 L14.3348214,7.53577107 Z" id="Oval-20-Copy-3"></path>
        </g>
    </g>
</svg>