<?xml version="1.0" encoding="UTF-8"?>
<svg width="30px" height="30px" viewBox="0 0 30 30" version="1.1" xmlns="http://www.w3.org/2000/svg" xmlns:xlink="http://www.w3.org/1999/xlink">
    <!-- Generator: Sketch 40.1 (33804) - http://www.bohemiancoding.com/sketch -->
    <title>Rectangle 172 Copy 4</title>
    <desc>Created with Sketch.</desc>
    <defs></defs>
    <g id="mockup" stroke="none" stroke-width="1" fill="none" fill-rule="evenodd">
        <rect id="Rectangle-172-Copy-4" fill="#ED4436" opacity="0" x="0" y="0" width="30" height="30"></rect>
        <g id="Group-42-Copy-2" transform="translate(7.000000, 4.000000)">
            <path d="M4.86815416,5.36422608 L4.86815416,5.36422608 L4.86815416,19.0543786 C4.86815416,19.36447 5.11603991,19.6206788 5.41481209,19.6206788 L14.3498938,19.6206788 C14.651759,19.6206788 14.8965517,19.36817 14.8965517,19.0543786 L14.8965517,5.36422608 C14.8965517,5.05413465 14.648666,4.79792583 14.3498938,4.79792583 L5.41481209,4.79792583 C5.11294689,4.79792583 4.86815416,5.05043461 4.86815416,5.36422608 L4.86815416,5.36422608 Z M3.76470588,5.36422608 C3.76470588,4.42454926 4.50252445,3.6627907 5.41481209,3.6627907 L14.3498938,3.6627907 C15.2612223,3.6627907 16,4.43044895 16,5.36422608 L16,19.0543786 C16,19.9940554 15.2621814,20.755814 14.3498938,20.755814 L5.41481209,20.755814 C4.5034836,20.755814 3.76470588,19.9881557 3.76470588,19.0543786 L3.76470588,5.36422608 L3.76470588,5.36422608 Z" id="Rectangle-16" fill="#353535"></path>
            <ellipse id="Oval-10" fill="#353535" cx="12.8166869" cy="7.13481105" rx="1.17647059" ry="1.22093023"></ellipse>
            <path d="M6.82464188,18.5581395 C7.47500304,18.5581395 8.00222494,18.0115105 8.00222494,17.3372093 C8.00222494,16.6629082 7.47500304,16.1162791 6.82464188,16.1162791 C6.17428072,16.1162791 5.64705882,16.6629082 5.64705882,17.3372093 C5.64705882,18.0115105 6.17428072,18.5581395 6.82464188,18.5581395 Z" id="Oval-10-Copy" fill="#353535"></path>
            <rect id="Rectangle-187" fill="#FFFFFF" x="0.551724138" y="1.13513514" width="11.0344828" height="15.3243243" rx="2"></rect>
            <ellipse id="Oval-10" fill="#353535" cx="9.05198102" cy="3.7162064" rx="1.17647059" ry="1.22093023"></ellipse>
            <path d="M3.059936,15.1395349 C3.71029716,15.1395349 4.23751905,14.5929058 4.23751905,13.9186047 C4.23751905,13.2443035 3.71029716,12.6976744 3.059936,12.6976744 C2.40957483,12.6976744 1.88235294,13.2443035 1.88235294,13.9186047 C1.88235294,14.5929058 2.40957483,15.1395349 3.059936,15.1395349 Z" id="Oval-10-Copy" fill="#353535"></path>
            <path d="M1.10344828,1.94562142 L1.10344828,1.94562142 L1.10344828,15.6357739 C1.10344828,15.9458653 1.35133403,16.2020742 1.65010621,16.2020742 L10.5851879,16.2020742 C10.8870531,16.2020742 11.1318458,15.9495654 11.1318458,15.6357739 L11.1318458,1.94562142 C11.1318458,1.63553 10.8839601,1.37932118 10.5851879,1.37932118 L1.65010621,1.37932118 C1.348241,1.37932118 1.10344828,1.63182996 1.10344828,1.94562142 L1.10344828,1.94562142 Z M0,1.94562142 C0,1.00594461 0.737818569,0.244186047 1.65010621,0.244186047 L10.5851879,0.244186047 C11.4965164,0.244186047 12.2352941,1.0118443 12.2352941,1.94562142 L12.2352941,15.6357739 C12.2352941,16.5754507 11.4974755,17.3372093 10.5851879,17.3372093 L1.65010621,17.3372093 C0.738777713,17.3372093 0,16.569551 0,15.6357739 L0,1.94562142 L0,1.94562142 Z" id="Rectangle-16" fill="#353535"></path>
        </g>
    </g>
</svg>