<?xml version="1.0" encoding="UTF-8"?>
<svg width="30px" height="30px" viewBox="0 0 30 30" version="1.1" xmlns="http://www.w3.org/2000/svg" xmlns:xlink="http://www.w3.org/1999/xlink">
    <!-- Generator: Sketch 40.1 (33804) - http://www.bohemiancoding.com/sketch -->
    <title>Rectangle 172 Copy 3</title>
    <desc>Created with Sketch.</desc>
    <defs></defs>
    <g id="mockup" stroke="none" stroke-width="1" fill="none" fill-rule="evenodd">
        <rect id="Rectangle-172-Copy-3" fill="#ED4436" opacity="0" x="0" y="0" width="30" height="30"></rect>
        <g id="Group-39-Copy-2" transform="translate(8.000000, 4.000000)" fill="#353535">
            <path d="M1.2173913,2.84307289 L1.2173913,2.84307289 L1.2173913,18.1569271 C1.2173913,19.1050123 2.0305764,19.8648649 3.03779149,19.8648649 L10.9622085,19.8648649 C11.9619498,19.8648649 12.7826087,19.0981696 12.7826087,18.1569271 L12.7826087,2.84307289 C12.7826087,1.89498773 11.9694236,1.13513514 10.9622085,1.13513514 L3.03779149,1.13513514 C2.03805024,1.13513514 1.2173913,1.90183039 1.2173913,2.84307289 L1.2173913,2.84307289 Z M0,2.84307289 C0,1.27288709 1.36786947,0 3.03779149,0 L10.9622085,0 C12.6399344,0 14,1.26635206 14,2.84307289 L14,18.1569271 C14,19.7271129 12.6321305,21 10.9622085,21 L3.03779149,21 C1.36006558,21 0,19.7336479 0,18.1569271 L0,2.84307289 L0,2.84307289 Z" id="Rectangle-21"></path>
            <polygon id="Path-187" points="0.482758621 4.67626322 13.5172414 4.67626322 13.5172414 3.54112808 0.482758621 3.54112808"></polygon>
            <polygon id="Path-187-Copy" points="0.482758621 16.5458284 13.5172414 16.5458284 13.5172414 15.4106933 0.482758621 15.4106933"></polygon>
            <path d="M4.82758621,18.8284371 L9.17241379,18.8284371 C9.50858712,18.8284371 9.78110945,18.5743285 9.78110945,18.2608696 C9.78110945,17.9474107 9.50858712,17.693302 9.17241379,17.693302 L4.82758621,17.693302 C4.49141288,17.693302 4.21889055,17.9474107 4.21889055,18.2608696 C4.21889055,18.5743285 4.49141288,18.8284371 4.82758621,18.8284371 L4.82758621,18.8284371 Z" id="Path-187-Copy-2"></path>
        </g>
    </g>
</svg>