<?xml version="1.0" encoding="UTF-8"?>
<svg width="40px" height="40px" viewBox="0 0 40 40" version="1.1" xmlns="http://www.w3.org/2000/svg" xmlns:xlink="http://www.w3.org/1999/xlink">
    <!-- Generator: Sketch 40.1 (33804) - http://www.bohemiancoding.com/sketch -->
    <title>w-charity</title>
    <desc>Created with Sketch.</desc>
    <defs></defs>
    <g id="mockup" stroke="none" stroke-width="1" fill="none" fill-rule="evenodd">
        <rect id="w-charity" fill="#FF5F74" opacity="0" x="0" y="0" width="40" height="40"></rect>
        <path d="M6.00026106,18.1001576 C5.97414953,22.1322807 7.90638922,24.5954767 11.9811862,27.2643505 C12.3216825,27.4873657 13.8627883,28.4653356 14.2529167,28.7240747 C14.3900098,28.814997 14.5184602,28.9017065 14.640488,28.985815 C17.332733,30.8422143 19.7644502,33.6979586 20.1256121,34.9995112 C20.37961,35.9148669 21.6845321,35.8944758 21.9098057,34.9716308 C22.1823597,33.8550995 24.7699676,30.8538093 27.3872243,28.9032459 C27.682362,28.683228 28.0089598,28.4547613 28.4064349,28.188102 C28.6994186,27.9915443 29.8543846,27.2353745 30.1252142,27.0544971 C34.1814913,24.3454544 36.0254113,22.0022678 35.9997357,18.0374576 C35.9263244,6.89468915 24.0990934,4.44027925 20.138204,14.2325918 L21.8469707,14.2307529 C17.7583575,4.18492922 6.07440854,6.87154358 6.00026183,18.10004 L6.00026106,18.1001576 Z M7.84428754,18.1122169 C7.90544786,8.85032976 16.8309207,6.79800107 20.1389501,14.925911 C20.4510466,15.6927398 21.5372715,15.6915709 21.8477168,14.9240721 C25.0426841,7.02531116 34.095456,8.90395993 34.1557091,18.0495029 C34.1763517,21.2371265 32.6931139,23.1219713 29.1010393,25.5209897 C28.8401585,25.6952226 27.6830371,26.4528037 27.3790656,26.6567329 C26.9582089,26.9390785 26.6077948,27.1842055 26.2851681,27.4247159 C23.3543463,29.60897 20.5174349,32.8994199 20.1183429,34.5343209 L21.9025365,34.5064405 C21.407691,32.7231198 18.7036207,29.5475312 15.6871588,27.4675728 C15.5555254,27.3768436 15.4180377,27.2840334 15.2721455,27.1872755 C14.8626405,26.9156855 13.3154832,25.9338755 12.9915653,25.7217186 C9.38702835,23.3608515 7.82320795,21.367312 7.84428831,18.1120993 L7.84428754,18.1122169 Z" id="Shape-Copy-6" fill="#F1F3F3"></path>
    </g>
</svg>