<?xml version="1.0" encoding="UTF-8"?>
<svg width="40px" height="40px" viewBox="0 0 40 40" version="1.1" xmlns="http://www.w3.org/2000/svg" xmlns:xlink="http://www.w3.org/1999/xlink">
    <!-- Generator: Sketch 40.1 (33804) - http://www.bohemiancoding.com/sketch -->
    <title>w-design</title>
    <desc>Created with Sketch.</desc>
    <defs></defs>
    <g id="mockup" stroke="none" stroke-width="1" fill="none" fill-rule="evenodd">
        <rect id="w-design" fill="#FF5F74" opacity="0" x="0" y="0" width="40" height="40"></rect>
        <g id="Group-35" transform="translate(4.000000, 4.000000)">
            <path d="M2.04264867,26.7591695 L2.04264867,26.7591695 L4.50769153,29.2242124 C4.86192609,29.5784469 5.4217127,29.5794116 5.76747893,29.2336454 L29.2312922,5.76983208 C29.5740377,5.42708656 29.5728339,4.86101936 29.2218592,4.51004469 L26.7568164,2.04500183 C26.4025818,1.69076728 25.8427952,1.68980259 25.497029,2.03556882 L2.03321566,25.4993821 C1.69047014,25.8421276 1.691674,26.4081948 2.04264867,26.7591695 L2.04264867,26.7591695 Z M0.785569953,28.0162482 C-0.259180992,26.9714973 -0.261371751,25.2798121 0.77613694,24.2423034 L24.2399502,0.778490095 C25.2794915,-0.261051141 26.964896,-0.261075998 28.0138951,0.787923107 L30.4789379,3.25296597 C31.5236889,4.29771691 31.5258796,5.98940211 30.4883709,7.0269108 L7.02455765,30.4907241 C5.98501641,31.5302653 4.29961192,31.5302902 3.25061281,30.4812911 L0.785569953,28.0162482 L0.785569953,28.0162482 Z" id="Rectangle-1-Copy-3" fill="#F1F3F3"></path>
            <ellipse id="Oval-52-Copy" fill="#FF5F74" cx="16.4444444" cy="14.6666667" rx="6.66666667" ry="6.66666667"></ellipse>
            <path d="M21.9892985,20.2115207 C24.9755113,17.225308 24.9605315,12.3718767 21.9597202,9.3710654 C18.9589088,6.37025405 14.1054776,6.35527433 11.1192649,9.34148707 C8.1330521,12.3276998 8.14803183,17.1811311 11.1488432,20.1819424 C14.1496545,23.1827537 19.0030858,23.1977335 21.9892985,20.2115207 L21.9892985,20.2115207 Z M20.7322198,18.954442 C18.4420154,21.2446464 14.714199,21.2331408 12.4059219,18.9248637 C10.0976448,16.6165866 10.0861392,12.8887701 12.3763436,10.5985658 C14.6665479,8.30836144 18.3943644,8.31986705 20.7026415,10.6281441 C23.0109185,12.9364212 23.0224241,16.6642377 20.7322198,18.954442 L20.7322198,18.954442 Z" id="Oval-7-Copy-3" fill="#F1F3F3"></path>
            <polygon id="Path-76-Copy-12" fill="#F1F3F3" points="22.2222222 3.0348565 27.9545012 8.76713547 29.2115799 7.51005675 23.4793009 1.77777778"></polygon>
            <polygon id="Path-76-Copy-13" fill="#F1F3F3" points="1.77777778 23.4793009 7.51005675 29.2115799 8.76713547 27.9545012 3.0348565 22.2222222"></polygon>
            <path d="M16.2603495,14.8507616 L18.6487991,17.2392112 C18.9959318,17.5863439 19.5587451,17.5863439 19.9058778,17.2392112 C20.2530105,16.8920785 20.2530105,16.3292651 19.9058778,15.9821324 L17.5174282,13.5936829 C17.1702955,13.2465502 16.6074822,13.2465502 16.2603495,13.5936829 C15.9132168,13.9408156 15.9132168,14.5036289 16.2603495,14.8507616 L16.2603495,14.8507616 Z" id="Path-76-Copy-14" fill="#F1F3F3"></path>
            <path d="M18.1829405,11.8159051 L16.2603495,13.7384961 C15.9132168,14.0856288 15.9132168,14.6484421 16.2603495,14.9955748 C16.6074822,15.3427075 17.1702955,15.3427075 17.5174282,14.9955748 L19.4400192,13.0729838 C19.7871519,12.7258511 19.7871519,12.1630378 19.4400192,11.8159051 C19.0928865,11.4687724 18.5300732,11.4687724 18.1829405,11.8159051 L18.1829405,11.8159051 Z" id="Path-76-Copy-15" fill="#F1F3F3"></path>
        </g>
    </g>
</svg>