<?xml version="1.0" encoding="UTF-8"?>
<svg width="40px" height="40px" viewBox="0 0 40 40" version="1.1" xmlns="http://www.w3.org/2000/svg" xmlns:xlink="http://www.w3.org/1999/xlink">
    <!-- Generator: Sketch 40.1 (33804) - http://www.bohemiancoding.com/sketch -->
    <title>w-film</title>
    <desc>Created with Sketch.</desc>
    <defs></defs>
    <g id="mockup" stroke="none" stroke-width="1" fill="none" fill-rule="evenodd">
        <rect id="w-film" fill="#FF5F74" opacity="0" x="0" y="0" width="40" height="40"></rect>
        <g id="Group-45-Copy" transform="translate(5.000000, 5.000000)" fill="#F1F3F3">
            <path d="M7.52873987,19.0150273 L1.32873987,15.2232942 C0.745611294,14.8666704 0,15.2900227 0,15.9777424 L0,26.2798092 C0,26.9472692 0.706512744,27.3730532 1.28945166,27.0569048 L7.48945166,23.6944248 C7.77308752,23.540599 7.95,23.2420898 7.95,22.9173292 L7.95,19.7694755 C7.95,19.4610301 7.79027568,19.1749747 7.52873987,19.0150273 L7.52873987,19.0150273 Z M6.62126013,20.5239237 L6.2,19.7694755 L6.2,22.9173292 L6.66054834,22.1402337 L0.460548344,25.5027137 L1.75,26.2798092 L1.75,15.9777424 L0.421260131,16.7321907 L6.62126013,20.5239237 L6.62126013,20.5239237 Z" id="Path-75-Copy"></path>
            <path d="M8.05,17.2404666 L8.05,17.2404666 L8.05,25.5894221 C8.05,27.0533822 9.22390939,28.2352941 10.6772478,28.2352941 L23.1727522,28.2352941 C24.6232774,28.2352941 25.8,27.0498545 25.8,25.5894221 L25.8,17.2404666 C25.8,15.7765066 24.6260906,14.5945946 23.1727522,14.5945946 L10.6772478,14.5945946 C9.22672255,14.5945946 8.05,15.7800342 8.05,17.2404666 L8.05,17.2404666 Z M6.3,17.2404666 C6.3,14.8045717 8.26105957,12.8298887 10.6772478,12.8298887 L23.1727522,12.8298887 C25.5902394,12.8298887 27.55,14.7995188 27.55,17.2404666 L27.55,25.5894221 C27.55,28.025317 25.5889404,30 23.1727522,30 L10.6772478,30 C8.25976061,30 6.3,28.0303699 6.3,25.5894221 L6.3,17.2404666 L6.3,17.2404666 Z" id="Rectangle-18-Copy"></path>
            <path d="M10.55,13.6406995 C13.3807708,13.6406995 15.675,11.323513 15.675,8.46581876 C15.675,5.60812453 13.3807708,3.290938 10.55,3.290938 C7.71922922,3.290938 5.425,5.60812453 5.425,8.46581876 C5.425,11.323513 7.71922922,13.6406995 10.55,13.6406995 L10.55,13.6406995 Z M10.55,11.8759936 C8.6863504,11.8759936 7.175,10.3495198 7.175,8.46581876 C7.175,6.58211768 8.6863504,5.05564388 10.55,5.05564388 C12.4136496,5.05564388 13.925,6.58211768 13.925,8.46581876 C13.925,10.3495198 12.4136496,11.8759936 10.55,11.8759936 L10.55,11.8759936 Z" id="Oval-20-Copy-2"></path>
            <path d="M21.125,13.0683625 C24.6599338,13.0683625 27.525,10.1746269 27.525,6.60572337 C27.525,3.03681985 24.6599338,0.143084261 21.125,0.143084261 C17.5900662,0.143084261 14.725,3.03681985 14.725,6.60572337 C14.725,10.1746269 17.5900662,13.0683625 21.125,13.0683625 L21.125,13.0683625 Z M21.125,11.3036566 C18.5571873,11.3036566 16.475,9.20063375 16.475,6.60572337 C16.475,4.01081299 18.5571873,1.90779014 21.125,1.90779014 C23.6928127,1.90779014 25.775,4.01081299 25.775,6.60572337 C25.775,9.20063375 23.6928127,11.3036566 21.125,11.3036566 L21.125,11.3036566 Z" id="Oval-20-Copy-3"></path>
        </g>
    </g>
</svg>