<?xml version="1.0" encoding="UTF-8"?>
<svg width="40px" height="40px" viewBox="0 0 40 40" version="1.1" xmlns="http://www.w3.org/2000/svg" xmlns:xlink="http://www.w3.org/1999/xlink">
    <!-- Generator: Sketch 40.1 (33804) - http://www.bohemiancoding.com/sketch -->
    <title>w-game</title>
    <desc>Created with Sketch.</desc>
    <defs></defs>
    <g id="mockup" stroke="none" stroke-width="1" fill="none" fill-rule="evenodd">
        <rect id="w-game" fill="#FF5F74" opacity="0" x="0" y="0" width="40" height="40"></rect>
        <g id="Group-42-Copy" transform="translate(8.000000, 4.000000)">
            <path d="M7.30223124,7.91861944 L7.30223124,7.91861944 L7.30223124,28.1278922 C7.30223124,28.5856462 7.67405986,28.9638592 8.12221813,28.9638592 L21.5248407,28.9638592 C21.9776385,28.9638592 22.3448276,28.5911082 22.3448276,28.1278922 L22.3448276,7.91861944 C22.3448276,7.46086544 21.972999,7.08265242 21.5248407,7.08265242 L8.12221813,7.08265242 C7.66942033,7.08265242 7.30223124,7.45540347 7.30223124,7.91861944 L7.30223124,7.91861944 Z M5.64705882,7.91861944 C5.64705882,6.53147748 6.75378668,5.40697674 8.12221813,5.40697674 L21.5248407,5.40697674 C22.8918334,5.40697674 24,6.54018655 24,7.91861944 L24,28.1278922 C24,29.5150341 22.8932721,30.6395349 21.5248407,30.6395349 L8.12221813,30.6395349 C6.75522539,30.6395349 5.64705882,29.5063251 5.64705882,28.1278922 L5.64705882,7.91861944 L5.64705882,7.91861944 Z" id="Rectangle-16" fill="#F1F3F3"></path>
            <ellipse id="Oval-10" fill="#F1F3F3" cx="19.2250303" cy="10.5323401" rx="1.76470588" ry="1.80232558"></ellipse>
            <path d="M10.2369628,27.3953488 C11.2125046,27.3953488 12.0033374,26.5884202 12.0033374,25.5930233 C12.0033374,24.5976263 11.2125046,23.7906977 10.2369628,23.7906977 C9.26142107,23.7906977 8.47058824,24.5976263 8.47058824,25.5930233 C8.47058824,26.5884202 9.26142107,27.3953488 10.2369628,27.3953488 Z" id="Oval-10-Copy" fill="#F1F3F3"></path>
            <rect id="Rectangle-187" fill="#FF5F74" x="0.827586207" y="1.67567568" width="16.5517241" height="22.6216216" rx="2"></rect>
            <ellipse id="Oval-10" fill="#F1F3F3" cx="13.5779715" cy="5.48582849" rx="1.76470588" ry="1.80232558"></ellipse>
            <path d="M4.589904,22.3488372 C5.56544574,22.3488372 6.35627858,21.5419086 6.35627858,20.5465116 C6.35627858,19.5511147 5.56544574,18.744186 4.589904,18.744186 C3.61436225,18.744186 2.82352941,19.5511147 2.82352941,20.5465116 C2.82352941,21.5419086 3.61436225,22.3488372 4.589904,22.3488372 Z" id="Oval-10-Copy" fill="#F1F3F3"></path>
            <path d="M1.65517241,2.87210782 L1.65517241,2.87210782 L1.65517241,23.0813806 C1.65517241,23.5391346 2.02700104,23.9173476 2.47515931,23.9173476 L15.8777819,23.9173476 C16.3305797,23.9173476 16.6977688,23.5445965 16.6977688,23.0813806 L16.6977688,2.87210782 C16.6977688,2.41435381 16.3259401,2.03614079 15.8777819,2.03614079 L2.47515931,2.03614079 C2.0223615,2.03614079 1.65517241,2.40889184 1.65517241,2.87210782 L1.65517241,2.87210782 Z M0,2.87210782 C0,1.48496586 1.10672785,0.360465116 2.47515931,0.360465116 L15.8777819,0.360465116 C17.2447746,0.360465116 18.3529412,1.49367492 18.3529412,2.87210782 L18.3529412,23.0813806 C18.3529412,24.4685225 17.2462133,25.5930233 15.8777819,25.5930233 L2.47515931,25.5930233 C1.10816657,25.5930233 0,24.4598134 0,23.0813806 L0,2.87210782 L0,2.87210782 Z" id="Rectangle-16" fill="#F1F3F3"></path>
        </g>
    </g>
</svg>