<?xml version="1.0" encoding="UTF-8"?>
<svg width="40px" height="40px" viewBox="0 0 40 40" version="1.1" xmlns="http://www.w3.org/2000/svg" xmlns:xlink="http://www.w3.org/1999/xlink">
    <!-- Generator: Sketch 40.1 (33804) - http://www.bohemiancoding.com/sketch -->
    <title>w-tech</title>
    <desc>Created with Sketch.</desc>
    <defs></defs>
    <g id="mockup" stroke="none" stroke-width="1" fill="none" fill-rule="evenodd">
        <rect id="w-tech" fill="#FF5F74" opacity="0" x="0" y="0" width="40" height="40"></rect>
        <g id="Group-39-Copy" transform="translate(10.000000, 5.000000)" fill="#F1F3F3">
            <path d="M1.73913043,4.19691713 L1.73913043,4.19691713 L1.73913043,26.8030829 C1.73913043,28.2026372 2.90082343,29.3243243 4.33970213,29.3243243 L15.6602979,29.3243243 C17.0884997,29.3243243 18.2608696,28.1925361 18.2608696,26.8030829 L18.2608696,4.19691713 C18.2608696,2.79736284 17.0991766,1.67567568 15.6602979,1.67567568 L4.33970213,1.67567568 C2.91150034,1.67567568 1.73913043,2.80746391 1.73913043,4.19691713 L1.73913043,4.19691713 Z M0,4.19691713 C0,1.8790238 1.95409924,0 4.33970213,0 L15.6602979,0 C18.0570492,0 20,1.86937685 20,4.19691713 L20,26.8030829 C20,29.1209762 18.0459008,31 15.6602979,31 L4.33970213,31 C1.94295082,31 0,29.1306231 0,26.8030829 L0,4.19691713 L0,4.19691713 Z" id="Rectangle-21"></path>
            <polygon id="Path-187" points="0.689655172 6.90305523 19.3103448 6.90305523 19.3103448 5.22737955 0.689655172 5.22737955"></polygon>
            <polygon id="Path-187-Copy" points="0.689655172 24.4247944 19.3103448 24.4247944 19.3103448 22.7491187 0.689655172 22.7491187"></polygon>
            <path d="M6.89655172,27.7943596 L13.1034483,27.7943596 C13.5836959,27.7943596 13.9730135,27.4192468 13.9730135,26.9565217 C13.9730135,26.4937967 13.5836959,26.1186839 13.1034483,26.1186839 L6.89655172,26.1186839 C6.41630412,26.1186839 6.02698651,26.4937967 6.02698651,26.9565217 C6.02698651,27.4192468 6.41630412,27.7943596 6.89655172,27.7943596 L6.89655172,27.7943596 Z" id="Path-187-Copy-2"></path>
        </g>
    </g>
</svg>