<?xml version="1.0" encoding="UTF-8"?>
<svg width="306px" height="186px" viewBox="0 0 306 186" version="1.1" xmlns="http://www.w3.org/2000/svg" xmlns:xlink="http://www.w3.org/1999/xlink">
    <!-- Generator: Sketch 40 (33762) - http://www.bohemiancoding.com/sketch -->
    <title>Fill 1</title>
    <desc>Created with Sketch.</desc>
    <defs></defs>
    <g id="mockup" stroke="none" stroke-width="1" fill="none" fill-rule="evenodd">
        <g id="LP" transform="translate(-186.000000, -2606.000000)" fill="#FFF8D7">
            <g id="Group-13" transform="translate(0.000000, 1995.000000)">
                <g id="Page-1" transform="translate(186.000000, 611.000000)">
                    <path d="M282.989,-0.0002 L22.477,-0.0002 C10.063,-0.0002 0,10.0628 0,22.4768 L0,140.2868 C0,152.7008 10.063,162.7638 22.477,162.7638 L42.235,162.7638 C46.879,162.7638 50.644,166.5288 50.644,171.1718 L50.644,177.0878 C50.644,184.2158 59.262,187.7858 64.303,182.7458 L78.842,168.2068 C82.326,164.7218 87.053,162.7638 91.981,162.7638 L282.989,162.7638 C295.403,162.7638 305.466,152.7008 305.466,140.2868 L305.466,22.4768 C305.466,10.0628 295.403,-0.0002 282.989,-0.0002" id="Fill-1"></path>
                </g>
            </g>
        </g>
    </g>
</svg>