<?xml version="1.0" encoding="UTF-8"?>
<svg width="122px" height="89px" viewBox="0 0 122 89" version="1.1" xmlns="http://www.w3.org/2000/svg" xmlns:xlink="http://www.w3.org/1999/xlink">
    <!-- Generator: Sketch 40 (33762) - http://www.bohemiancoding.com/sketch -->
    <title>Page 1</title>
    <desc>Created with Sketch.</desc>
    <defs>
        <path d="M35.0164,73.5983012 C15.5401598,72.6987165 0.026,56.6235897 0.026,36.925 C0.026,17.2254388 15.5401598,1.15122813 35.0164,0.251696406 L35.0164,73.5983012 L35.0164,73.5983012 Z" id="path-1"></path>
        <path d="M0.0947224594,36.1899 C0.0491291457,35.4407787 0.026,34.6855903 0.026,33.925 C0.026,19.1746034 8.72406303,6.45677106 21.2706373,0.6199 L23.1114,0.6199 L23.1114,36.1899 L0.0947224594,36.1899 L0.0947224594,36.1899 Z" id="path-3"></path>
    </defs>
    <g id="mockup" stroke="none" stroke-width="1" fill="none" fill-rule="evenodd">
        <g id="LP" transform="translate(-184.000000, -1642.000000)">
            <g id="Page-1" transform="translate(184.000000, 1644.000000)">
                <g id="Group-11" transform="translate(0.000000, 6.422000)">
                    <path d="M57.496,29.1871 C57.496,12.9471 43.904,-0.1189 27.474,0.7451 C12.799,1.5171 1.023,13.5531 0.547,28.2411 C0.194,39.1081 5.934,48.6631 14.609,53.7581 C17.633,55.5341 19.484,58.7831 19.484,62.2901 L19.484,62.3721 C19.484,63.3201 20.253,64.0891 21.201,64.0891 L36.826,64.0891 C37.774,64.0891 38.543,63.3201 38.543,62.3721 L38.543,62.2911 C38.543,58.8121 40.347,55.5511 43.352,53.7971 C51.811,48.8591 57.496,39.6891 57.496,29.1871" id="Fill-1" fill="#88C1FF"></path>
                    <path d="M35.1332,69.5069 L22.8942,69.5069 C21.9672,69.5069 21.2162,68.7559 21.2162,67.8289 L21.2162,67.7949 C21.2162,66.8679 21.9672,66.1169 22.8942,66.1169 L35.1332,66.1169 C36.0602,66.1169 36.8112,66.8679 36.8112,67.7949 L36.8112,67.8289 C36.8112,68.7559 36.0602,69.5069 35.1332,69.5069" id="Fill-3" fill="#68D0FF"></path>
                    <path d="M33.3547,74.6357 L24.6727,74.6357 C23.7457,74.6357 22.9947,73.8847 22.9947,72.9577 L22.9947,72.9237 C22.9947,71.9967 23.7457,71.2457 24.6727,71.2457 L33.3547,71.2457 C34.2817,71.2457 35.0327,71.9967 35.0327,72.9237 L35.0327,72.9577 C35.0327,73.8847 34.2817,74.6357 33.3547,74.6357" id="Fill-5" fill="#68D0FF"></path>
                    <path d="M29.6562,79.7646 L28.3712,79.7646 C27.4442,79.7646 26.6932,79.0136 26.6932,78.0866 L26.6932,78.0526 C26.6932,77.1256 27.4442,76.3746 28.3712,76.3746 L29.6562,76.3746 C30.5832,76.3746 31.3342,77.1256 31.3342,78.0526 L31.3342,78.0866 C31.3342,79.0136 30.5832,79.7646 29.6562,79.7646" id="Fill-7" fill="#68D0FF"></path>
                    <path d="M30.1833,7.6327 C41.4853,7.6327 50.6463,16.7947 50.6463,28.0957" id="Stroke-9" stroke="#FFFFFF" stroke-width="3" stroke-linecap="round"></path>
                </g>
                <g id="Group-18" transform="translate(42.000000, 1.422000)">
                    <g id="Group-14">
                        <mask id="mask-2" fill="white">
                            <use xlink:href="#path-1"></use>
                        </mask>
                        <g id="Clip-13"></g>
                        <path d="M35.0164,41.0859 C35.0164,12.8569 11.3904,-9.8541 -17.1676,-8.3521 C-42.6766,-7.0091 -63.1466,13.9109 -63.9736,39.4419 C-64.5856,58.3309 -54.6086,74.9389 -39.5296,83.7949 C-34.2736,86.8819 -31.0566,92.5299 -31.0566,98.6249 L-31.0566,98.7679 C-31.0566,100.4169 -29.7196,101.7529 -28.0716,101.7529 L-0.9126,101.7529 C0.7364,101.7529 2.0734,100.4169 2.0734,98.7679 L2.0734,98.6279 C2.0734,92.5799 5.2074,86.9109 10.4304,83.8629 C25.1344,75.2799 35.0164,59.3399 35.0164,41.0859" id="Fill-12" fill="#88C1FF" mask="url(#mask-2)"></path>
                    </g>
                    <g id="Group-17" transform="translate(0.000000, 3.000000)">
                        <mask id="mask-4" fill="white">
                            <use xlink:href="#path-3"></use>
                        </mask>
                        <g id="Clip-16"></g>
                        <path d="M-12.4586,0.6199 C7.1864,0.6199 23.1114,16.5449 23.1114,36.1899" id="Stroke-15" stroke="#FFFFFF" stroke-width="3" stroke-linecap="round" mask="url(#mask-4)"></path>
                    </g>
                </g>
                <g id="Group-27" transform="translate(40.000000, 0.422000)">
                    <path d="M76.5332,37.925 C76.5332,58.798 59.6122,75.719 38.7392,75.719 C17.8652,75.719 0.9442,58.798 0.9442,37.925 C0.9442,17.052 17.8652,0.131 38.7392,0.131 C59.6122,0.131 76.5332,17.052 76.5332,37.925" id="Fill-19" fill-opacity="0.599999964" fill="#FFFFFF"></path>
                    <path d="M76.5332,37.925 C76.5332,58.798 59.6122,75.719 38.7392,75.719 C17.8652,75.719 0.9442,58.798 0.9442,37.925 C0.9442,17.052 17.8652,0.131 38.7392,0.131 C59.6122,0.131 76.5332,17.052 76.5332,37.925 L76.5332,37.925 Z" id="Stroke-21" stroke="#008EFF" stroke-width="5"></path>
                    <path d="M38.7387,14.0956 C51.8997,14.0956 62.5677,24.7646 62.5677,37.9246" id="Stroke-23" stroke="#008EFF" stroke-width="5" stroke-linecap="round"></path>
                    <path d="M65.1931,69.0084 L76.9721,80.7874" id="Stroke-25" stroke="#008EFF" stroke-width="9" stroke-linecap="round" stroke-linejoin="round"></path>
                </g>
            </g>
        </g>
    </g>
</svg>