<?xml version="1.0" encoding="UTF-8"?>
<svg width="1440px" height="58px" viewBox="0 0 1440 58" version="1.1" xmlns="http://www.w3.org/2000/svg" xmlns:xlink="http://www.w3.org/1999/xlink">
    <!-- Generator: Sketch 40.1 (33804) - http://www.bohemiancoding.com/sketch -->
    <title>Fill 1</title>
    <desc>Created with Sketch.</desc>
    <defs></defs>
    <g id="mockup" stroke="none" stroke-width="1" fill="none" fill-rule="evenodd">
        <g id="LP" transform="translate(0.000000, -3838.000000)" fill="#008EFF">
            <g id="Group-20" transform="translate(0.000000, 3838.000000)">
                <g id="Page-1">
                    <path d="M0,0 L0,58 L1439.95232,58 L1440,0.587044534 C1395.06815,0.587044534 1395.06815,35.6344794 1350.13807,35.6344794 C1305.20622,35.6344794 1305.20622,0.587044534 1260.27613,0.587044534 C1215.35135,0.587044534 1215.35135,35.6344794 1170.42656,35.6344794 C1125.50001,35.6344794 1125.50001,0.587044534 1080.57346,0.587044534 C1035.65044,0.587044534 1035.65044,35.6344794 990.725651,35.6344794 C945.80263,35.6344794 945.80263,0.587044534 900.87961,0.587044534 C855.953058,0.587044534 855.953058,35.6344794 811.028272,35.6344794 C766.103486,35.6344794 766.103486,0.587044534 721.1787,0.587044534 C676.253913,0.587044534 676.253913,35.6344794 631.329127,35.6344794 C586.404341,35.6344794 586.404341,0.587044534 541.479555,0.587044534 C496.556535,0.587044534 496.556535,35.6344794 451.63528,35.6344794 C406.714026,35.6344794 406.714026,0.587044534 361.792771,0.587044534 C316.871517,0.587044534 316.871517,35.6344794 271.950262,35.6344794 C227.029008,35.6344794 227.029008,0.587044534 182.105987,0.587044534 C137.186499,0.587044534 137.186499,35.6344794 92.26701,35.6344794 C47.3439897,35.6344794 47.3439897,0.587044534 2.41920353,0.587044534" id="Fill-1"></path>
                </g>
            </g>
        </g>
    </g>
</svg>